<svg width="64" height="64" viewBox="0 0 64 64" fill="none" xmlns="http://www.w3.org/2000/svg">
<path d="M39.1995 9.8667H19.7857L18.1756 18.8621L35.699 18.8828C44.3308 18.8828 46.8757 22.0198 46.803 27.2134C46.7614 29.8726 45.6084 34.3806 45.1098 35.8452C43.7803 39.7404 41.0484 44.1758 30.8066 44.1654L13.7714 44.155L12.1614 53.1608H31.5337C38.3685 53.1608 41.2666 52.361 44.3516 50.9483C51.176 47.7802 55.2374 41.0492 56.8682 32.2616C59.2885 19.1737 56.2762 9.8667 39.1995 9.8667Z" fill="#008DE4"/>
<path d="M11.4031 26.9953C6.31338 26.9953 5.58627 30.3088 5.10846 32.3136C4.47483 34.9311 4.26709 36.001 4.26709 36.001H24.1483C29.238 36.001 29.9652 32.6875 30.443 30.6828C31.0766 28.0652 31.2843 26.9953 31.2843 26.9953H11.4031Z" fill="#008DE4"/>
</svg>
