<svg width="16" height="16" viewBox="0 0 16 16" fill="none" xmlns="http://www.w3.org/2000/svg">
<path fill-rule="evenodd" clip-rule="evenodd" d="M3.59799 13.0035H3.85175L1.99695 1.50471H0V0H3.26934L3.91269 4H16L15.0015 11H5.03822L5.36403 13H13.4522C13.4612 13.0001 13.4703 13 13.4794 13C14.3065 13 14.9771 13.6716 14.9771 14.5C14.9771 15.3284 14.3065 16 13.4794 16C12.6522 16 11.9817 15.3284 11.9817 14.5C11.9817 14.4933 11.9817 14.4866 11.9818 14.4798H4.99223C4.99232 14.4866 4.99236 14.4933 4.99236 14.5C4.99236 15.3284 4.32182 16 3.49466 16C2.66749 16 1.99695 15.3284 1.99695 14.5C1.99695 13.6716 2.66749 13 3.49466 13C3.52939 13 3.56384 13.0012 3.59799 13.0035ZM4.15332 5.50135L4.79868 9.49783H13.7487L14.3236 5.50135H4.15332Z" fill="#414141"/>
</svg>
