<svg width="48" height="49" viewBox="0 0 48 49" fill="none" xmlns="http://www.w3.org/2000/svg">
<path d="M43.9999 28.2917H45.4062C45.4062 27.9472 45.2798 27.6148 45.051 27.3574L43.9999 28.2917ZM36.9999 20.4167L38.051 19.4824C37.7841 19.1822 37.4016 19.0104 36.9999 19.0104V20.4167ZM29.9999 20.4167V19.0104C29.2233 19.0104 28.5937 19.64 28.5937 20.4167H29.9999ZM29.9999 36.75H28.5937C28.5937 37.5266 29.2232 38.1561 29.9997 38.1562L29.9999 36.75ZM34.1704 36.7506L34.1702 38.1568C34.7697 38.1569 35.3034 37.7769 35.4994 37.2104L34.1704 36.7506ZM39.8294 36.7506L38.5005 37.2104C38.6965 37.7769 39.2302 38.1569 39.8296 38.1568L39.8294 36.7506ZM43.9999 36.75L44.0001 38.1562C44.7767 38.1561 45.4062 37.5266 45.4062 36.75H43.9999ZM39.8294 36.7506L38.5005 37.2104L38.5005 37.2104L39.8294 36.7506ZM34.1704 36.7506L35.4994 37.2104L35.4994 37.2104L34.1704 36.7506ZM15.8294 36.7506L17.1584 36.2908L17.1584 36.2908L15.8294 36.7506ZM10.1704 36.7506L8.84149 36.2908L8.84149 36.2908L10.1704 36.7506ZM45.051 27.3574L38.051 19.4824L35.9489 21.3509L42.9489 29.2259L45.051 27.3574ZM36.9999 19.0104H29.9999V21.8229H36.9999V19.0104ZM28.5937 20.4167V36.75H31.4062V20.4167H28.5937ZM29.9997 38.1562L34.1702 38.1568L34.1706 35.3443L30.0001 35.3437L29.9997 38.1562ZM35.4994 37.2104C35.7262 36.5548 36.3264 36.1146 36.9999 36.1146V33.3021C35.0606 33.3021 33.438 34.5668 32.8415 36.2908L35.4994 37.2104ZM36.9999 36.1146C37.6735 36.1146 38.2737 36.5548 38.5005 37.2104L41.1584 36.2908C40.5619 34.5668 38.9393 33.3021 36.9999 33.3021V36.1146ZM39.8296 38.1568L44.0001 38.1562L43.9997 35.3437L39.8292 35.3443L39.8296 38.1568ZM45.4062 36.75V28.2917H42.5937V36.75H45.4062ZM41.1584 36.2908C40.5619 34.5668 38.9393 33.3021 36.9999 33.3021V36.1146C37.6735 36.1146 38.2737 36.5548 38.5005 37.2104L41.1584 36.2908ZM36.9999 33.3021C35.0606 33.3021 33.438 34.5668 32.8415 36.2908L35.4994 37.2104C35.7262 36.5548 36.3264 36.1146 36.9999 36.1146V33.3021ZM32.8415 36.2908C32.6805 36.7561 32.5937 37.2548 32.5937 37.7708H35.4062C35.4062 37.5714 35.4395 37.3833 35.4994 37.2104L32.8415 36.2908ZM32.5937 37.7708C32.5937 40.2114 34.5392 42.2396 36.9999 42.2396V39.4271C36.1469 39.4271 35.4062 38.713 35.4062 37.7708H32.5937ZM36.9999 42.2396C39.4606 42.2396 41.4062 40.2114 41.4062 37.7708H38.5937C38.5937 38.713 37.8529 39.4271 36.9999 39.4271V42.2396ZM41.4062 37.7708C41.4062 37.2548 41.3194 36.7561 41.1584 36.2908L38.5005 37.2104C38.5603 37.3833 38.5937 37.5714 38.5937 37.7708H41.4062ZM17.1584 36.2908C16.5619 34.5668 14.9393 33.3021 12.9999 33.3021V36.1146C13.6735 36.1146 14.2737 36.5548 14.5005 37.2104L17.1584 36.2908ZM12.9999 33.3021C11.0606 33.3021 9.43799 34.5668 8.84149 36.2908L11.4994 37.2104C11.7262 36.5548 12.3264 36.1146 12.9999 36.1146V33.3021ZM8.84149 36.2908C8.68049 36.7561 8.59369 37.2548 8.59369 37.7708H11.4062C11.4062 37.5714 11.4395 37.3833 11.4994 37.2104L8.84149 36.2908ZM8.59369 37.7708C8.59369 40.2114 10.5392 42.2396 12.9999 42.2396V39.4271C12.1469 39.4271 11.4062 38.713 11.4062 37.7708H8.59369ZM12.9999 42.2396C15.4606 42.2396 17.4062 40.2114 17.4062 37.7708H14.5937C14.5937 38.713 13.8529 39.4271 12.9999 39.4271V42.2396ZM17.4062 37.7708C17.4062 37.2548 17.3194 36.7561 17.1584 36.2908L14.5005 37.2104C14.5603 37.3833 14.5937 37.5714 14.5937 37.7708H17.4062Z" fill="#FED700"/>
</svg>
