<svg width="64" height="64" viewBox="0 0 64 64" fill="none" xmlns="http://www.w3.org/2000/svg">
<path d="M32.0002 58.6666C46.7278 58.6666 58.6668 46.7275 58.6668 31.9999C58.6668 17.2723 46.7278 5.33325 32.0002 5.33325C17.2726 5.33325 5.3335 17.2723 5.3335 31.9999C5.3335 46.7275 17.2726 58.6666 32.0002 58.6666Z" fill="#988430"/>
<path d="M32 57.8125C46.2558 57.8125 57.8125 46.2558 57.8125 32C57.8125 17.7441 46.2558 6.1875 32 6.1875C17.7441 6.1875 6.1875 17.7441 6.1875 32C6.1875 46.2558 17.7441 57.8125 32 57.8125Z" fill="#7A6A2A"/>
<path d="M32.0001 57.2684C45.9555 57.2684 57.2687 45.9553 57.2687 31.9998C57.2687 18.0443 45.9555 6.7312 32.0001 6.7312C18.0446 6.7312 6.73145 18.0443 6.73145 31.9998C6.73145 45.9553 18.0446 57.2684 32.0001 57.2684Z" fill="#BA9F33"/>
<path fill-rule="evenodd" clip-rule="evenodd" d="M16.9927 29.1521C16.8416 29.0142 16.6821 28.8759 16.5353 28.738C16.3885 28.6 16.2378 28.4618 16.0867 28.3238L15.6379 27.8972C15.5645 27.8238 15.4868 27.7592 15.4134 27.6855C15.3401 27.621 15.2539 27.5476 15.1805 27.4827C14.5849 26.9175 13.9858 26.3523 13.3984 25.7869C14.0069 26.3435 14.6025 26.8962 15.2109 27.4611L15.4223 27.6727C15.4957 27.7458 15.5733 27.8107 15.6467 27.8841L16.0953 28.2982C16.2463 28.4362 16.3931 28.5744 16.5441 28.7249C16.6952 28.8754 16.8419 29.0139 16.993 29.1516L16.9927 29.1521ZM9.08769 29.0668C9.08769 29.0668 11.2537 29.2909 12.311 29.442C13.2904 29.5802 16.3541 30.0504 16.3541 30.0504L9.08769 29.0668ZM9.08769 29.0668C9.69611 29.1186 10.3045 29.1831 10.913 29.248C11.2236 29.2781 11.5214 29.3126 11.8192 29.3427L12.2763 29.3948C12.4273 29.4161 12.5741 29.4377 12.7252 29.4593L14.5376 29.7483L15.4436 29.8994C15.7414 29.9511 16.0392 30.0075 16.3498 30.0592C16.052 30.0291 15.7414 29.9858 15.4436 29.9426L14.5376 29.8132L12.7252 29.5458C12.5741 29.5242 12.4273 29.4937 12.2763 29.4724L11.8189 29.4198C11.5211 29.3896 11.2105 29.3464 10.9127 29.3117C10.3043 29.2386 9.69583 29.1607 9.0874 29.0659L9.08769 29.0668ZM16.1385 30.6147C16.1385 30.6147 13.8257 31.2018 13.0446 31.4263C12.2766 31.6376 9.95069 32.3453 9.95069 32.3453L16.1382 30.615L16.1385 30.6147Z" fill="#CFB66C"/>
<path fill-rule="evenodd" clip-rule="evenodd" d="M16.1384 30.6147C15.625 30.7658 15.1144 30.9126 14.5936 31.0508L13.0488 31.465C12.5354 31.616 12.0248 31.7628 11.5128 31.9139L10.7448 32.1252C10.4902 32.1986 10.2314 32.2632 9.96826 32.3368C10.2226 32.2515 10.4817 32.1642 10.7363 32.0908L11.5043 31.845C12.0177 31.6852 12.5283 31.5341 13.0403 31.3745C13.5622 31.2451 14.0759 31.1069 14.5979 30.9817C15.094 30.8565 15.6162 30.7317 16.1384 30.615V30.6147ZM10.2746 33.7694C10.5289 33.6744 13.4632 32.3067 14.145 31.9872C14.4864 31.8274 15.4785 31.4752 15.4785 31.4752L10.2746 33.7694Z" fill="#CFB66C"/>
<path fill-rule="evenodd" clip-rule="evenodd" d="M10.2747 33.7691C10.4988 33.6838 10.7105 33.5794 10.9261 33.4801L11.5647 33.1823L12.8464 32.5653C13.273 32.3625 13.6877 32.1387 14.1278 31.9481C14.3522 31.8534 14.5766 31.7757 14.8008 31.7023L15.1421 31.5945C15.2584 31.5644 15.3665 31.5297 15.4834 31.4995C15.0568 31.7023 14.6076 31.875 14.1804 32.0732C13.7537 32.2849 13.3174 32.4575 12.8771 32.6472L11.574 33.221C11.1366 33.3982 10.7099 33.5879 10.2744 33.7691H10.2747ZM10.5591 34.9638C10.5591 34.9638 13.217 33.4061 14.1318 32.9055C14.6108 32.6381 16.1599 31.8699 16.1599 31.8699L10.5591 34.9638Z" fill="#CFB66C"/>
<path fill-rule="evenodd" clip-rule="evenodd" d="M10.5591 34.9643C11.0076 34.6881 11.465 34.4076 11.9224 34.1229L12.6051 33.7084C12.838 33.5705 13.0625 33.4411 13.3 33.3031C13.5329 33.1649 13.7574 33.0269 13.9946 32.8975C14.1075 32.8277 14.2258 32.7672 14.3484 32.7163L14.7108 32.5351C15.1898 32.3021 15.6688 32.0646 16.1737 31.8618C15.7163 32.1511 15.2458 32.3971 14.7757 32.6514C14.5427 32.7809 14.3052 32.8975 14.0722 33.0269C13.8393 33.1563 13.6149 33.2946 13.3773 33.4197C13.1444 33.5577 12.92 33.6871 12.6827 33.8123L11.9793 34.1963L10.5597 34.9643H10.5591ZM16.1381 32.2111C16.1381 32.2111 14.4855 33.4797 13.9505 33.8854C13.4155 34.291 11.8405 35.4302 11.8405 35.4302L16.1381 32.2111Z" fill="#CFB66C"/>
<path fill-rule="evenodd" clip-rule="evenodd" d="M25.6225 42.4421L24.7769 40.8413L25.2687 38.8391L28.7767 37.4843L27.2837 34.4208L28.0215 31.3269L29.4068 28.5564L33.6874 27.8834L36.8328 24.8845L43.6248 25.3979L44.958 32.6601L42.3906 41.8036L40.928 46.5373L34.999 46.7617L32.2461 44.8545L29.0228 43.508L25.6225 42.4421Z" fill="#E2CC85"/>
<path fill-rule="evenodd" clip-rule="evenodd" d="M36.0219 42.3904C36.0219 42.3904 35.2018 42.7659 33.8032 42.6794C33.3985 42.1358 30.5637 41.8813 30.5637 41.8813C30.5637 41.8813 30.2099 41.7735 29.5841 42.0323C28.9543 42.2883 28.3587 42.2567 27.8021 42.3947C27.2454 42.5326 26.6927 41.8079 26.2661 41.6568C25.8394 41.4973 25.2736 41.1133 25.2736 41.1133L24.079 40.9966L21.68 39.9826L17.8688 36.1855L16.8331 37.8069L16.5137 39.8133L17.6659 42.191L20.7684 45.0173L26.8179 46.5533L30.4036 45.4968L34.8955 43.5982L36.0219 42.3901V42.3904Z" fill="#F1D789"/>
<path fill-rule="evenodd" clip-rule="evenodd" d="M14.5289 28.971L15.2969 26.6454L16.212 25.1435L19.1589 24.8975L18.2743 27.4779L15.8107 31.8621L16.8332 35.7758L15.021 36.6817L14.4641 35.8275L14.0155 33.8686L13.9854 31.6678L14.5289 28.971Z" fill="#F4ECB4"/>
<path fill-rule="evenodd" clip-rule="evenodd" d="M17.8338 42.2308L17.2686 41.4412C17.2686 41.4412 17.1176 41.0657 17.2041 40.7377C17.2894 40.4055 17.2772 40.3839 17.2342 40.2587C17.1913 40.1336 16.8286 39.7021 16.8502 39.3309C16.8716 38.9554 16.8201 38.8303 17.096 38.5327C17.385 38.2437 17.2988 37.7431 17.2988 37.7431L17.6743 37.9761L17.7596 37.8467C17.7596 37.8467 17.8975 37.9545 17.8975 38.1228C17.9277 37.8899 17.8025 36.811 18.0873 36.5652C18.372 36.3195 18.8769 37.7172 18.8769 37.7172L18.5663 35.6891L17.7678 33.6096L16.3482 31.7109L16.2628 29.618V29.4368C16.2628 29.4368 15.6112 30.438 15.43 31.2288C15.3006 31.7723 15.6112 32.4325 15.5466 33.2136C15.4946 33.9904 15.43 33.9299 15.6197 34.2376C15.8094 34.5454 16.2714 35.1783 16.0902 35.6357C15.9306 36.0285 15.3868 35.7523 15.3868 35.7523C15.3868 35.7523 15.279 36.0714 15.1322 36.1881C15.0804 35.9983 15.0244 35.8774 14.9208 35.7614C14.912 35.8348 14.8907 35.934 14.8907 35.934C14.8907 35.934 14.7957 35.6362 14.7007 35.2608C14.5715 34.7604 14.4333 34.1002 14.3081 33.7464C14.2564 33.9492 14.127 34.5662 14.127 34.5662L14.2003 35.5156L14.5542 36.8187L14.8955 37.672L15.2278 38.7162L15.5165 39.4176L15.7494 39.9527L15.9522 41.1567L16.9316 42.1921L17.4538 42.4254L17.8333 42.2311L17.8338 42.2308Z" fill="#F3E19D"/>
<path fill-rule="evenodd" clip-rule="evenodd" d="M15.0421 27.0723C15.0421 27.0723 14.3386 28.267 14.1361 29.4713C13.9336 30.6756 13.7521 31.9482 13.8801 33.5878C14.0095 35.2407 14.2556 36.2545 14.4541 36.9795C14.7955 38.1836 15.6795 39.8578 15.6795 39.8578L15.7097 39.7929C15.5611 39.5113 15.4425 39.2148 15.3558 38.9083C15.2392 38.4509 15.196 37.9074 15.0882 37.6613C14.9932 37.4156 14.8336 37.2039 14.7559 36.9018C14.6825 36.6128 14.6706 36.1555 14.4453 35.8147C14.3503 35.6765 14.2337 35.3141 14.1993 34.9517C14.156 34.4078 14.2209 33.7994 14.1691 33.2991C14.0741 32.4662 14.0095 31.901 14.0957 31.465C14.1819 31.0289 14.6311 29.791 14.9073 28.8071C15.0885 28.1771 14.9804 27.6463 15.3126 27.0982C15.6448 26.5546 15.8479 26.0756 15.921 25.7434C16.0064 25.4413 15.0409 27.0723 15.0409 27.0723H15.0421Z" fill="#F2E8B0"/>
<path fill-rule="evenodd" clip-rule="evenodd" d="M18.378 26.5933C18.378 26.5933 18.0156 26.7013 17.843 26.8911C17.6703 27.0723 17.5969 27.2233 17.3639 27.5296C17.131 27.836 17.1179 28.0863 16.9279 28.4703C16.7382 28.8457 16.3194 29.4109 16.2677 29.6137C16.2159 29.8165 16.1297 30.7657 16.0219 31.2146C15.9269 31.6634 16.1297 32.2158 16.1297 32.2158L16.3755 32.1637C16.3755 32.1637 16.3755 32.4832 16.6215 32.699C16.8673 32.9104 16.9105 31.9825 16.9105 31.9825L17.8296 28.8802L19.2146 27.9395L19.3656 27.1801L18.3774 26.5933H18.378Z" fill="#F5EEC0"/>
<path fill-rule="evenodd" clip-rule="evenodd" d="M19.0511 28.0002C19.0511 28.0002 18.3994 28.0431 18.0803 28.2764C17.9508 28.3711 17.8991 28.4488 17.7611 28.5654C17.5066 28.7767 17.2474 28.971 17.1226 29.248C16.9843 29.524 16.8333 29.9427 16.7297 30.7323C16.6865 31.0645 16.6865 31.3709 16.6564 31.6385C16.6131 32.0009 16.5486 32.2899 16.583 32.4918C16.6262 32.906 17.0534 33.1219 17.095 33.5921L17.9796 33.1435L18.8124 29.8596L20.5816 28.7503L19.5804 27.6284L19.0499 27.9982L19.0511 28.0002Z" fill="#E6DB9D"/>
<path fill-rule="evenodd" clip-rule="evenodd" d="M14.3841 50.113C14.3878 50.0806 14.3915 50.0481 14.3952 50.0148C14.5243 48.9055 14.5462 48.0647 14.6409 47.5382C14.7789 46.7918 14.8739 46.5142 14.8523 46.2349C14.8221 45.7863 14.7877 45.4583 14.8309 45.113C14.8955 44.6556 15.3444 44.1121 15.3316 43.7366C15.3227 43.4388 15.1717 43.2448 15.0423 43.0636C14.9129 42.8824 14.8093 42.7314 14.8093 42.7314C14.8093 42.7314 15.694 42.1229 15.6854 39.6719C15.7035 39.677 15.7209 39.6842 15.7372 39.6935L16.173 40.9317L16.4708 41.2941L17.6142 43.4257L19.0857 44.8542L21.2603 46.3168L22.6239 47.8007L22.7619 51.7576L20.9798 54.0705L20.688 54.599C18.3694 53.435 16.2432 51.9219 14.3838 50.1127L14.3841 50.113Z" fill="#E5CB7A"/>
<path fill-rule="evenodd" clip-rule="evenodd" d="M19.8276 53.8985C19.8276 53.8985 19.8578 53.4067 20.2634 53.0872C20.3283 53.195 20.3712 53.2988 20.3584 53.3762C20.4318 53.2471 20.9452 52.4185 22.106 52.2026C23.2668 51.9913 23.5473 51.1456 23.5473 51.1456L26.0109 48.9062L28.8286 46.3129L32.2547 45.1088L33.8558 44.716C33.8558 44.716 33.886 44.8326 33.8257 45.0915C34.1232 45.0702 34.7834 44.9191 35.4695 44.6773C35.7457 44.5695 36.0048 44.5263 36.1428 44.6688C36.3456 44.8585 36.3757 45.3074 36.3885 45.5748C36.7208 45.5014 37.1048 45.1822 37.4125 45.2124C37.9046 45.2641 38.3404 45.8424 38.841 45.8424C39.5012 45.8424 39.7987 45.4368 40.2607 45.1174C40.5369 44.9276 40.9337 44.6907 41.1581 44.5306C41.6931 44.1377 47.3544 42.4075 47.3544 42.4075L49.3393 42.5369L49.6587 44.6685L49.488 50.2408C49.467 50.261 49.4459 50.282 49.4246 50.3022L40.3998 55.0158L27.8899 56.9335C25.0877 56.4756 22.3834 55.5455 19.8925 54.1826L19.8285 53.8982L19.8276 53.8985Z" fill="#D8C173"/>
<path fill-rule="evenodd" clip-rule="evenodd" d="M15.1426 50.822C15.3204 50.4502 15.4802 50.1393 15.5084 50.0281C15.5306 50.2522 15.5712 50.744 15.6532 51.2668C15.4812 51.1206 15.311 50.9722 15.1426 50.8217V50.822Z" fill="#F1D789"/>
<path fill-rule="evenodd" clip-rule="evenodd" d="M24.2808 56.066L25.8987 55.616L26.0367 55.6593C26.0367 55.6593 26.1101 55.7025 26.1101 55.849C26.3129 55.7326 26.4855 55.754 26.6107 55.6766C26.6753 55.8146 26.7398 56.272 27.0249 56.328C27.3224 56.3928 27.6418 56.1986 27.9655 55.9528C28.2847 55.6982 28.6482 55.3788 28.9232 55.2494C29.0242 55.4349 29.1136 55.6265 29.1909 55.8231C29.5533 55.5341 30.1833 54.3605 31.0808 54.3818C31.3402 53.7688 31.7735 53.2453 32.3272 52.876C33.1601 52.3108 33.682 52.2675 34.3337 52.3193C34.5925 51.9831 34.9115 51.6978 35.2744 51.4779C35.3822 51.5211 35.68 51.7023 36.0512 51.5297C36.4267 51.3573 36.8493 50.6883 37.406 50.6021C37.706 50.5608 38.011 50.6248 38.269 50.7833C38.269 50.7833 39.8904 49.1736 41.0091 48.6386C40.9658 48.5091 40.8797 48.0216 42.1912 46.9427C42.2646 47.0075 42.2129 47.1887 42.2646 47.1987C42.286 47.1987 42.606 47.0607 43.011 46.7498C43.5116 46.3747 44.1113 45.9818 44.4736 45.874C45.1563 45.6712 45.8805 46.0854 45.8805 46.0854C45.9421 46.0422 46.0107 46.01 46.0833 45.9904C46.2557 45.9602 46.3808 45.9386 46.4759 45.905C46.4673 46.1295 46.5925 46.5135 46.4759 46.8457C46.6109 46.9217 46.754 46.9824 46.9025 47.0269C46.8294 47.1865 46.6696 47.5921 46.4022 47.7864C46.6263 47.8942 46.6565 48.0193 46.9759 48.1277C46.8465 48.3089 46.6346 48.6198 46.5401 48.8104C46.4451 49.0132 46.1041 49.8546 45.953 50.1737C45.7935 50.4932 45.5779 51.08 45.474 51.1977C45.3702 51.3155 44.995 51.8147 44.706 52.0604C44.962 51.9654 46.0094 51.6463 46.4537 51.5254C46.3214 51.7194 45.651 52.7141 45.0064 53.6707C41.9203 55.5204 38.4754 56.6912 34.9013 57.105C31.3272 57.5187 27.7059 57.166 24.2788 56.0703L24.2808 56.066Z" fill="#E0CD81"/>
<path fill-rule="evenodd" clip-rule="evenodd" d="M19.1573 27.8833C19.1573 27.8833 18.7821 27.8833 18.7087 27.9351C18.6353 27.9869 19.0842 28.095 19.2222 28.1467C19.3601 28.1985 19.658 28.4357 19.7356 28.6257C19.809 28.8069 22.4325 29.8639 22.4325 29.8639L24.288 29.7689L24.9277 28.8852L23.7108 27.8193L24.5642 25.3037L23.4338 25.4849L20.7153 27.1062L19.3516 27.6285L19.1573 27.8833Z" fill="#DFC57C"/>
<path fill-rule="evenodd" clip-rule="evenodd" d="M23.2323 28.7162C23.2591 28.7596 23.2968 28.7952 23.3418 28.8194C23.3867 28.8436 23.4372 28.8556 23.4883 28.8541C23.8723 28.8541 24.2258 28.9491 24.3726 29.1431C24.6186 29.454 25.3004 30.4465 25.3004 30.4465L26.9315 31.0333L27.0367 29.1127L25.2547 27.8745L23.2266 28.6209V28.7159H23.2311L23.2323 28.7162Z" fill="#E5CC7C"/>
<path fill-rule="evenodd" clip-rule="evenodd" d="M22.9121 29.4281C22.9121 29.4281 23.2096 29.4497 23.5851 29.3115C23.9605 29.1733 24.5775 28.8757 24.8452 28.9923C25.2203 29.1519 25.1427 29.6525 25.5486 30.1017C25.7944 30.3779 26.2432 30.3693 26.4978 30.6672C26.7524 30.965 27.6282 30.8267 27.6282 30.8267L27.9604 32.6187L26.6272 34.3277L26.1912 36.4505H24.3883L22.7414 35.7971L21.9302 33.8344L22.3358 31.8496L22.9121 29.4281Z" fill="#D2C281"/>
<path fill-rule="evenodd" clip-rule="evenodd" d="M26.3998 29.5144C26.4445 29.5282 26.4909 29.5355 26.5377 29.536C26.4859 29.5792 26.3779 29.674 26.4211 29.92C26.4643 30.166 26.6023 30.4766 26.4859 30.6664C26.5788 30.7679 26.6481 30.8887 26.6888 31.0202C26.7621 31.2318 26.7838 31.4258 27.2625 31.4563C27.1934 31.4988 27.1297 31.5495 27.0728 31.6073C27.0728 31.6073 27.405 31.8963 27.5734 32.1636C27.7457 32.1562 28.2031 32.014 28.2031 32.014L28.2981 32.0789L28.5009 31.9936C28.5009 31.9936 28.3112 31.9202 28.4492 31.4585C28.5786 31.0529 28.6952 31.0745 28.7052 31.0444C28.7151 31.0142 28.8002 30.587 28.8002 30.4144C28.8648 30.1902 28.9165 29.5084 28.9165 29.5084L28.7786 28.0026L28.002 27.5322L27.3706 26.9226L26.7749 28.0444L26.3827 28.4355L26.3525 29.4063L26.3998 29.5144Z" fill="#E2C270"/>
<path fill-rule="evenodd" clip-rule="evenodd" d="M28.2676 28.2547C28.2676 28.2547 28.4055 28.6472 28.4576 28.9493C28.4759 28.8906 28.4861 28.8296 28.4877 28.7681C28.4877 28.7681 28.5955 29.3637 28.6169 29.6098C28.6601 29.601 28.7022 29.5882 28.7119 29.6311C28.7216 29.6741 28.82 30.1534 28.7972 30.4207C28.9769 30.1243 29.2255 29.8757 29.522 29.696C29.6946 29.5879 29.8974 29.4715 30.1091 29.4627C30.4413 29.4542 30.6828 29.6744 31.0799 29.6744C32.0376 29.6744 32.9052 28.9709 33.5437 28.7553C34.0139 28.5955 34.4195 28.4791 34.7043 28.22C34.8425 28.1037 35.0886 27.8448 35.3127 27.4605C35.6105 26.9485 35.9211 26.5028 36.232 26.4468C36.0914 26.4726 35.9483 26.4827 35.8054 26.4769C35.8054 26.4769 35.9004 26.3819 36.0614 26.2525C36.2224 26.1231 36.4152 25.9635 36.6911 25.9635C37.1832 25.9635 37.429 26.0366 37.7052 26.0366C37.9814 26.0281 38.1409 25.9635 38.1409 25.9635C38.1409 25.9635 38.4302 26.1663 39.0816 26.1663C39.7332 26.1748 40.169 26.2309 40.5101 26.2613C40.8511 26.2917 41.9943 26.1663 42.3223 26.176C42.5361 26.1842 42.746 26.2356 42.9395 26.327L41.8822 23.255L38.0843 19.9355L35.8233 21.5364L32.3451 25.0143L28.9795 26.2613L28.2761 27.0509V28.2547H28.2676Z" fill="#CCB360"/>
<path fill-rule="evenodd" clip-rule="evenodd" d="M35.8191 26.494C35.8191 26.494 35.9141 26.3992 36.0734 26.2698C36.2327 26.1404 36.4275 25.9805 36.7034 25.9805C37.1953 25.9805 37.4413 26.0539 37.7175 26.0539C37.9937 26.0454 38.1533 25.9805 38.1533 25.9805C38.1533 25.9805 38.4429 26.1831 39.094 26.1831C39.7456 26.1916 40.1814 26.2476 40.5225 26.2778C40.8635 26.3079 42.0067 26.1831 42.3347 26.1925C42.5484 26.2005 42.7583 26.2519 42.9516 26.3435L42.4726 24.9582L41.9163 23.9013L40.3282 22.1622L38.4079 21.0318C38.3993 21.0232 37.7477 20.8506 37.7477 20.8506L36.0216 21.8948L34.4554 25.9467L34.4253 26.8L35.4391 27.279C35.6937 26.8524 35.9744 26.511 36.2375 26.4678C36 26.4937 35.8188 26.4937 35.8188 26.4937L35.8191 26.494Z" fill="#D5B457"/>
<path fill-rule="evenodd" clip-rule="evenodd" d="M35.7974 26.7832C35.6463 26.7918 35.5215 26.7616 35.4868 26.6538C35.3573 26.2914 35.2538 26.2397 35.1454 26.2397C35.0371 26.2397 34.8909 26.4726 34.8041 26.494C34.7174 26.5153 34.6144 26.2266 34.6144 26.2266L34.5194 26.1833C34.5194 26.1833 33.9627 26.5457 33.5702 26.973C33.1777 27.4002 32.5346 28.1253 32.2456 28.2544C31.9566 28.3835 30.9639 28.427 30.6243 28.5004C30.2847 28.5738 29.9081 28.8199 29.8563 28.8759C29.8046 28.9319 30.0077 28.9922 30.0378 29.0483C30.068 29.1 29.7053 29.0784 29.6751 29.1336C29.6538 29.1768 29.7605 29.4226 29.8134 29.5478C29.906 29.5017 30.0075 29.4767 30.1109 29.4744C30.4431 29.4658 30.6849 29.686 31.0817 29.686C32.0397 29.686 32.9069 28.9826 33.5455 28.7667C34.0159 28.6071 34.4215 28.4905 34.7063 28.2316C34.8442 28.1153 35.0903 27.8562 35.3147 27.4722C35.4785 27.2091 35.6384 26.963 35.7982 26.7818L35.7974 26.7832Z" fill="#D2B257"/>
<path fill-rule="evenodd" clip-rule="evenodd" d="M22.0586 48.1383C22.0586 48.1383 21.9732 47.8189 21.1825 46.9948C20.958 46.7619 20.8201 46.5681 20.669 46.4296C20.2936 46.0755 20.0734 45.9808 19.806 45.7779C19.2192 45.3422 18.5806 45.3422 18.0888 44.8071C17.597 44.2721 17.0239 43.2498 16.6256 42.205C16.2331 41.1608 16.125 40.8285 16.125 40.7984C16.125 40.7682 16.2331 40.5654 16.371 40.5956C16.509 40.6257 16.509 40.8931 16.5437 40.958C16.6124 41.0638 16.6904 41.1634 16.7767 41.2555C16.9795 41.4887 17.2685 41.7675 17.4152 42.1834C17.3851 41.8295 17.2642 41.437 17.2642 41.437C17.2642 41.437 18.0237 41.916 18.6708 42.4163C19.3225 42.917 19.5898 43.0896 19.7801 43.4088C19.9704 43.7279 20.4187 44.5696 20.6335 44.8157C20.8482 45.0617 23.7908 45.9893 23.7908 45.9893L25.1906 47.0329L25.8855 48.5562L25.3416 49.4095L24.2974 49.6339L22.6016 48.8745L22.0586 48.138V48.1383Z" fill="#D2B159"/>
<path fill-rule="evenodd" clip-rule="evenodd" d="M18.291 42.891C18.291 42.891 18.6449 43.4562 19.5079 43.9912C20.2847 44.4617 21.5143 44.8889 22.6106 45.1435C23.2403 45.2946 23.8704 45.4109 24.4355 45.4197C25.9587 45.4411 27.0072 45.0056 28.3062 44.8631C29.0097 44.7897 29.8727 44.7336 30.7701 44.5217C31.9221 44.2455 32.6039 43.9346 33.5317 43.4977C34.2047 43.1871 34.822 42.9542 35.3223 42.6563C36.0257 42.2422 36.5391 41.7805 37.1348 41.6426C37.0614 41.8454 36.9837 42.2078 36.3969 42.5832C36.7075 42.5744 37.1348 42.5531 37.1348 42.5531C37.1348 42.5531 36.7206 42.7988 35.9913 43.3512C35.5424 43.6926 34.9471 44.2703 34.3387 44.6543C33.9459 44.9003 33.5186 45.0809 33.2382 45.2283C32.5555 45.6038 32.2802 45.7935 31.8316 46.2523C31.9912 46.2438 32.0043 46.2523 32.0043 46.2523C32.0043 46.2523 31.4388 46.3257 31.0335 46.5413C30.9481 46.5413 30.8002 46.5111 30.5414 46.5845C30.3386 46.6491 30.0709 46.7961 29.795 46.8735C29.4022 46.9901 29.2731 46.9384 29.2731 46.9384L29.3376 47.0678C29.3376 47.0678 28.8256 47.059 28.655 47.0763C28.6851 47.0849 28.6766 47.0979 28.6766 47.0979C28.6466 47.103 28.6177 47.1132 28.5912 47.1281C28.5091 47.1813 28.4188 47.2206 28.3239 47.2444C28.2721 47.253 28.2289 47.253 28.164 47.266C28.1856 47.3178 28.354 47.6074 28.4317 47.778C28.3671 47.8213 27.396 48.5549 27.396 48.5549C27.4261 48.6023 27.4508 48.6529 27.4694 48.7059C27.4996 48.8006 27.5126 48.9389 27.5428 49.0034C27.6159 49.1329 27.6591 49.1545 27.6591 49.1545C27.6591 49.1545 27.5428 49.1761 27.3397 49.2279C27.1673 49.2711 26.9557 49.3442 26.657 49.3874C26.5654 49.3994 26.4732 49.4066 26.3808 49.4091C26.4241 49.5041 26.6138 49.8664 26.2642 50.2849C25.9146 50.7033 25.8068 50.7641 25.699 51.0315C25.6448 50.9905 25.587 50.9543 25.5264 50.9234C25.41 50.8717 25.2502 50.7943 25.1941 50.6905C25.1615 50.8288 25.1182 50.9644 25.0647 51.0961C24.9569 51.3851 24.7974 51.6701 24.7672 51.8857C24.6506 51.7563 24.435 51.5017 24.1372 51.5535C23.8394 51.6052 23.6021 52.0109 23.5504 52.1275C23.5504 52.0541 23.4986 51.9981 23.4858 52.0842C23.477 52.1793 23.3131 53.1714 22.3984 53.9741C22.3898 53.7713 22.3898 53.3224 22.3682 53.1759C22.2829 53.2613 22.1785 53.3873 21.557 53.655C20.9486 53.9223 21.045 54.19 21.045 54.19C21.045 54.19 20.9932 53.7633 21.3212 53.3139C21.6534 52.8653 21.8562 52.6537 21.8562 52.6193C21.8509 52.5842 21.8359 52.5514 21.813 52.5243C21.7697 52.4811 21.6836 52.4293 21.6836 52.3949C21.7353 52.3735 22.2487 52.1275 22.2186 51.618C22.1884 51.1609 21.9945 50.9234 21.8562 50.7553C21.8349 50.7337 22.0593 50.5741 22.0289 50.5224C22.0073 50.4922 21.7313 50.2891 21.6966 50.181C21.7048 50.1165 21.7193 50.053 21.7399 49.9913C21.77 49.8963 21.7916 49.8314 21.7831 49.7669C21.7615 49.6591 21.6449 49.3613 21.6105 49.3311C21.6406 49.3396 21.8562 49.3311 21.8562 49.3311C21.8562 49.3311 21.6838 49.0549 21.6534 48.9255C21.623 48.7961 21.5584 48.455 21.524 48.3905C21.5974 48.399 21.7786 48.4118 21.7786 48.3905C21.7874 48.3256 21.619 48.2178 21.6932 48.1345C21.745 48.143 21.8443 48.1862 21.939 48.3071C21.8872 48.1689 21.801 47.9015 21.6196 47.7937C21.7049 47.7635 21.995 47.6856 22.2496 47.8366C22.5042 47.9877 22.5909 48.199 22.5909 48.199C22.5909 48.199 22.742 48.3156 22.9752 48.4883C23.2426 48.6996 23.5834 49.0003 24.1272 49.2131C24.2438 49.2779 24.5414 49.2779 24.7572 49.2347C24.8512 49.2123 24.9414 49.1759 25.0246 49.1269C25.0547 49.1092 25.0865 49.0947 25.1196 49.0836C25.0732 48.9905 25.0199 48.9011 24.9601 48.816C25.0334 48.816 25.1196 48.8248 25.1196 48.8248C25.1196 48.8248 25.1714 48.7082 24.9384 48.4835C24.9902 48.4317 25.0551 48.3981 25.0551 48.3108C24.9817 48.3023 24.8522 48.1945 24.8221 48.1512C24.865 48.1211 24.9299 48.0218 25.0033 47.9917C24.9384 47.9399 24.7789 47.724 24.7055 47.7027C24.7756 47.6766 24.8434 47.6449 24.9083 47.6077C24.9083 47.6077 24.5459 47.5127 24.4293 47.435C24.3127 47.3497 24.1403 47.202 24.0368 47.1588C23.9287 47.1156 23.7389 47.0942 23.6613 47.0078C23.7344 47.0294 23.851 47.0078 23.9375 47.0078C24.0021 47.0078 24.0325 47.0163 24.0538 47.0163C24.0453 46.9862 24.0453 46.9213 24.2137 46.9C24.2947 46.8878 24.3733 46.863 24.4466 46.8266C24.4466 46.8266 24.2868 46.818 24.1053 46.6454C23.9238 46.4727 23.7731 46.3348 23.6695 46.3132C23.5617 46.2915 23.3589 46.3865 23.2338 46.3777C23.0611 46.3564 22.9877 46.2699 22.9877 46.2699C22.9877 46.2699 22.414 46.3217 21.1411 45.5452C20.0406 44.8719 19.5616 44.2765 19.5616 44.2765C19.4586 44.2392 19.3591 44.1929 19.2641 44.1383C18.8499 43.9227 18.2759 43.4738 18.2933 42.8867L18.291 42.891Z" fill="#C2A44D"/>
<path fill-rule="evenodd" clip-rule="evenodd" d="M34.1663 16.9922C34.2661 17.0247 34.3548 17.0845 34.4223 17.1649C34.6251 17.3979 34.7545 17.8379 34.2929 18.3084C34.4741 18.3729 34.5489 18.3937 34.707 18.3729C34.5475 18.5629 34.1851 18.9686 34.1635 19.3224C34.1418 19.6114 34.323 19.6979 34.323 19.6979C34.323 19.6979 34.0468 20.017 34.034 20.5512C34.1645 20.4041 34.3072 20.2684 34.4607 20.1456C34.7801 19.891 35.2202 19.602 35.518 19.4208C35.514 19.4968 35.5242 19.5728 35.5482 19.645C35.5482 19.645 36.1045 19.1876 36.5722 19.3907C36.7835 19.4857 36.6885 19.7832 36.6885 19.7832C36.6885 19.7832 36.9778 19.6754 37.1806 19.8782C37.3834 20.081 37.6701 20.6041 37.8172 20.8069C37.8818 20.9019 38.0502 21.0831 38.2225 21.3636C38.458 21.7562 38.6547 22.1709 38.8096 22.6018C38.8182 22.3773 38.8742 22.028 39.5131 22.2479C40.1517 22.4724 40.8764 22.9428 41.4849 23.8693C42.0933 24.7957 42.2441 25.8416 42.5504 26.2398C42.861 26.6238 43.1805 27.2624 43.2021 27.5301C43.2237 27.7977 43.1071 28.6604 43.7457 30.9949C43.9269 30.2701 44.2031 28.6604 44.2031 28.6604L44.3541 27.2408L44.5268 22.8481L39.9397 19.0374L36.354 16.4353L34.0195 16.6597L34.166 16.992L34.1663 16.9922Z" fill="#CAA13E"/>
<path fill-rule="evenodd" clip-rule="evenodd" d="M42.6885 23.5293C42.6885 23.5293 42.6237 23.1027 41.5451 22.3773C40.4662 21.6611 39.6248 21.6611 38.8482 21.0527C38.2526 20.5737 37.6314 19.4731 37.2269 19.1108C36.8341 18.7527 36.7695 17.717 36.7695 17.717L38.0942 16.6077L40.0642 13.7601L41.7297 11.9263L42.5278 13.0356L43.6372 14.3386L44.2541 16.9535L44.4785 20.781L42.6865 23.5296L42.6885 23.5293Z" fill="#B59544"/>
<path fill-rule="evenodd" clip-rule="evenodd" d="M44.0219 28.1173C44.0545 27.5368 43.9828 26.9552 43.8102 26.4001C43.5258 25.5155 42.9043 23.9447 42.6156 23.3565C42.4989 22.7049 42.5854 22.6531 42.7106 22.5797C42.8357 22.5063 43.3062 22.2384 43.5639 21.2983C43.8216 20.3582 44.6212 20.3275 44.6212 20.3275L45.113 19.9651L45.8597 21.8333L46.5111 23.5206L46.7139 24.8109L46.8649 25.9111L46.5111 28.237L44.7637 29.8162L44.0216 28.1173H44.0219Z" fill="#C89D3A"/>
<path fill-rule="evenodd" clip-rule="evenodd" d="M19.6377 54.0412V53.9934C19.674 53.9707 19.7061 53.9418 19.7324 53.9081C19.7626 53.8648 19.7845 53.8131 19.8058 53.8003C19.849 53.7786 20.0518 53.7149 20.1597 53.7354C20.2675 53.7559 20.5525 53.8734 20.7035 53.8648C21.0141 53.8563 21.3765 53.6188 21.9505 53.7269C22.8135 53.8865 23.0163 54.4733 23.517 54.8055C23.8583 55.0388 24.2116 54.9349 24.2633 54.9349H24.3797C24.4013 54.9349 24.5609 54.7537 24.6473 54.7626C24.82 54.7711 24.8371 54.9136 24.9449 54.9221C25.1994 54.9523 25.6915 54.7927 25.9376 54.8576C26.0105 54.8804 26.0769 54.9206 26.131 54.9746C26.185 55.0286 26.2253 55.095 26.2482 55.1679C26.3 55.3275 26.2567 55.5303 26.1316 55.6469C25.8642 55.8927 25.6096 56.1259 25.5578 56.3296C25.6237 56.3798 25.6869 56.4333 25.7473 56.49C23.6123 55.946 21.5581 55.1236 19.6377 54.0438V54.0412Z" fill="#CEB052"/>
<path fill-rule="evenodd" clip-rule="evenodd" d="M42.6147 45.4198C42.6147 45.4198 43.2877 44.5224 43.521 44.0778C43.7539 43.6196 42.7831 37.8169 42.7831 37.8169L44.7336 31.4266L44.6815 29.3467C44.6815 29.3467 44.7765 27.4264 45.0009 26.5936C45.2686 27.0726 46.1014 27.6508 46.2826 27.9572C46.368 27.3701 46.6578 26.1319 46.6149 24.8115C46.7744 25.0573 47.1584 27.53 47.1584 27.53L47.5424 29.1954L48.043 30.9646L48.5997 32.8331L48.9319 34.1234L49.1216 34.434L49.2815 34.9776L49.4325 35.5647L49.8683 36.9411L50.1243 38.0715L50.3271 40.1212C50.3712 40.2781 50.403 40.4383 50.4221 40.6002C50.4306 40.8246 50.392 40.954 50.392 40.993C50.392 41.032 50.4653 41.4848 50.4352 41.8259C50.392 42.1672 50.392 42.4343 50.1243 42.6792C49.8566 42.9241 49.6885 44.3878 49.6885 44.3878L49.2095 44.0687C49.2095 44.0687 49.3045 43.6326 49.0801 43.2358C48.8557 42.839 48.4199 42.7568 48.1739 42.8217C47.9281 42.8735 47.4363 42.9508 47.2765 43.0891C47.1254 43.227 46.7545 43.6543 46.4135 43.8485C45.9868 44.1045 45.2916 44.1247 44.9207 44.2109C44.5453 44.2963 44.1311 44.5523 43.6951 44.8495C43.3532 45.0709 42.9922 45.2612 42.6165 45.4184L42.6147 45.4198Z" fill="#CCA847"/>
<path fill-rule="evenodd" clip-rule="evenodd" d="M42.6147 54.8478C42.6147 54.8478 42.6432 54.8663 42.6981 54.8965C45.7637 53.4602 48.5105 51.4243 50.7763 48.9089C50.7516 48.0357 50.7194 47.1405 50.6841 46.8089C50.611 46.1054 50.6628 45.3892 50.6412 44.975C50.6196 44.5609 50.3866 42.8736 50.2788 42.4378C50.1622 42.002 49.9375 41.7861 49.9033 41.7861C49.8732 41.795 49.6917 42.6062 49.6917 42.8101C49.6917 43.0141 49.6485 43.505 49.6485 43.6302C49.6183 43.6214 49.6055 43.5449 49.6055 43.5136C49.5623 43.6214 49.5105 43.8114 49.4889 43.833C49.4673 43.8546 49.5191 43.6518 49.4889 43.6086C49.4588 43.5653 49.4036 43.5869 49.4155 43.4791C49.4206 43.4152 49.4307 43.3518 49.4457 43.2894C49.4457 43.2894 49.3163 43.4791 49.2215 43.9624C49.1265 44.4414 49.1265 44.4545 49.0921 44.4975C49.062 44.5495 48.8893 44.7219 48.8805 44.7867C48.872 44.9031 49.0403 45.0197 49.0531 45.0843C49.0617 45.1924 48.9021 45.6927 48.8503 45.9376C48.7986 46.1825 48.8202 46.6624 48.765 46.9084C48.7218 47.1328 48.6797 47.2623 48.532 47.357C48.6398 47.3786 48.7434 47.4087 48.7434 47.4087C48.7434 47.4087 48.8944 48.0473 48.5104 48.5912C48.3725 48.7809 48.338 48.8674 48.1913 49.04C47.902 49.3592 47.6776 49.7227 47.656 49.9591C47.641 49.8893 47.6309 49.8186 47.6258 49.7474C47.6258 49.7474 47.1772 50.2697 46.9872 50.5675C46.7415 50.9515 46.4004 50.9299 46.3046 51.0249C46.2087 51.1199 46.1879 51.2923 46.2192 51.4305C46.1339 51.4518 45.9735 51.4823 45.8654 51.8145C45.8136 51.9869 45.6842 52.1558 45.4814 52.2719C45.2786 52.3879 45.0325 52.4229 44.9074 52.4531C45.0152 52.4832 45.0584 52.4832 45.1102 52.5176C45.0456 52.6255 44.7478 52.7938 44.4156 53.0097C44.0833 53.2125 43.9235 53.5101 43.8416 53.7044C43.7562 53.8855 43.6302 54.0022 43.4274 54.0238C43.5127 54.0756 43.639 54.1962 43.7036 54.2351C43.6086 54.2567 43.4476 54.2567 43.16 54.5028C42.8579 54.7531 42.7544 54.8265 42.6162 54.8481L42.6147 54.8478Z" fill="#C39D3C"/>
<path fill-rule="evenodd" clip-rule="evenodd" d="M36.6108 56.8475C36.776 56.7317 36.955 56.6369 37.1436 56.5651C37.8166 56.2977 38.5285 56.2459 38.809 56.1598C39.0766 56.0744 39.288 55.9567 39.6202 55.8921C39.6114 55.9678 39.604 56.0389 39.596 56.106C38.6166 56.4139 37.6191 56.6616 36.6094 56.8475H36.6108Z" fill="#D2BA6B"/>
<path fill-rule="evenodd" clip-rule="evenodd" d="M49.0239 39.1457C49.0239 39.1457 48.886 39.8921 48.6399 40.3626C48.3939 40.833 48.1279 41.4844 48.1279 41.4844C48.1295 41.3376 48.1469 41.1914 48.1797 41.0484C47.8691 41.2296 47.1139 41.6656 46.8997 41.8596C46.6969 42.0408 46.3558 42.3602 46.2696 42.5113C46.4724 41.9159 46.6838 41.3809 46.7185 41.1348C46.4079 41.3593 44.9578 42.5545 44.2029 43.3441L41.8511 45.247C41.5797 45.3935 41.3002 45.5243 41.014 45.639C40.6086 45.8114 40.1296 45.9582 39.7758 46.0964C39.8708 45.8418 40.0215 45.6171 40.2332 45.4015C40.4576 45.1902 41.1306 44.4608 41.2341 44.1215C41.3291 43.7677 41.3507 43.5563 41.2256 43.2585C41.109 43.2886 40.8416 43.3017 40.6604 43.3535C40.4792 43.4053 40.2849 43.5993 40.2849 43.5993C40.2849 43.5993 40.4229 42.8096 40.7207 42.0633C40.4963 42.0718 40.1123 42.1364 40.1123 42.1364C40.1123 42.1364 40.6473 41.2389 41.5629 40.6134C41.2825 40.6731 41.0081 40.7582 40.7432 40.8677C40.2081 41.0922 39.6213 41.4244 39.1855 41.6056C39.4313 41.2643 41.1573 38.801 42.1844 36.5052C43.2084 34.214 43.591 33.6272 43.8154 32.3976C43.9318 31.7891 43.9008 30.89 43.9318 30.0847C43.9619 29.2863 44.0612 28.5701 43.9966 28.0911C44.264 28.4233 45.2653 29.3597 45.2997 31.4526C45.3298 33.5453 44.342 36.3718 43.2932 37.8947C43.5492 37.9681 44.2125 38.0546 44.8941 36.8707C45.5756 35.6869 45.5673 35.3563 45.8134 34.8643C45.8435 35.1103 45.8347 35.1965 45.8347 35.1965C45.8347 35.1965 46.8274 33.9927 47.2976 32.4781C47.3926 33.1297 47.6731 33.7037 47.2328 34.899C46.8402 35.9776 46.3268 36.241 46.3268 36.241C46.3268 36.241 46.5814 36.1977 46.9566 35.9733C47.0214 36.1329 47.0086 36.3146 47.1164 36.3789C47.2242 36.4432 47.371 36.5516 47.3926 36.6551C47.509 36.4825 47.6901 36.2623 47.7465 36.0985C47.7032 36.4398 47.6731 37.9323 47.8318 38.6917C48.1643 38.6616 48.5051 38.64 48.738 38.0401C48.5785 38.6272 48.5785 38.9807 48.6863 39.4814C48.8632 39.3608 49.0228 39.1449 49.0228 39.1449L49.0239 39.1457Z" fill="#C0993A"/>
<path fill-rule="evenodd" clip-rule="evenodd" d="M37.8126 15.3613C37.8126 15.3613 37.4804 15.4993 36.9152 15.4993C36.4233 15.4993 36.5613 15.3096 35.7933 15.3096C34.6111 15.3096 30.4815 15.9922 29.7564 15.9826C29.286 15.974 31.3442 16.1854 31.3442 16.1854L36.6045 16.2588L37.6616 16.1734L38.0544 15.3741L37.8126 15.3613Z" fill="#A88F33"/>
<path fill-rule="evenodd" clip-rule="evenodd" d="M24.173 25.6439C24.173 25.6439 23.4998 26.1573 23.215 26.5501C22.9303 26.9429 22.7793 27.2015 22.4556 27.5209C22.5316 27.5238 22.6075 27.5136 22.68 27.4908C22.68 27.4908 22.68 27.5761 22.6282 27.5986C22.673 27.5936 22.7182 27.5987 22.7608 27.6134C22.8033 27.6282 22.842 27.6523 22.874 27.6839C22.779 27.7357 22.5201 27.9948 22.7229 28.3012C22.874 28.5341 23.1934 28.5555 23.1934 28.5555C23.1934 28.5555 23.12 28.7671 23.4264 28.7455C24.0866 28.7153 24.8244 28.426 25.1652 28.4994C25.5065 28.5848 25.7005 28.6161 25.942 29.0348C26.198 29.4489 26.421 29.5138 26.421 29.5138C26.421 29.5138 26.572 29.1295 26.5376 28.5557C26.6615 28.2465 26.7301 27.9179 26.7404 27.5849L26.516 25.9323L25.5367 24.6938L24.268 25.3973L24.173 25.643V25.6439Z" fill="#E3C571"/>
<path fill-rule="evenodd" clip-rule="evenodd" d="M25.3765 25.398C25.3765 25.398 25.4715 25.6224 25.8686 25.6438C25.8253 25.7388 25.8253 25.7519 25.8384 25.825C25.8469 25.8983 25.8597 26.0062 25.8597 26.0062C25.9035 25.985 25.943 25.9561 25.9764 25.9208C25.998 26.0158 25.9547 26.1666 25.9764 26.2747C25.9897 26.3404 26.0114 26.4042 26.0409 26.4644C26.0472 26.4496 26.0544 26.4353 26.0625 26.4214C26.0711 26.3998 26.1479 26.6544 26.3604 26.8481C26.3602 26.8183 26.3675 26.789 26.3817 26.7628C26.3849 26.8169 26.4028 26.8691 26.4335 26.9138C26.4176 26.9062 26.403 26.896 26.3905 26.8837C26.3905 26.8837 26.4118 27.5663 26.5285 27.9193C26.548 27.8965 26.5653 27.872 26.5802 27.8459C26.5802 27.8246 26.5717 28.0359 26.5501 28.1873C26.5199 28.3383 26.5415 28.5497 26.5415 28.5497C26.6193 28.4884 26.7048 28.4376 26.7958 28.3986C26.9253 28.3466 27.1372 28.187 27.2663 27.8331C27.3412 27.6327 27.399 27.4264 27.439 27.2162C27.4807 27.2965 27.5095 27.3829 27.5243 27.4722C27.5331 27.58 27.7359 27.5239 27.7359 27.5239L27.7792 27.0535L28.0352 25.9877L28.2681 25.3275L29.39 23.5801L31.4169 22.0191L33.1862 22.4247L34.6789 20.3966L32.1073 18.8518L29.6736 19.1064L27.4649 22.1656L25.6959 24.9403L25.3765 25.3977V25.398Z" fill="#D8B65B"/>
<path fill-rule="evenodd" clip-rule="evenodd" d="M38.1231 20.9709C38.1231 20.9709 37.972 21.001 37.5363 21.2269C37.1005 21.4527 36.7984 21.5244 36.63 21.8566C36.4616 22.1889 36.4488 22.4523 36.4488 22.4523C36.4488 22.4523 36.7466 22.3228 36.9193 22.2796C37.1005 22.2367 37.3033 22.2495 37.2817 22.3228C37.2609 22.3732 37.2321 22.4198 37.1964 22.4608C37.1964 22.4608 37.5377 22.4523 37.5286 22.6207C37.5195 22.789 37.464 22.9745 37.3994 23.0564C37.3346 23.1418 37.0672 23.2681 37.0371 23.3673C36.9637 23.5701 37.0672 23.5787 37.0282 23.7425C36.9981 23.9024 36.8559 24.213 36.3897 24.7566C35.9107 25.3004 35.707 25.6844 35.707 25.6844C35.707 25.6844 35.474 25.2487 35.3531 24.8732C35.2678 24.9161 34.8096 25.1707 34.8096 25.1707L33.748 21.4729L33.7693 21.2269C33.7693 21.2269 33.8644 21.1105 33.886 20.8946C33.7264 20.8429 33.7048 20.7996 33.4931 20.5971C33.2815 20.3946 33.1091 20.1482 32.7556 19.9799C32.7038 19.8848 32.639 19.7557 32.3801 19.7037C32.1213 19.6516 31.966 19.6089 31.966 19.6089C31.966 19.6089 32.1039 19.5569 32.1688 19.4491C32.0089 19.4707 31.8798 19.5225 31.5302 19.5139C31.1763 19.5051 31.1374 19.4923 30.9434 19.5225C30.7494 19.5526 30.5167 19.6391 30.4299 19.3413C30.3349 19.2679 30.1321 19.3327 29.9595 19.587C29.7868 19.8413 29.7265 20.0444 29.3943 20.1437C29.3709 20.2901 29.3196 20.4307 29.2432 20.5578C29.1482 20.7177 28.9972 20.8773 28.7944 21.1145C28.4749 21.49 28.5267 22.1069 28.0176 22.5774C27.5041 23.0476 28.1029 21.2741 28.1029 21.2741L28.9227 19.3114L31.2571 17.0287L34.8818 16.783L35.2357 18.6603L37.0049 19.2687L38.1225 20.9731L38.1231 20.9709Z" fill="#D3AE4D"/>
<path fill-rule="evenodd" clip-rule="evenodd" d="M38.6971 21.3849L37.174 19.1888L36.1082 18.3687C36.1082 18.3687 35.3487 16.971 35.297 16.9277C35.2537 16.8976 34.5375 16.8199 34.0801 16.7898L34.1655 17.0011C34.2653 17.0336 34.354 17.0934 34.4215 17.1738C34.6243 17.4067 34.7537 17.8468 34.292 18.3172C34.4732 18.3818 34.548 18.4026 34.7062 18.3818C34.5466 18.5718 34.1842 18.9774 34.1626 19.3313C34.141 19.6203 34.3222 19.7065 34.3222 19.7065C34.3222 19.7065 34.046 20.0259 34.0332 20.5598C34.1636 20.4127 34.3064 20.277 34.4599 20.1542C34.7793 19.8982 35.2193 19.6103 35.5171 19.4291C35.5131 19.5052 35.5233 19.5813 35.5473 19.6535C35.5473 19.6535 36.1036 19.1962 36.5712 19.399C36.7826 19.494 36.6876 19.7918 36.6876 19.7918C36.6876 19.7918 36.9768 19.684 37.1796 19.8868C37.3824 20.0896 37.6714 20.6115 37.8182 20.8146C37.8828 20.9096 38.0512 21.0908 38.2235 21.371C38.4591 21.7637 38.6557 22.1785 38.8106 22.6095C38.8191 22.4368 38.8538 22.1953 39.1519 22.1953L38.6988 21.3841L38.6971 21.3849Z" fill="#CAA13E"/>
<path fill-rule="evenodd" clip-rule="evenodd" d="M15.8624 27.6247C15.8624 27.6247 15.7546 27.3571 15.8624 26.8351C15.9702 26.3132 16.1386 26.0671 16.1946 25.2991C16.2506 24.5311 16.7513 23.5731 16.7513 23.5731L18.1362 22.9434L19.1158 23.2107L19.4048 24.5226L18.1664 25.2053C18.1664 25.2053 18.1018 25.4943 17.7522 25.7272C17.4026 25.9602 16.9194 26.1414 16.803 26.3789C16.7335 26.5243 16.6827 26.678 16.652 26.8363C16.652 26.8363 16.2981 26.7629 16.0868 26.9958C15.8624 27.2333 15.8709 27.4447 15.8624 27.6259V27.6247Z" fill="#F4EFC8"/>
<path fill-rule="evenodd" clip-rule="evenodd" d="M18.6579 27.2751C18.6579 27.2751 18.5413 27.3484 18.4551 27.5311C18.3698 27.3931 18.1658 26.5731 18.1573 25.8352C18.1488 25.0974 18.1047 24.9145 18.2754 24.6602C18.446 24.4059 19.1153 24.1379 19.0203 23.68C18.9253 23.2442 18.5282 23.063 18.0407 23.1882C17.6994 23.2735 17.4453 23.9994 17.0915 24.3618C16.8238 24.638 16.5047 24.5948 16.4185 24.7458C16.3019 24.9486 16.4097 25.1514 16.3753 25.2808C16.3664 25.3241 16.2586 25.557 16.0644 25.8375C15.6718 26.4027 15.0074 27.2011 14.9209 27.9173C14.951 27.5117 14.9297 27.5032 15.0375 27.0543L14.9727 26.9465L15.3993 25.5485L15.6755 24.3965L16.2928 22.4674L17.3799 20.4957L18.4372 19.3132L19.5374 19.3866L19.6669 21.0392L20.2969 24.1419L21.6216 25.7729L19.4985 27.2017L18.6571 27.2751H18.6579Z" fill="#EBCC73"/>
<path fill-rule="evenodd" clip-rule="evenodd" d="M19.3181 27.8615C19.3181 27.8615 19.1369 27.9047 19.072 27.8703C19.0072 27.8359 18.9429 27.7969 18.9642 27.7537C18.9856 27.7104 19.1022 27.6373 19.1022 27.6026C19.1046 27.5713 19.0947 27.5402 19.0745 27.5161C19.0544 27.4919 19.0257 27.4765 18.9944 27.4732C18.8951 27.4604 18.865 27.525 18.865 27.525C18.865 27.525 18.77 27.4519 18.6926 27.4396C18.7384 27.434 18.7844 27.4311 18.8305 27.4308C18.7113 27.3768 18.5848 27.3405 18.4551 27.323C18.5629 27.2584 18.7745 27.0684 18.9125 27.0684C19.0504 27.0684 19.1369 27.0471 19.1153 26.9737C19.0937 26.9003 18.9859 26.7925 18.8695 26.7493C18.9125 26.6975 18.9429 26.6199 18.8394 26.4079C18.7313 26.1966 18.7745 26.0541 18.8092 26.0026C18.8394 25.9377 18.9472 25.8214 18.9989 25.748C19.0507 25.6746 19.0939 25.5753 19.1801 25.5236C19.2234 25.4934 19.3613 25.4382 19.4996 25.3856C19.6506 25.3338 19.7758 25.269 19.8619 25.3338C19.9569 25.3984 19.9137 25.4849 19.9137 25.4849C19.9137 25.4849 20.2115 25.3768 20.4789 25.515C20.7466 25.6442 21.3982 25.7264 21.3982 25.7264L21.6318 26.1969L20.0869 27.5216L19.4484 27.841L19.3189 27.8623L19.3181 27.8615Z" fill="#E5C66B"/>
<path fill-rule="evenodd" clip-rule="evenodd" d="M21.4627 25.6957C21.4627 25.6957 20.9837 26.0152 20.8759 26.1315C20.9404 26.1403 21.0482 26.1835 21.005 26.2481C20.9532 26.3127 20.6426 26.5371 20.47 26.7487C20.2888 26.9601 20.1161 27.2277 20.0558 27.3572C19.9913 27.4735 19.4992 27.8145 19.3311 27.8575C19.6849 27.8575 20.3969 27.4217 20.6642 27.4217C20.6557 27.5512 20.7376 27.6979 20.8887 27.7107C21.0397 27.7235 21.4755 27.8057 22.0623 27.4433C22.6491 27.0895 22.4551 26.8261 22.7009 26.6537C23.1713 26.3428 23.3611 26.0666 23.6199 25.8943C23.8788 25.7219 24.0127 25.6826 24.0127 25.6826C24.0127 25.6826 24.0213 25.5532 24.0981 25.5663C24.1191 25.5687 24.139 25.5768 24.1558 25.5898C24.1725 25.6027 24.1854 25.62 24.1931 25.6397C24.1931 25.6397 24.6419 25.3203 25.2171 25.2341C25.2036 25.2281 25.1929 25.2173 25.1869 25.2039C25.1869 25.2039 25.2299 25.1823 25.2387 25.1607C25.2387 25.1607 25.2688 25.1174 25.2905 25.1391C25.3121 25.1607 25.3422 25.3203 25.3855 25.3851C25.4805 25.3419 25.6617 24.9363 25.6617 24.9363L26.0977 23.6892V22.55L25.7564 22.6149L23.1964 23.702L21.6427 25.3117L21.4615 25.6957H21.4627Z" fill="#E6BD62"/>
<path fill-rule="evenodd" clip-rule="evenodd" d="M28.8331 20.1079C28.9716 20.0743 29.1043 20.0204 29.2271 19.948C29.1753 20.0863 29.1753 20.2373 28.9509 20.5653C28.7264 20.8932 28.7179 20.9407 28.5367 21.2815C28.3555 21.6354 28.3339 22.1445 28.1613 22.3687C28.2386 22.3311 28.3217 22.3064 28.407 22.2956C28.407 22.2956 28.2346 22.4466 28.1613 22.6062C28.0879 22.7658 27.9584 23.098 27.6393 23.3011C27.3201 23.5042 26.9142 23.6333 26.4785 24.1123C26.0424 24.5825 25.5939 25.1782 25.3691 25.3923C25.4858 25.1895 25.6453 24.7839 25.6886 24.5165C25.7318 24.2491 25.6798 23.9294 25.7531 23.5759C25.8265 23.2223 25.8265 22.9674 26.1798 22.3502C26.5331 21.7329 27.1378 19.5885 27.1378 19.5885L28.4409 19.1743L28.8337 20.1065L28.8331 20.1079Z" fill="#B6933F"/>
<path fill-rule="evenodd" clip-rule="evenodd" d="M27.8922 19.3182C27.8922 19.3182 27.4997 19.8834 27.3919 20.384C27.2841 20.8847 27.3831 20.8414 27.3185 21.0875C27.2799 21.2375 27.2799 21.3948 27.3185 21.5449C27.4545 21.3259 27.6406 21.1424 27.8615 21.0095C28.2327 20.7854 28.5348 20.6255 28.7148 20.4358C28.896 20.233 29.0471 19.9008 29.4396 19.6462C29.28 19.6246 29.0556 19.5512 29.0129 19.5609C29.1728 19.3797 29.6515 19.1035 30.1348 18.7712C30.6138 18.4299 30.5836 18.2922 31.3604 17.9515C31.1059 17.9947 30.985 17.9299 30.7734 17.9515C30.8587 17.7703 31.1573 17.6838 31.456 17.3863C31.7547 17.0888 31.2663 16.6484 31.2663 16.6484L28.9908 18.0249L27.8905 19.3194L27.8922 19.3182Z" fill="#C49937"/>
<path fill-rule="evenodd" clip-rule="evenodd" d="M21.7178 18.2913L21.7695 17.8771L22.4212 16.8329L23.103 14.9991V12.492L23.0512 11.0422L23.1591 10.0927L23.241 9.79094L23.3274 9.67432L23.8838 9.96331L24.6521 11.0075L24.7255 13.0228L23.9788 16.2029L21.8472 18.5288L21.7178 18.2913Z" fill="#DFC068"/>
<path fill-rule="evenodd" clip-rule="evenodd" d="M23.4135 9.55757C23.4135 9.55757 23.0722 9.56639 22.9994 10.986C22.9266 12.4057 22.8913 13.1521 22.8395 13.8555C22.7877 14.559 22.6671 14.9859 22.6066 15.4003C22.546 15.8148 22.5116 16.3797 22.3176 16.725C22.2322 16.8846 22.0499 17.3852 21.6227 17.7607C21.1437 18.1748 20.428 18.4641 20.3196 18.4857C20.1296 18.5287 19.1674 18.6237 18.7748 18.8396C18.6369 18.9129 18.3994 18.9991 18.1363 19.2452C17.614 19.7154 16.9194 20.5568 16.4188 21.5708C15.6508 23.0855 14.8828 27.3615 14.8828 27.3615L15.0555 27.0725C15.0555 27.0725 15.0771 26.6885 15.4611 26.0152C15.8365 25.3422 15.7287 24.587 16.2507 23.2968C16.4535 22.805 16.7081 22.1664 17.0187 21.6226C17.5108 20.7379 18.1061 19.9785 18.706 19.5643C19.6853 18.8913 20.7642 18.7446 20.7642 18.7446L21.925 17.9766C21.925 17.9766 22.1278 17.584 22.3955 17.1352C22.7707 16.5054 23.2488 15.802 23.3532 14.7794C23.5131 13.2647 23.1288 12.2723 23.1504 11.3749C23.172 10.4775 23.1806 9.81727 23.362 9.65741C23.5435 9.49755 23.4138 9.55814 23.4138 9.55814L23.4135 9.55757Z" fill="#A88F33"/>
<path fill-rule="evenodd" clip-rule="evenodd" d="M23.4137 16.3323C23.4137 16.3323 23.9257 15.0722 24.1601 13.9546C24.2033 13.7302 24.2895 13.506 24.3111 13.3248C24.4189 12.2675 24.4491 11.8318 24.3111 11.2535C24.2033 10.8268 23.7891 10.4423 23.5732 10.1442C23.3619 9.83327 23.2626 9.7175 23.3058 9.65208C23.3491 9.58666 23.5172 9.47971 23.681 9.49251C23.8552 9.49758 24.0265 9.53801 24.1846 9.61136C24.3426 9.68471 24.4841 9.78944 24.6004 9.91917C24.9326 10.3032 25.1957 11.6065 25.1957 11.6065L25.4725 13.3262L26.176 15.4923L23.4142 16.334L23.4137 16.3323Z" fill="#C99E3D"/>
<path fill-rule="evenodd" clip-rule="evenodd" d="M28.2245 15.0204C28.2245 15.0204 28.1295 15.0633 27.9572 15.0204C27.9645 15.0908 27.9523 15.1619 27.9218 15.2259C27.8914 15.2898 27.8438 15.3441 27.7845 15.3828C27.6033 15.3094 25.9072 15.4562 25.9072 15.4562C25.9072 15.4562 25.1175 15.3179 24.8715 14.2737C24.6991 13.5788 25.0009 12.6211 24.9017 11.9911C24.7506 11.0632 24.5393 10.8817 24.5177 10.593C24.496 10.3043 24.4744 10.2306 24.4744 10.0494C24.3794 10.0278 24.3234 9.99767 24.2287 9.99767C24.207 9.91233 24.25 9.83781 24.1553 9.68677C24.207 9.70839 24.5609 9.75162 24.975 10.1442C25.3164 10.4636 25.3164 10.5799 25.3679 10.6448C25.4324 10.7093 25.9547 11.1568 26.1791 11.6028C26.4035 12.0488 26.8393 13.471 26.9386 13.704C26.9687 13.799 27.0336 13.894 27.1946 14.1096C27.4449 14.4205 27.8115 14.9345 28.2257 15.0198L28.2245 15.0204Z" fill="#B58634"/>
<path fill-rule="evenodd" clip-rule="evenodd" d="M25.4287 10.6665C25.6901 11.0888 25.9249 11.5269 26.1319 11.9784C26.3864 12.5521 26.5375 13.0226 26.8569 13.4066C26.6842 12.9062 26.3779 11.9223 26.1967 11.5727C25.9939 11.203 25.5798 10.8047 25.4287 10.6668V10.6665Z" fill="#A88F33"/>
<path fill-rule="evenodd" clip-rule="evenodd" d="M22.4939 17.7605C22.4939 17.7605 22.0582 17.8683 21.247 18.2956C20.9793 18.4335 20.725 18.5499 20.479 18.658C19.8398 18.947 19.1543 19.214 18.6105 19.3614C18.6537 19.4132 18.6751 19.4345 18.6751 19.4345C18.6751 19.4345 18.6751 19.6461 18.7917 19.7667C18.7271 19.8316 17.8638 20.4184 18.1187 22.3816C18.2911 22.3171 18.4939 22.2306 18.524 22.2306C18.5761 22.2394 18.5889 22.3816 18.6534 22.3816C18.718 22.3816 18.9296 22.2963 19.1541 22.0062C19.1455 22.1228 19.0161 23.2964 19.7107 24.086C19.8401 23.935 20.1681 23.4344 20.1681 23.4344L20.1766 23.2748C20.1766 23.2748 20.2068 22.7181 20.3882 22.209C20.5697 21.6998 20.9233 21.3243 20.9233 21.3243L22.7696 18.6878L22.4934 17.7603L22.4939 17.7605Z" fill="#E6C367"/>
<path fill-rule="evenodd" clip-rule="evenodd" d="M20.7681 21.632C20.6836 21.6917 20.5904 21.7382 20.4919 21.7699C20.4617 21.6621 20.4185 21.2909 20.6731 20.9285C20.9709 20.4925 21.6223 19.9273 21.8035 19.4778C21.9201 19.1886 21.8683 18.4638 22.904 17.5359C23.9396 16.6081 24.345 16.2889 24.345 16.2889L26.0192 15.4475L28.0775 16.2588L27.0549 20.2666L26.261 22.144L23.1037 21.5486L20.7678 21.632H20.7681Z" fill="#DCBA5A"/>
<path fill-rule="evenodd" clip-rule="evenodd" d="M21.9736 20.5437L22.3665 20.0519V19.7023C22.3665 19.7023 22.8022 19.5857 23.2724 19.1067C23.7426 18.6277 24.3943 17.7086 24.9683 17.7647C25.5423 17.8295 25.5983 19.0117 25.62 19.3442C25.6416 19.6767 25.715 20.4314 25.8313 20.8373C25.9607 21.2429 24.4332 22.7789 24.4332 22.7789L23.3959 23.5685L21.9736 20.5437Z" fill="#E9CE77"/>
<path fill-rule="evenodd" clip-rule="evenodd" d="M23.189 24.6384C23.189 24.6384 23.5084 24.1377 23.2743 24.0299C23.4122 23.7193 23.6668 23.3914 23.6668 23.3914C23.6668 23.3914 23.848 22.9428 24.4348 22.3904C25.0216 21.838 25.3842 21.4711 25.4792 21.1002C25.5378 20.8584 25.5697 20.611 25.5743 20.3623C25.6377 20.4141 25.7055 20.4603 25.7771 20.5003C25.8721 20.5435 26.3206 20.9144 26.256 21.6611C26.1915 22.4077 25.9147 22.7184 25.9147 22.7184C25.9147 22.7184 25.6474 22.9857 25.4576 23.124C25.2545 23.2619 25.1814 23.4215 24.8404 23.4346C24.8755 23.4067 24.9149 23.3848 24.957 23.3697C24.957 23.3697 24.6032 23.3268 24.4132 23.4992C24.2232 23.6715 23.8193 24.2026 23.6165 24.3624C23.4137 24.4919 23.1898 24.6386 23.1898 24.6386L23.189 24.6384Z" fill="#CDAE50"/>
<path fill-rule="evenodd" clip-rule="evenodd" d="M37.5366 16.2459C37.0268 16.0601 36.491 15.9553 35.9488 15.9353C35.0426 15.9051 33.7179 15.9569 32.4192 15.9654C31.0211 15.9739 29.7525 15.4864 27.9921 15.4002C27.7031 15.2276 26.9681 14.4723 24.6738 16.0732C24.8118 16.0647 26.3395 15.7194 26.87 16.3841C27.405 17.0443 27.254 18.1662 27.1809 18.4336C27.0427 19.0292 26.5938 19.8965 26.4129 20.5049C26.232 21.1133 26.2747 21.433 26.1452 21.8597C26.0158 22.2864 25.7311 22.4983 25.8992 22.9901C26.1236 22.8522 26.2405 22.8522 26.6154 22.0108C26.9903 21.1694 26.9132 20.5695 27.5347 19.8575C28.1432 19.1413 29.1561 18.1616 29.5412 17.9156C29.9263 17.6695 32.9844 16.0817 36.1863 17.5964C36.9586 17.5145 37.5368 16.2456 37.5368 16.2456L37.5366 16.2459Z" fill="#D2A83E"/>
<path fill-rule="evenodd" clip-rule="evenodd" d="M25.9632 15.6586C25.9601 15.6261 25.9529 15.5942 25.9419 15.5636C25.912 15.5004 25.8726 15.4422 25.8253 15.3909C25.8253 15.3909 25.0658 15.2529 24.6818 15.2959C24.0086 15.3693 23.4001 16.2021 23.1154 16.6294C22.8307 17.0566 22.4768 17.7165 22.0928 18.0576C22.097 18.0244 22.0894 17.9907 22.0712 17.9626C22.0712 17.9626 22.0928 17.9927 22.0499 18.036C22.0069 18.0792 22.0067 18.1005 22.0283 18.1213L22.0931 18.1859C22.1145 18.1859 22.7101 17.9182 23.5213 17.1619C24.3843 16.3722 25.0445 15.9672 25.3898 15.8284C25.574 15.7501 25.7665 15.6931 25.9635 15.6586H25.9632Z" fill="#C29637"/>
<path fill-rule="evenodd" clip-rule="evenodd" d="M40.6949 12.4143C40.6949 12.4143 40.5566 12.5867 40.384 12.7767C40 13.1823 39.4994 13.6394 39.0721 14.1099C38.6668 14.5587 38.2094 14.9083 37.6957 15.4951C37.182 16.082 36.5864 16.7333 36.4356 16.9233C36.2977 17.1134 36.1898 17.424 36.1898 17.5835C36.1165 17.5318 36.0303 17.4757 36.0303 17.4757C36.0666 17.5435 36.1099 17.6072 36.1597 17.6657C36.2675 17.8168 36.4356 18.0071 36.5221 18.1231C36.6282 18.2709 36.7043 18.438 36.7462 18.6149C36.798 18.6235 37.1302 18.6883 37.5447 18.0065C37.9591 17.3247 38.5024 16.5783 38.5024 16.5783L39.3654 15.2966L39.9092 14.2094L40.5919 12.9926L40.6957 12.4143H40.6949Z" fill="#AC8132"/>
<path fill-rule="evenodd" clip-rule="evenodd" d="M41.5796 11.5425C41.5796 11.5425 41.0574 11.9692 40.8545 12.2252C40.6517 12.4812 40.1719 13.153 40.1719 13.153L40.3445 13.1314L41.2206 12.3549L41.562 11.7464L41.5793 11.5436L41.5796 11.5425Z" fill="#A88F33"/>
<path fill-rule="evenodd" clip-rule="evenodd" d="M41.4193 45.834C41.4193 45.834 41.4107 45.4801 41.6093 45.2688C41.8121 45.0572 42.3255 44.7465 42.8261 43.5815C43.3268 42.4164 43.3825 42.1533 43.3825 42.1533C43.3825 42.1533 42.4851 42.9213 41.9318 43.1025C42.0613 42.8348 42.1346 42.6451 42.1995 42.5068C42.1261 42.4423 41.8155 42.3689 41.7854 42.3345C41.9577 42.1618 42.0527 41.7388 42.4023 41.4584C42.8512 41.117 43.6709 40.5305 44.3081 40.0077C44.9452 39.4849 46.1979 38.2689 46.3578 37.915C46.4528 38.053 46.4741 38.1392 46.4741 38.1392C46.4741 38.1392 45.8444 38.9592 45.5164 39.4812C45.2271 39.93 45.2487 40.1846 45.2487 40.1846L45.8444 39.9286C45.8444 39.9286 46.0167 40.5672 45.2359 41.5383C45.5773 41.4089 45.715 41.4865 45.9089 41.3784C45.5895 41.5815 45.1495 41.8577 44.7353 42.6169C44.3297 43.3764 43.7773 44.261 42.8455 44.8131C41.9392 45.3956 41.417 45.8314 41.417 45.8314L41.4193 45.834Z" fill="#A67A2E"/>
<path fill-rule="evenodd" clip-rule="evenodd" d="M39.081 16.6948C39.081 16.6948 38.7271 17.4323 38.6754 18.0063C38.6668 18.1446 38.6321 18.2524 38.6321 18.4119C38.6236 18.9254 38.6623 19.4994 38.5468 19.7667C38.5036 19.6589 38.4819 19.5855 38.4387 19.5426C38.3741 19.7238 38.2575 20.289 38.1625 20.5003C38.1196 20.3624 38.0246 19.8834 38.0334 19.3182C38.0422 18.753 38.0547 18.6449 38.0547 18.5286C38.0334 18.7009 37.9168 18.9342 37.8735 19.0721C37.809 18.9558 37.7356 18.8048 37.6491 18.6796C37.5973 18.7649 37.5328 18.8909 37.4767 18.9558C37.4679 18.904 37.4466 18.7658 37.4335 18.5718C37.425 18.3474 37.4119 18.0584 37.425 17.9978C37.4463 17.8815 37.6278 17.4241 38.0118 17.0054C38.4691 16.5048 38.9396 15.5428 39.0775 15.245C39.2155 14.9472 39.8023 13.709 39.8023 13.709H40.2511L39.5995 15.1932C39.5995 15.1932 39.207 16.0044 39.0042 16.3025C38.8014 16.6006 38.3741 17.4548 38.1841 17.787C38.3221 17.6058 38.4387 17.5108 38.5769 17.3382C38.7106 17.2173 39.0815 16.6953 39.0815 16.6953L39.081 16.6948Z" fill="#8C6228"/>
<path fill-rule="evenodd" clip-rule="evenodd" d="M41.5883 11.4863C41.515 11.712 41.3991 11.9215 41.247 12.1036C40.9793 12.423 40.4053 12.85 40.1252 13.1907C39.8692 13.5229 39.3572 14.4292 39.5899 15.5035C39.6752 15.2706 39.8359 14.8089 40.2631 14.2867C40.6903 13.7644 41.1477 13.1648 41.3724 12.6989C41.5965 12.2284 41.6267 11.8575 41.6267 11.8575L41.712 11.7497L41.6603 11.5037L41.5869 11.4863H41.5883Z" fill="#CBA94C"/>
<path fill-rule="evenodd" clip-rule="evenodd" d="M50.3262 40.1079C50.3262 40.1079 50.1535 39.6377 50.1018 39.2105C50.05 38.7832 50.1871 38.6985 50.0284 38.2095C49.9334 37.9117 49.761 37.9535 49.7178 37.9117C49.6745 37.8699 49.6444 37.4199 49.6529 37.1739C49.6614 36.9278 49.6444 36.6087 49.6011 36.4704C49.5366 36.4187 49.4933 36.3754 49.3983 36.0563C49.2905 35.7368 49.2388 35.5773 49.187 35.4825C49.1352 35.3878 48.9839 35.3014 48.9839 35.2063C48.9839 35.0163 49.1565 34.9174 49.1565 34.865C49.148 34.7572 49.0186 34.8437 48.9839 34.8132C48.9409 34.7615 49.092 34.4509 49.0359 34.4076C49.0143 34.3863 48.8633 34.5675 48.8243 34.5157C48.7811 34.4637 48.7293 33.9502 48.6517 33.6095C48.5786 33.2772 48.5006 33.0358 48.4921 32.9365C48.4835 32.8415 47.8964 31.1672 47.7542 30.7616C47.6396 30.4189 47.5431 30.0703 47.4652 29.7174C47.422 29.5146 47.3918 29.1002 47.3702 29.1434C47.3486 29.1867 47.3617 29.398 47.327 29.3895C47.2968 29.3806 47.189 28.6431 47.1546 28.5265C47.1245 28.4098 46.943 28.0145 46.8986 27.7283C46.8554 27.439 46.7607 26.6838 46.6958 26.1704C46.6309 25.657 46.6008 25.4456 46.6008 25.3171C46.6114 25.0026 46.5941 24.6878 46.549 24.3764C46.4637 23.8326 46.293 23.1724 46.1434 22.7886C45.8544 22.0636 45.0861 20.2082 44.9487 19.7465C44.9487 19.6299 45.0998 19.6947 45.0998 19.6947C45.0998 19.6947 45.475 20.6354 45.7512 21.3602C46.0188 22.0852 46.2734 22.7238 46.3383 22.7886C46.39 22.8532 46.7956 23.5652 46.9768 24.7303C47.158 25.8953 47.2226 26.9697 47.3307 27.6859C47.3825 28.0273 47.4257 28.3894 47.5335 28.7517C47.6498 29.1446 47.831 29.5502 48.0685 30.1714C48.2714 30.6936 48.4224 31.1294 48.5043 31.5049C48.5993 31.9839 48.5993 32.3463 48.6554 32.5838C48.7074 32.7866 48.7848 33.1919 48.9663 33.7784C49.1477 34.365 49.4148 35.1204 49.596 35.5906C49.9502 36.5313 50.108 37.3166 50.1615 37.7353C50.2087 38.1668 50.3686 39.6599 50.3253 40.1085L50.3262 40.1079Z" fill="#A88F33"/>
<path fill-rule="evenodd" clip-rule="evenodd" d="M41.6099 11.4345L41.5883 11.4863C41.5883 11.4863 41.6529 11.5079 41.6401 11.5944C41.641 11.7127 41.6338 11.8309 41.6185 11.9482C41.5971 12.0993 41.5539 12.2156 41.5454 12.3106C41.5454 12.5134 41.5755 12.7464 41.2894 13.3247C41.2041 13.4842 41.1514 13.6222 41.1082 13.7172C41.0004 13.9502 40.9788 13.9849 40.8838 14.0927C41.0348 14.0073 41.5787 13.666 41.8546 13.7172C41.6648 13.825 41.3756 14.0366 41.1944 14.3128C41.2376 14.3214 41.4188 14.3561 41.7064 14.3128C42.1854 14.2394 42.7204 14.0668 43.1905 14.1012C43.7042 14.1313 43.5014 13.4842 43.5014 13.4842L42.9087 12.1812L41.7869 11.3918L41.6099 11.4348V11.4345Z" fill="#BE9C44"/>
<path fill-rule="evenodd" clip-rule="evenodd" d="M44.5355 21.1952C44.5355 21.1952 44.0349 20.6946 43.8321 18.9766C43.6293 17.2506 43.6725 14.7099 43.6725 14.7099L43.2669 13.7175C43.2669 13.7175 43.1815 13.0573 42.9691 12.8115C42.7566 12.5658 42.3393 12.1513 42.1493 11.9485C41.9593 11.7457 41.7437 11.4695 41.6143 11.4263C41.6788 11.3185 41.9681 10.71 43.0769 10.7015C44.1856 10.693 44.5275 11.3099 44.6433 11.5344C44.7591 11.7588 45.2819 12.729 45.4759 14.5779C45.6571 16.4245 45.6659 16.5628 45.6357 17.2013C45.6141 17.5552 45.4975 18.375 45.2944 19.2508C45.1089 19.9932 44.9061 20.8218 44.5349 21.1969L44.5355 21.1952Z" fill="#A17C34"/>
<path fill-rule="evenodd" clip-rule="evenodd" d="M42.9654 22.6668C43.1322 22.6788 43.2989 22.6412 43.4444 22.5587C43.604 22.5502 44.1823 22.6235 44.6267 22.0583C44.6568 22.1875 44.7347 22.5374 44.5316 22.848C44.6397 22.7399 44.7993 22.6969 44.8209 22.6668C44.8295 22.8263 44.9805 23.3181 44.3419 24.5134C44.5143 24.3236 44.7171 24.3322 44.8983 24.3106C44.9071 24.535 45.0277 25.2899 44.7086 25.6958C44.4972 25.972 44.1519 25.8855 44.1519 25.8855C44.1569 25.8252 44.1569 25.7646 44.1519 25.7043C44.1433 25.5877 44.1001 25.4714 44.1305 25.3937C43.9637 25.3175 43.8117 25.2122 43.6817 25.0828C43.3062 24.729 42.8186 24.1251 42.7842 23.6763C42.7409 23.1756 43.1898 23.0678 43.1898 23.0678C43.1522 23.0342 43.1202 22.9948 43.0948 22.9512C43.0732 22.8781 43.0516 22.7615 42.9654 22.6668Z" fill="#8C6228"/>
<path fill-rule="evenodd" clip-rule="evenodd" d="M39.638 17.2382C39.638 17.2382 39.6163 17.208 39.5 17.346C39.5216 17.208 39.5432 17.0783 39.5518 16.9532C39.6068 16.8373 39.6781 16.7298 39.7634 16.634C39.6985 16.7631 39.6553 16.8798 39.6553 16.8798C39.6553 16.8798 39.8152 16.582 40.0481 16.4008C40.2077 16.2713 40.4105 16.211 40.4967 16.0902C40.5917 15.9607 40.5701 15.9391 40.5917 15.9175C40.5917 15.9175 40.8033 15.7795 41.127 15.3736C41.1699 15.3219 41.2348 15.2658 41.278 15.2141C41.3511 15.1839 41.5238 15.1063 41.7266 15.0024C41.9382 14.8861 42.1754 14.7265 42.3222 14.6611C42.6112 14.5317 42.9178 14.5448 43.06 14.3417C43.1678 14.3115 43.2841 13.9878 43.2628 13.7119C43.4224 13.7765 44.2421 14.2856 44.5229 15.399C44.7257 16.1886 44.363 17.4054 44.212 17.9925C44.0609 18.5796 44.0396 19.0151 43.828 19.2825C43.5603 19.6366 42.6976 20.1358 42.486 20.383C42.3048 20.5858 41.7613 21.0992 41.7826 21.4701C41.8042 21.7463 42.145 21.8968 42.2186 21.9491C42.2923 22.0015 42.2917 22.0658 42.43 22.0345C42.5682 22.0032 42.6197 21.9395 42.676 21.9395C42.7406 21.948 42.7406 21.9611 42.7707 21.9611C42.7926 21.9604 42.8143 21.9575 42.8356 21.9523C42.8356 21.9523 42.814 22.3451 41.895 22.4643C41.8301 22.4731 41.7655 22.4944 41.6833 22.5075C41.7914 22.4557 41.856 22.4557 41.9726 22.2962C41.8432 22.2745 41.472 22.2529 41.377 22.2228C41.4071 22.171 41.5064 22.0328 41.5883 21.9682C41.6617 21.9036 41.5798 21.8829 41.5152 21.9164C41.4041 21.9921 41.2974 22.0741 41.1958 22.1622C41.088 22.2572 40.993 22.3866 40.8204 22.5035C40.7686 22.3309 40.7771 22.0029 40.9802 21.7657C40.9282 21.7742 40.8289 21.9252 40.7342 21.8951C40.717 21.7377 40.7272 21.5785 40.7643 21.4246C40.8161 21.2303 41.0965 20.8896 41.0965 20.8896L42.4513 18.4687L42.7403 16.6349L39.638 17.2376V17.2382Z" fill="#92723A"/>
<path fill-rule="evenodd" clip-rule="evenodd" d="M39.5646 17.3419C39.5646 17.3419 39.4912 17.3936 39.6379 17.4929C39.6163 17.5231 39.5646 17.6309 39.4997 17.7043C39.4266 17.7896 39.3486 17.8425 39.3185 17.9159C39.2539 18.0669 39.2021 18.1705 39.2021 18.2353C39.2021 18.3002 39.1805 18.7143 38.9993 18.9817C38.9345 19.0767 38.8611 19.2363 38.8093 19.3441C38.7015 19.5338 38.6065 19.6854 38.5849 19.7708C38.5419 19.9218 38.5118 20.3359 38.5118 20.3359C38.5118 20.3359 38.6068 20.2193 38.6412 20.1764C38.5891 20.2842 38.5331 20.4005 38.4512 20.487C38.5029 20.4437 38.654 20.3359 38.9086 20.1115C39.2625 19.814 39.8149 19.3134 40.4882 18.9168C40.2851 18.9902 40.1127 18.9902 39.9747 19.0119C40.0826 18.904 41.0534 17.7648 41.5626 17.657C41.5935 17.6178 41.6089 17.5686 41.6058 17.5188L41.1698 17.4759L40.2851 17.6656L40.1559 16.9829L39.5646 17.341V17.3419Z" fill="#B18E3E"/>
<path fill-rule="evenodd" clip-rule="evenodd" d="M40.9716 21.2254C40.9716 21.2254 40.855 21.3417 40.7472 21.631C40.6642 21.5443 40.593 21.447 40.5355 21.3417C40.376 21.0743 40.1302 20.7333 39.5562 20.9275C39.5477 20.7464 39.5346 20.6513 39.5562 20.5219C39.6512 20.5006 39.9402 20.2676 40.2292 19.9266C40.4323 19.6936 40.622 19.426 40.7514 19.0852C40.8368 19.0203 40.9844 18.9125 41.1781 18.7874C41.4543 18.5977 41.7865 18.3385 41.8383 18.0495C41.7089 18.1013 41.4327 18.2307 41.0182 18.2094C41.1781 18.136 41.4238 18.0584 41.3937 17.7389C41.4586 17.6957 41.5103 17.6655 41.5103 17.6655C41.4617 17.6493 41.4105 17.642 41.3593 17.6439C41.3505 17.6138 41.3377 17.5708 41.2643 17.5921C41.1909 17.6135 41.1789 17.6138 41.1693 17.6439C41.1391 17.6527 41.0398 17.6439 40.9665 17.696C40.8931 17.748 40.6903 17.9201 40.6126 17.9503C40.6428 17.8985 40.6857 17.8211 40.6857 17.8211C40.6857 17.8211 40.4744 17.8425 40.3233 17.9065C40.0471 18.0015 39.728 18.1741 39.4043 18.3422C39.4344 18.2905 39.4475 18.2569 39.4689 18.2472C39.4902 18.2376 39.5423 18.2259 39.5423 18.2171C39.5423 18.2083 39.5209 18.1317 39.5337 18.1007C39.6305 17.8957 39.7447 17.6994 39.8751 17.5139C40.0261 17.3108 40.0562 17.0218 40.0562 17.0218L40.7164 16.6896L42.5719 16.2629L43.7759 16.3363L43.6249 17.1692L42.9138 18.6233L42.3053 19.9479L41.6104 20.7594L40.9719 21.2254H40.9716Z" fill="#543E26"/>
<path fill-rule="evenodd" clip-rule="evenodd" d="M43.9788 17.6211C43.9788 17.6211 43.2538 18.5185 43.0509 18.6568C43.1804 18.3806 43.9788 16.7365 44.2678 16.2791C44.2033 16.2273 44.1168 16.2273 44.3196 15.4258C44.1472 15.8311 44.0866 16.0427 43.9444 16.1505C43.8022 16.2583 43.7846 16.2239 43.6884 16.2239C43.7066 16.1911 43.714 16.1534 43.7097 16.1161C43.7097 16.1161 43.1013 16.0427 42.6857 16.0427C42.2701 16.0427 41.4475 16.2672 40.9898 16.4484C40.6274 16.5994 40.4246 16.5994 40.2952 16.6941C40.1657 16.8019 40.0924 16.9185 40.0275 16.9487C39.9757 16.9788 39.73 17.0565 39.6736 17.1384C39.6219 17.2238 39.5357 17.3196 39.5357 17.3412C39.5357 17.3628 39.5141 17.3933 39.5789 17.3714C39.6003 17.3628 39.7601 17.2764 39.9413 17.1686C40.1871 17.0306 40.4849 16.871 40.7008 16.776C41.3178 16.53 41.5121 16.5732 41.788 16.5215C42.077 16.4697 42.4914 16.3488 42.7673 16.3488C43.0436 16.3403 43.5658 16.3488 43.6867 16.3704C43.6349 16.4137 43.5917 16.4654 43.6133 16.6466C43.6133 16.6984 43.5701 16.7544 43.528 16.8796C43.3988 17.2334 43.1528 17.8202 43.016 18.118C42.8262 18.5234 42.6106 18.8644 42.5039 19.0758C42.3973 19.2871 42.1626 19.8438 41.9302 20.1416C41.6978 20.4394 41.5763 20.6206 41.5035 20.6854C41.4307 20.7503 40.9079 21.134 40.9469 21.2723C41.0419 21.2421 41.6418 21.0163 42.0773 20.5259C42.5128 20.0355 42.5995 19.7363 42.9403 19.4686C43.2811 19.2009 43.5487 18.7524 43.7083 18.3814C43.842 18.0361 43.8119 17.9283 43.98 17.622L43.9788 17.6211Z" fill="#806031"/>
<path fill-rule="evenodd" clip-rule="evenodd" d="M28.3542 24.3194C28.3542 24.3194 28.2592 24.7119 28.0433 24.9062C27.832 25.0962 27.4565 25.2601 27.4135 25.5795C27.3618 25.8986 27.789 26.0585 27.789 26.0585C27.789 26.0585 27.5558 26.4425 27.5558 26.7315C27.5558 27.0293 27.5472 27.0853 27.5774 27.3701C27.5432 27.3921 27.5141 27.4212 27.492 27.4554C27.492 27.4554 27.5134 27.7316 27.725 27.904C27.9366 28.0763 28.1176 28.1802 28.2254 28.1369C28.2418 28.1721 28.2563 28.2082 28.2686 28.245C28.2686 28.245 28.4285 27.8394 28.5363 27.4855C28.6441 27.1232 28.7391 27.1746 28.782 26.6871C28.825 26.1996 29.2941 25.3625 29.2941 25.3625L29.6141 24.6471L29.0921 24.2415L28.3542 24.3191V24.3194Z" fill="#B6903C"/>
<path fill-rule="evenodd" clip-rule="evenodd" d="M29.3249 25.0225C29.2173 25.133 29.1179 25.2512 29.0277 25.3763C28.8897 25.5663 28.7819 25.7387 28.5791 25.8124C28.3763 25.886 28.2469 25.8855 28.2597 26.0886C28.2725 26.2917 28.4625 26.3776 28.5703 26.4811C28.6869 26.5889 28.7819 26.7701 28.7301 26.9732C28.7947 26.943 28.9113 26.9083 29.0191 26.6754C29.127 26.4424 29.881 25.0227 29.881 25.0227H29.3249V25.0225Z" fill="#685026"/>
<path fill-rule="evenodd" clip-rule="evenodd" d="M32.2987 21.7475C32.2987 21.7475 32.3633 21.5751 32.2987 21.45C32.2339 21.3206 31.8414 21.2773 31.6471 21.1306C31.4443 20.9795 31.1982 20.8746 30.9954 20.9408C31.0256 20.8675 31.1465 20.7076 31.0472 20.6732C30.9522 20.643 30.5986 20.8026 30.5036 20.876C30.4086 20.9494 30.1927 21.0356 30.1498 21.0876C30.1068 21.1397 30.0332 21.2387 29.9899 21.1954C29.9467 21.1653 29.9254 21.0876 29.852 21.1306C29.7786 21.1735 29.4253 21.4628 29.3602 21.6312C29.295 21.7996 29.1485 22.175 28.7085 22.602C28.2685 23.0289 28.0785 23.3054 28.2079 23.465C28.3373 23.6246 28.3979 23.5082 28.4195 23.6462C28.4361 23.7816 28.4288 23.9189 28.3979 24.0518C28.3461 24.2762 28.2599 24.4876 28.3763 24.5308C28.6741 24.6258 28.9634 24.4455 29.0279 24.5006C29.1574 24.617 28.9546 25.0357 29.2609 25.1176C29.5718 25.2029 29.8781 25.0442 29.8781 25.0442L31.0085 24.4358L32.0959 23.8621L32.6523 22.7616L32.3539 21.8425L32.297 21.7475H32.2987Z" fill="#D4B968"/>
<path fill-rule="evenodd" clip-rule="evenodd" d="M31.2321 24.3752C31.2321 24.3752 31.0421 24.0862 31.2754 23.8314C31.5086 23.5765 31.8406 23.469 31.97 23.3094C31.9453 23.279 31.9123 23.2566 31.875 23.2448C31.9609 23.0911 32.0919 22.9675 32.2504 22.8907C32.1859 22.8261 32.0994 22.7744 32.0047 22.7744C31.793 22.7744 31.6633 22.9038 31.4694 22.9038C31.2796 22.9038 31.258 22.8088 31.258 22.8088C31.258 22.8088 31.5774 22.7786 31.547 22.6361C31.5169 22.4851 31.4617 22.4851 31.4617 22.4851C31.4617 22.4851 32.0786 22.2291 32.1864 22.0926C32.2942 21.956 32.2814 21.7948 32.303 21.7302C32.3761 21.7302 32.8034 21.5058 32.976 21.6008C33.1487 21.6958 33.0278 21.9546 33.0278 21.9546C33.0278 21.9546 33.5503 21.5618 33.8165 21.1767C34.0495 21.1983 34.1579 21.0171 34.3285 21.0171C34.5401 21.0171 34.8724 21.3061 34.9369 21.923C34.9802 22.2769 35.0447 22.4797 34.9802 23.1055C34.95 23.4593 34.9586 24.2148 35.0655 24.5897C35.1386 24.8875 35.3113 24.8573 35.3113 24.8573C35.2848 24.9481 35.2323 25.0291 35.1602 25.0903C35.0436 25.1981 35.0308 25.4831 35.0436 25.5909C35.0608 25.6697 35.0825 25.7475 35.1085 25.8239C35.1085 25.8239 34.9705 25.9835 34.9358 26.0915C34.9056 26.1993 34.7634 26.2727 34.6596 26.2727C34.5558 26.2727 34.6078 26.2639 34.4699 26.2727C34.3319 26.2815 34.2887 26.3029 34.2022 26.2727C34.1158 26.2426 34.0512 26.2079 34.0859 25.9314C34.1161 25.6552 33.0201 25.0124 33.0201 25.0124L31.2282 24.3738L31.2321 24.3752Z" fill="#CCA849"/>
<path fill-rule="evenodd" clip-rule="evenodd" d="M29.1738 27.1024C29.1738 27.1024 29.5663 27.6247 31.1803 27.6247C31.9483 27.6247 32.2159 27.5513 32.3749 27.5081C32.5476 27.4648 33.1947 27.2105 33.8464 26.4422C34.4332 25.7476 34.3038 25.4629 34.3038 25.4629L33.9624 25.4111L32.8531 25.5622L29.5706 26.9602L29.1724 27.1024H29.1738Z" fill="#585136"/>
<path fill-rule="evenodd" clip-rule="evenodd" d="M30.3775 27.2317C30.3775 27.2317 28.9795 27.5426 28.9795 26.658C28.9795 25.795 29.8425 24.8888 30.0584 24.7293C30.2828 24.5694 30.8179 24.3879 30.8179 24.3879H32.1081L32.3539 25.0396L32.2461 26.4461L30.3775 27.2314V27.2317Z" fill="#252211"/>
<path fill-rule="evenodd" clip-rule="evenodd" d="M31.668 24.6516C31.668 24.6516 31.4006 24.4055 30.7922 24.7369C30.1837 25.0683 29.6916 25.7609 29.6615 26.3899C29.6313 26.9462 30.1189 27.3607 30.8783 27.3823C31.4435 27.4036 31.7846 27.3391 31.9572 27.297C31.914 27.2452 31.6896 26.9647 31.6896 26.9647L31.6682 24.6519L31.668 24.6516Z" fill="#C3B378"/>
<path fill-rule="evenodd" clip-rule="evenodd" d="M31.4048 24.7893C31.4048 24.7893 31.3403 24.7375 31.1489 24.8411C30.9893 24.9264 30.7563 25.152 30.5751 25.3115C30.4585 25.4065 30.3851 25.4495 30.3191 25.5229C30.0515 25.8423 29.8271 26.3645 29.9568 26.6233C30.0865 26.8822 30.5134 27.18 31.6008 26.9772L31.4017 24.7896L31.4048 24.7893Z" fill="#E6D89C"/>
<path fill-rule="evenodd" clip-rule="evenodd" d="M31.0509 25.3244C31.0509 25.3244 30.8782 25.5921 30.8782 26.0194C30.8782 26.4551 31.1243 27.1498 32.0305 27.2015C32.7251 27.2448 33.191 26.2005 33.6959 25.7949C34.0798 25.4843 34.3128 25.4755 34.3128 25.4755C34.3128 25.4755 33.9203 25.0488 32.8718 24.4961C31.8362 23.9395 30.6754 23.8661 30.0454 24.7206C30.3432 24.6989 31.3055 24.4529 31.3055 24.4529L31.7759 24.6039L31.0509 25.3247V25.3244Z" fill="#252211"/>
<path fill-rule="evenodd" clip-rule="evenodd" d="M32.4057 25.8897C32.3756 25.8251 32.354 25.7387 32.4791 25.7173C32.6042 25.696 32.6603 25.7085 32.7035 25.8027C32.7467 25.8968 32.7888 25.9753 32.7248 26.0143C32.6603 26.0487 32.4919 26.0143 32.4054 25.8891L32.4057 25.8897ZM32.203 25.2813C32.203 25.2813 32.1597 25.3114 32.1813 25.2511C32.1899 25.178 32.2462 25.0483 32.3841 25.0788C32.522 25.1092 32.4922 25.26 32.4694 25.3032C32.4467 25.3464 32.3315 25.4195 32.245 25.3885C32.2341 25.3857 32.2239 25.3804 32.2154 25.3729C32.2069 25.3654 32.2003 25.3561 32.1961 25.3456C32.1919 25.3351 32.1902 25.3237 32.1912 25.3125C32.1922 25.3012 32.1958 25.2903 32.2018 25.2807L32.203 25.2813Z" fill="#6F674D"/>
<path fill-rule="evenodd" clip-rule="evenodd" d="M20.5229 25.5574C20.5229 25.5574 20.8643 25.8134 21.2608 25.8034C21.6533 25.7946 22.1582 25.3892 22.3912 25.1301C22.5291 24.9791 22.6472 24.8195 22.7752 24.6943C22.8833 24.5865 22.9564 24.5348 23.0081 24.4614C23.0815 24.3761 23.1592 24.2156 23.1981 24.1636C23.1031 24.237 22.9652 24.3667 22.8227 24.4529C22.6847 24.5382 22.3869 24.6986 22.266 24.7419C22.1497 24.7851 20.9414 25.4245 20.9414 25.4245L20.5229 25.5574Z" fill="#AC924C"/>
<path fill-rule="evenodd" clip-rule="evenodd" d="M21.0444 22.369C21.0444 22.369 21.2342 22.2396 21.6011 22.1574C21.9549 22.0721 22.6669 22.0063 22.6669 22.0063L23.2537 22.2623L23.4867 23.147L23.06 24.0663L22.5164 24.4076L21.8992 23.4152L21.0459 22.3707L21.0444 22.369Z" fill="#9F8E57"/>
<path fill-rule="evenodd" clip-rule="evenodd" d="M20.2763 23.1587L20.0732 23.3103C20.0732 23.3103 20.1253 23.2153 20.1682 22.9263C20.2112 22.6373 20.4359 21.9339 20.7639 21.5283C21.0918 21.1226 21.0833 21.1443 21.0833 21.1443C21.0531 21.1387 21.0221 21.1397 20.9924 21.1471C20.9626 21.1545 20.9347 21.1682 20.9107 21.1872C20.9539 21.0916 21.2301 20.7503 21.5063 20.5796C21.7825 20.409 21.8903 20.3552 22.1793 20.4943C22.4683 20.6334 22.5417 20.7056 22.7533 20.6971C22.9649 20.6886 23.1458 20.4641 23.1458 20.4641C23.1458 20.4641 23.1891 20.6021 23.0295 20.9215C22.8699 21.241 22.2399 21.8924 22.2399 21.8924L20.928 22.7898L20.2763 23.1596V23.1587Z" fill="#EAC970"/>
<path fill-rule="evenodd" clip-rule="evenodd" d="M21.2472 22.261C21.2472 22.261 22.1967 22.3904 22.4857 22.123C22.4942 22.1532 22.5289 22.1532 22.5289 22.1748C22.5266 22.1911 22.519 22.2062 22.5073 22.2177C22.5388 22.2127 22.5705 22.2099 22.6023 22.2092C22.6403 22.2205 22.6794 22.2278 22.7189 22.2308C22.7508 22.2301 22.7825 22.2272 22.814 22.222C22.811 22.2435 22.8037 22.2641 22.7925 22.2826C22.7814 22.3012 22.7666 22.3174 22.7491 22.3301C22.7923 22.3301 22.8344 22.3386 22.8344 22.373C22.8344 22.4075 22.843 22.5113 22.7912 22.5329C22.7483 22.5448 22.7027 22.5417 22.6618 22.5241C22.6652 22.6058 22.6874 22.6856 22.7266 22.7573C22.812 22.9169 22.994 23.0987 23.2386 23.0463C23.2386 23.0463 23.3678 23.3569 22.8242 24.0473C22.7511 24.1423 22.6732 24.2717 22.5784 24.3795C22.541 24.4611 22.5124 24.5464 22.4931 24.6341C22.4931 24.6341 23.4124 24.2802 23.6755 23.4733C23.9432 22.662 23.995 21.8639 23.9432 21.1175C23.9344 20.9059 23.9 20.7551 23.8482 20.647C23.7188 20.3794 23.3561 20.4226 23.2096 20.5736C22.998 20.7853 22.6441 21.3115 22.1523 21.6739C21.6517 22.0363 21.6304 22.1005 21.2461 22.261H21.2472Z" fill="#D7BC6B"/>
<path fill-rule="evenodd" clip-rule="evenodd" d="M20.1082 23.4262C20.1082 23.4262 19.927 23.534 19.832 23.9382C19.7369 24.3523 19.9173 24.8572 20.0217 25.0168C20.1261 25.1764 20.363 25.6124 20.8545 25.6341C20.9762 25.6334 21.0965 25.6085 21.2084 25.5607C21.38 25.482 21.5409 25.3819 21.6874 25.2629C21.899 25.1033 22.0714 24.9653 22.0498 24.9522C21.998 24.9306 20.7467 23.895 20.7467 23.895L20.2763 23.3699L20.1079 23.4268L20.1082 23.4262Z" fill="#585136"/>
<path fill-rule="evenodd" clip-rule="evenodd" d="M21.291 25.1435C21.291 25.1435 21.5456 25.1221 21.6967 25.0271C21.8477 24.9321 20.812 23.9053 20.812 23.9053L20.8854 25.0146L21.291 25.1435Z" fill="#453A25"/>
<path fill-rule="evenodd" clip-rule="evenodd" d="M20.1898 23.3481C20.1898 23.3481 20.0604 23.5941 20.0604 23.659C20.0388 23.8703 20.1037 24.5348 20.1554 24.7461C20.2072 24.9706 20.4877 25.3113 20.8503 25.3113C21.0745 25.3113 21.3854 25.1734 21.3854 25.139C21.3854 25.0957 21.0659 25.0536 20.9797 24.8929C20.928 24.8076 20.9064 24.5954 20.8944 24.3809C20.8859 24.243 20.8859 24.0919 20.9376 24.0396C21.0543 23.9102 21.0756 23.539 21.0756 23.539L21.4897 22.7695H20.945L20.2934 23.1751L20.1898 23.3481Z" fill="#84754B"/>
<path fill-rule="evenodd" clip-rule="evenodd" d="M20.0308 23.5857C20.0308 23.5857 20.4574 23.0206 20.842 22.8909C21.2265 22.7611 21.3986 22.8391 21.3986 22.8391L21.1742 23.4131L20.8548 23.7669L20.8764 23.9481C20.8764 23.9481 20.8243 24.4271 21.1438 24.7593C21.4632 25.0916 21.7004 25.0788 21.8386 25.0788C21.9769 25.0788 22.3737 24.9622 22.5765 24.4832C22.7577 24.0346 22.9087 23.4592 22.5463 22.8823C22.1922 22.3083 21.5667 22.2861 21.4458 22.2861C21.325 22.2861 20.3758 22.3336 20.0308 23.5849V23.5857Z" fill="#252211"/>
<path fill-rule="evenodd" clip-rule="evenodd" d="M30.9859 25.5056C30.8263 25.4322 30.9773 24.9837 31.1369 24.8454C31.2965 24.7072 31.4993 24.5479 31.8534 24.526C31.9826 24.5175 32.1077 24.5994 32.0864 24.6859C32.0563 24.8454 31.8318 25.0699 31.629 25.2294C31.3486 25.4496 31.1671 25.5875 30.9859 25.5056Z" fill="#F7F7E7"/>
<path fill-rule="evenodd" clip-rule="evenodd" d="M22.3563 23.0591C22.4729 23.0506 22.624 23.1445 22.6541 23.2708C22.6843 23.4087 22.5807 23.6849 22.3563 23.6849C22.1751 23.6849 22.0801 23.4605 22.0801 23.3959C22.0821 23.3428 22.097 23.291 22.1233 23.2449C22.1319 23.2318 22.1535 23.0808 22.3563 23.0591Z" fill="#F8F6DE"/>
<path fill-rule="evenodd" clip-rule="evenodd" d="M20.6731 23.1587C20.6731 23.1587 20.3753 23.2966 20.2373 23.5853C20.1388 23.7985 20.1089 24.0371 20.152 24.268C20.1736 24.3758 20.2814 24.6431 20.3548 24.7381C20.4282 24.8331 20.5275 24.898 20.6009 24.8892C20.6742 24.8804 20.825 24.6864 20.825 24.57C20.825 24.4537 20.8338 23.9616 20.976 23.694C21.1012 23.4266 20.674 23.159 20.674 23.159L20.6731 23.1587Z" fill="#D4C38B"/>
<path fill-rule="evenodd" clip-rule="evenodd" d="M20.7166 23.1369C20.6649 23.167 20.5787 23.2103 20.6 23.2663C20.6216 23.3181 20.8028 23.3516 20.8677 23.4779C20.9411 23.6073 20.9411 23.7453 20.9194 23.8101C20.9758 23.7833 21.027 23.7467 21.0705 23.702C21.1655 23.5942 21.2818 23.4478 21.3811 23.4478C21.446 23.4478 21.5105 23.4779 21.5711 23.4779C21.6661 23.4779 21.7608 23.4478 21.7739 23.3485C21.7953 23.2191 21.5927 23.1025 21.4761 23.1241C21.4977 23.0388 21.5279 22.9127 21.4329 22.8263C21.3379 22.7398 21.0403 22.8911 20.9755 22.9344C20.9106 22.9776 20.7166 23.1372 20.7166 23.1372V23.1369Z" fill="#E2D59D"/>
<path fill-rule="evenodd" clip-rule="evenodd" d="M27.5729 32.2027L28.2115 32.0142L28.3927 32.1436C28.3927 32.1436 28.5219 32.4198 28.7249 32.4542C28.6601 32.5922 28.4917 32.7102 28.5005 32.808C28.5093 32.9059 28.5955 32.9807 28.5955 32.9807C28.5955 32.9807 28.0215 33.9299 29.1522 34.8865C28.8845 34.9943 28.5438 35.1425 28.3626 35.2278C28.4917 35.258 28.7679 35.3131 28.8845 35.4178C29.0011 35.5225 29.0011 35.5558 29.1089 35.6206C29.2168 35.6855 29.2813 35.7717 29.26 35.8104C29.1866 35.7671 28.9406 35.638 28.8976 35.7586C28.8547 35.8792 27.8318 35.832 27.8318 35.832L26.1058 36.1642C26.1058 36.1642 26.1704 35.9915 25.9892 35.832C25.7778 35.6423 25.519 35.8405 25.2428 35.6292C24.8804 35.353 24.8673 35.0335 24.751 34.9129C24.8673 34.8395 25.1048 34.7317 25.67 34.6569C25.6484 34.6137 25.575 34.4843 25.6182 34.3679C25.67 34.2169 25.8856 34.1219 25.8211 33.9413C25.9161 33.9197 25.959 33.9197 26.1965 33.6218C26.4209 33.324 26.5589 33.2595 26.7316 33.2378C26.9042 33.2162 27.0078 33.2378 27.3272 32.94C27.5513 32.7287 27.4782 32.5475 27.4782 32.5475C27.4782 32.5475 27.6247 32.5 27.5732 32.2022L27.5729 32.2027Z" fill="#CBAC5A"/>
<path fill-rule="evenodd" clip-rule="evenodd" d="M25.6878 32.2986C25.6964 32.2553 25.7311 32.2337 25.964 32.2553C26.197 32.277 27.6727 32.1174 28.0741 32.0958C28.4797 32.0656 29.9079 32.087 30.6028 32.2337C31.2977 32.3805 32.0009 32.5531 32.3416 32.6393C32.683 32.7343 32.7905 32.7684 32.7774 32.8117C32.7689 32.8549 32.6921 32.897 32.648 32.885C32.605 32.8765 31.4744 32.5312 31.1251 32.4584C30.7758 32.3856 29.5671 32.1908 28.9064 32.2024C28.2894 32.2113 28.0434 32.1939 27.5214 32.2542C26.9991 32.3191 26.1361 32.4052 25.8773 32.3708C25.6213 32.3407 25.6742 32.3407 25.6873 32.2974L25.6878 32.2986Z" fill="#D6BC6F"/>
<path fill-rule="evenodd" clip-rule="evenodd" d="M29.1606 35.6805C29.1606 35.6805 30.0452 36.1595 30.3646 36.7463C30.5976 37.1821 30.2266 37.398 30.2266 37.398C30.2266 37.398 30.7273 37.398 30.6624 37.6742C30.6323 37.8465 29.7994 38.3124 29.2428 38.5585C28.6776 38.8045 28.6992 38.7917 28.423 38.8347C28.1553 38.8779 27.4218 38.7493 27.2707 38.9641C27.1197 39.1789 27.1854 39.4001 27.2275 39.4346C27.2707 39.4647 27.6203 39.508 27.6203 39.508C27.6203 39.508 27.5469 39.7108 26.8221 39.7324C26.0974 39.754 25.9159 39.8055 25.8727 39.8834C25.8294 39.9565 26.0106 39.9136 26.3431 39.9687C26.6754 40.0205 27.1413 40.0541 27.1413 40.0541C27.1413 40.0541 26.9903 40.1835 26.5977 40.287C26.1489 40.4034 25.4454 40.5115 25.2341 40.6409C25.3419 40.7143 25.5018 40.8221 25.5754 40.8306C25.3942 40.8738 25.1394 40.9688 25.0964 41.0033C25.161 41.0465 25.2475 41.0983 25.2475 41.0983C25.2475 41.0983 24.8848 41.534 24.6735 41.6421C24.4621 41.7502 23.2453 42.3151 22.8266 42.2073C21.7824 41.9311 21.653 40.7876 21.3984 40.7015C21.0144 40.572 20.8332 40.8306 20.4922 40.6494C20.6432 40.5416 20.7254 40.477 20.885 40.4037C20.7123 40.3183 19.8192 39.752 19.8192 39.752C19.7258 39.5484 19.6221 39.3497 19.5086 39.1567C19.3359 38.8589 19.0819 38.4618 18.8913 38.1122C18.4772 37.3442 18.4555 36.9904 18.0801 36.5546C18.1449 36.4693 18.3691 36.4812 18.3691 36.4812L21.515 37.5169L27.0932 37.6784L28.5439 35.6074L29.1608 35.6808L29.1606 35.6805Z" fill="#DFC677"/>
<path fill-rule="evenodd" clip-rule="evenodd" d="M20.8979 38.8391C20.9316 38.8766 20.9709 38.9086 21.0143 38.9341C21.1224 39.0075 21.2819 39.094 21.3898 39.2231C21.433 39.1585 21.5408 39.0419 21.7311 39.2231C21.9214 39.4043 22.1578 39.2752 22.3048 39.3181C22.4559 39.3702 22.4644 39.3915 22.4644 39.3915C22.4644 39.3915 22.5497 39.3181 22.7406 39.2405C22.8572 39.1972 22.9952 39.1671 23.1462 39.1241C23.2842 39.094 23.4352 39.0507 23.539 39.0507C23.634 39.1153 23.9748 39.4774 25.3427 38.9429C26.6329 38.4423 26.9304 38.3863 27.1463 38.4636C27.168 38.4119 27.1896 38.3126 27.5218 38.3257C27.5218 38.1877 27.2456 37.7173 27.2456 37.7173L25.7224 37.1953H24.8893L22.391 37.6527L21.0066 38.4426L20.8988 38.8408L20.8979 38.8391Z" fill="#C4A859"/>
<path fill-rule="evenodd" clip-rule="evenodd" d="M20.0649 37.9633C20.0649 37.9633 20.0951 38.1963 20.4404 38.4423C20.7817 38.6881 20.889 38.8349 20.889 38.8349C20.889 38.8349 20.9538 38.7495 21.0056 38.6625C21.0574 38.5675 21.1006 38.4597 21.1868 38.4295C21.3594 38.3561 21.752 38.4941 21.8385 38.4725C21.9118 38.4511 21.8902 38.3001 21.9679 38.3001C22.1491 38.2913 22.2654 38.4164 22.3303 38.4164C22.3951 38.4164 22.5544 38.4079 22.576 38.3735C22.5976 38.3391 22.6062 37.9807 22.8522 37.808C23.1199 37.6183 23.4478 37.7002 23.5349 37.7434C23.5349 37.808 23.5434 37.9679 23.7161 37.9764C23.8887 37.9849 23.9058 37.9548 24.0574 38.0066C24.209 38.0583 24.3896 37.998 24.4716 38.2523C24.5449 38.231 24.7176 38.2094 24.6744 37.9633C24.7597 37.8988 24.8342 37.8555 25.0157 37.6009C25.0589 37.5364 25.132 37.463 25.1884 37.368C25.3394 37.368 25.5206 37.3378 25.7621 37.5492C25.6887 37.6009 25.6455 37.6345 25.6241 37.6871C25.6873 37.7497 25.745 37.8175 25.7965 37.8899C25.8613 37.9753 25.9046 38.0799 25.9865 38.1016C26.1677 38.1533 26.4655 38.0799 26.7977 38.1016C27.1172 38.1232 27.3845 38.2395 27.5012 38.3129C27.5444 38.2916 27.5444 38.2828 27.6522 38.3044C27.76 38.326 27.8419 38.3345 27.7256 38.1966C27.7902 38.2267 27.8636 38.2916 27.9284 38.2267C27.9933 38.1619 28.0447 38.0671 28.2259 38.0455C28.4071 38.0239 28.472 38.0541 28.5454 37.8643C28.6404 37.6314 28.3124 37.6314 28.3124 37.6314C28.3124 37.6314 28.4634 37.4931 28.6318 37.3119C28.8346 37.1222 29.0676 36.8762 29.1236 36.5741C29.2186 36.0174 28.6751 35.9443 28.6751 35.9443L26.0386 36.7556L22.8152 36.5957L20.0666 37.9636L20.0649 37.9633Z" fill="#927D49"/>
<path fill-rule="evenodd" clip-rule="evenodd" d="M17.696 30.3474C17.696 30.3474 17.6106 30.4552 17.558 30.7098C17.5054 30.9644 17.5279 30.9342 17.4846 31.1154C17.4414 31.2966 16.9103 33.1003 17.1094 33.7088C17.3086 34.3172 17.6533 34.5416 17.8689 35.0335C17.9121 35.1413 17.9542 35.2061 17.9767 35.3011C18.0501 35.6203 17.9855 35.8663 18.0717 36.1858C18.1019 36.2936 18.1798 36.4187 18.2961 36.5482C18.5521 36.8156 18.9694 37.0701 19.1495 37.2513C19.4038 37.519 19.7664 38.0629 20.2281 38.1144C20.4741 38.1445 20.8237 38.041 21.1127 37.8686C21.3687 37.7087 21.5268 37.4846 21.7954 37.3566C21.9851 37.2616 22.1879 37.2272 22.3691 37.1839C22.7445 37.1105 23.0856 37.0986 23.2884 37.1407C23.599 37.2055 24.3326 37.43 24.7391 37.43C25.0567 37.4248 25.3725 37.3814 25.6797 37.3005C26.2967 37.1193 27.043 36.8084 27.5351 36.6705C27.8241 36.5851 28.0571 36.5627 28.2946 36.5109C28.7002 36.4159 29.041 36.2865 29.2352 36.0404C29.1058 35.8894 28.9462 35.6564 28.083 35.6649C27.1036 35.6866 25.973 36.2302 25.4163 36.3166C24.8597 36.4031 24.6182 36.4762 23.9967 36.2518C23.3874 36.0251 23.3672 35.8752 23.3672 35.8752C23.3672 35.8752 22.7275 35.4277 22.4598 34.2871C22.1922 33.1464 22.4598 32.3153 23.1547 31.5253C23.3359 31.3225 23.2927 31.1413 23.2927 31.1413C23.2927 31.1413 23.75 30.5243 23.6249 29.9466C23.4869 29.3726 22.6023 29.4892 22.6023 29.4892L17.6962 30.3474H17.696Z" fill="#6E6342"/>
<path fill-rule="evenodd" clip-rule="evenodd" d="M18.4337 32.2676C18.3957 32.3391 18.3778 32.4196 18.3819 32.5005C18.3905 32.6169 18.4252 32.7679 18.7745 33.1089C19.0723 33.4065 19.0074 33.7387 19.0074 33.7387C19.0074 33.7387 19.1573 33.7688 19.5641 33.5785C19.8835 33.4275 19.9907 33.6952 19.9907 33.6952C20.0837 33.6464 20.1845 33.6142 20.2886 33.6002C20.3828 33.5915 20.4741 33.5624 20.5559 33.5148C20.5559 33.5148 20.9314 33.8988 21.2594 34.08C21.5572 34.2399 21.7298 34.3477 21.8766 34.2399C22.0146 34.1448 22.0146 33.9506 22.0057 33.8644C21.9715 33.7849 21.9282 33.7095 21.8766 33.64C21.7816 33.502 21.6306 33.3422 21.6206 33.2133C21.599 32.9158 21.845 32.5617 21.793 32.4755C21.7409 32.3893 21.5472 32.3677 21.0682 32.5404C20.5722 32.7042 18.4317 32.2684 18.4317 32.2684L18.4337 32.2676Z" fill="#39331F"/>
<path fill-rule="evenodd" clip-rule="evenodd" d="M19.5641 34.1965C19.5641 34.1965 19.3184 33.9635 19.4046 32.8329C19.5089 32.8314 19.613 32.8415 19.7151 32.8631C19.7151 32.8631 19.849 33.7391 19.5641 34.1965Z" fill="#292311"/>
<path fill-rule="evenodd" clip-rule="evenodd" d="M17.8123 29.4843C17.8466 29.4589 17.8784 29.4304 17.9073 29.399C17.822 29.5586 17.428 30.1971 17.7475 31.2026C18.0669 32.2036 18.8693 32.9499 19.8575 32.9846C20.8457 33.0193 21.365 32.5358 21.959 31.811C22.1919 31.522 22.4596 31.1594 22.6968 30.9136C23.0507 30.5294 23.3269 30.4215 23.3269 30.0506C23.3269 29.2912 22.55 28.9501 21.4066 28.6094C20.2631 28.2686 19.2317 28.3107 18.6967 28.544C18.1747 28.7982 17.9503 29.0659 17.812 29.4846L17.8123 29.4843Z" fill="#252211"/>
<path fill-rule="evenodd" clip-rule="evenodd" d="M21.4843 34.5373L21.5696 34.4941C21.5696 34.4941 21.5909 34.1527 21.7291 34.1618C21.8671 34.1834 21.9319 34.3649 21.9188 34.4295C21.9103 34.4941 21.8759 34.6021 21.7377 34.5891C21.5565 34.5933 21.4834 34.5373 21.4834 34.5373H21.4843Z" fill="#3F3824"/>
<path fill-rule="evenodd" clip-rule="evenodd" d="M21.1006 33.0873C21.1006 33.0873 21.1859 33.0572 21.2903 33.1607C21.3756 33.1607 21.7477 33.1175 21.8643 33.1909C21.9809 33.2642 22.0154 33.3288 22.0154 33.3288C22.0154 33.3288 21.5796 33.4238 21.3421 33.3288C21.1006 33.2469 21.1006 33.0873 21.1006 33.0873Z" fill="#2D2815"/>
<path fill-rule="evenodd" clip-rule="evenodd" d="M23.0205 33.1519C23.0205 33.1303 22.7876 32.9707 22.5416 32.9187C22.4983 32.9102 22.4895 32.9403 22.4563 32.9403C22.4346 32.9318 22.4261 32.8669 22.4261 32.8669L22.2862 32.9406C22.2862 32.9406 22.2646 32.9707 22.3379 33.0259C22.4025 33.0777 22.5106 33.1209 22.5407 33.2071C22.5709 33.2932 22.5709 33.3234 22.584 33.3364C22.5925 33.345 22.7435 33.3364 22.8169 33.2932C22.8903 33.25 23.0285 33.1795 23.0197 33.151L23.0205 33.1519Z" fill="#82764F"/>
<path fill-rule="evenodd" clip-rule="evenodd" d="M20.8418 34.0281C20.8418 34.0281 20.8847 33.7305 21.174 33.7175C21.4716 33.6958 21.5279 33.9849 21.5279 33.9849L21.3552 34.1575C21.3552 34.1533 21.2258 33.9721 20.8432 34.0281H20.8418Z" fill="#2D2816"/>
<path fill-rule="evenodd" clip-rule="evenodd" d="M22.7189 32.7463C22.7189 32.7463 22.5591 32.919 22.2055 32.9708C22.1754 32.9275 22.1105 32.8413 22.2055 32.7033C22.3005 32.5653 22.4083 32.522 22.5161 32.565C22.5637 32.5727 22.6081 32.5939 22.644 32.626C22.6799 32.6581 22.7059 32.6998 22.7189 32.7463Z" fill="#574F35"/>
<path fill-rule="evenodd" clip-rule="evenodd" d="M23.37 32.958C23.3788 32.9147 23.3486 32.9062 23.37 32.8846C23.3913 32.863 23.5082 32.82 23.5298 32.8414C23.5384 32.8502 23.5298 32.8846 23.5298 32.9267C23.5298 32.9688 23.5298 33.012 23.5082 33.043C23.4781 33.0862 23.3919 33.1078 23.3486 33.095C23.3054 33.0822 23.2969 33.0217 23.2969 33.0097C23.3182 33.0012 23.37 32.9796 23.37 32.958ZM24.1067 32.4921C24.1067 32.4705 24.1801 32.4272 24.2233 32.4272C24.2879 32.4272 24.2879 32.479 24.2967 32.4921C24.318 32.5006 24.318 32.4833 24.3396 32.5222C24.3613 32.5612 24.3917 32.63 24.3698 32.6733C24.3479 32.7165 24.262 32.7464 24.2407 32.7378C24.2105 32.7162 24.1155 32.5222 24.1067 32.4921Z" fill="#82764F"/>
<path fill-rule="evenodd" clip-rule="evenodd" d="M22.6235 33.0572C22.6235 33.0572 22.7185 33.0785 22.848 33.1866C22.8047 33.2167 22.7399 33.2512 22.7399 33.2512C22.7399 33.2512 22.7313 33.1519 22.6235 33.0569V33.0572Z" fill="#6E6342"/>
<path fill-rule="evenodd" clip-rule="evenodd" d="M22.4126 32.1079C22.391 32.0866 22.4772 32.0348 22.5289 32.0433C22.5807 32.0519 22.6023 32.0866 22.6584 32.0951C22.7144 32.1036 22.7232 32.0735 22.7437 32.0519C22.7642 32.0302 22.8387 32.0433 22.8515 32.0519C22.8595 32.0613 22.8667 32.0714 22.8731 32.082C22.874 32.0656 22.8783 32.0496 22.8857 32.0349C22.8931 32.0202 22.9034 32.0072 22.9161 31.9967C22.9326 31.9845 22.9517 31.9763 22.9719 31.9725C22.9921 31.9688 23.0129 31.9696 23.0327 31.9751C23.0412 32.0052 23.0845 32.113 23.0759 32.1346C23.0674 32.1563 22.938 32.1867 22.9161 32.1648C22.9377 32.2169 23.0327 32.3247 23.0455 32.346C23.0583 32.3673 22.9505 32.4194 22.9075 32.4109C22.8472 32.4066 22.476 32.1907 22.4115 32.1088L22.4126 32.1079ZM22.9778 31.3916C22.9698 31.3699 22.9545 31.3516 22.9346 31.3398C22.9044 31.3313 22.8051 31.3398 22.8051 31.3916C22.8051 31.4434 22.8905 31.733 22.9863 31.8837C23.0944 32.0348 23.1675 32.1597 23.2409 32.1944C23.264 32.2049 23.2901 32.2062 23.3141 32.1982C23.3382 32.1902 23.3582 32.1734 23.3703 32.1511C23.3789 32.1295 23.4005 31.9699 23.392 31.5944C23.3834 31.2189 23.3703 30.8565 23.3487 30.8349C23.3271 30.8133 23.2409 30.8136 23.2108 30.8565C23.1806 30.8995 22.9863 31.327 22.9775 31.3916H22.9778Z" fill="#585136"/>
<path fill-rule="evenodd" clip-rule="evenodd" d="M22.5934 33.6009C22.5934 33.6009 22.4424 33.5059 22.2956 33.5707C22.1576 33.6356 22.1661 33.8901 22.1661 33.8901C22.1972 33.9022 22.2307 33.9066 22.2638 33.9028C22.2969 33.8991 22.3286 33.8873 22.3562 33.8684C22.4512 33.8039 22.5718 33.6961 22.5934 33.6012V33.6009Z" fill="#574F35"/>
<path fill-rule="evenodd" clip-rule="evenodd" d="M22.8783 33.9417C22.8698 33.8563 22.793 33.8563 22.793 33.8123C22.7983 33.7912 22.8105 33.7725 22.8276 33.7592C22.8448 33.7459 22.866 33.7387 22.8877 33.7389C22.9309 33.7389 22.973 33.7906 23.0259 33.8242C23.0777 33.8544 23.1554 33.9095 23.1639 33.9752C23.1724 34.041 23.0786 34.221 22.9742 34.221C22.8698 34.221 22.9008 34.0267 22.8792 33.9405L22.8783 33.9417ZM23.7112 33.8251C23.7112 33.8251 23.5385 33.8768 23.5513 33.8251C23.5641 33.7733 23.6034 33.7605 23.6594 33.7605C23.6879 33.7307 23.7261 33.7122 23.7672 33.7084C23.7907 33.7073 23.8137 33.715 23.8318 33.73C23.8318 33.73 23.9484 33.6783 23.9828 33.7084C24.0172 33.7386 23.9916 33.7386 24.013 33.7733C24.0401 33.8118 24.0579 33.8561 24.065 33.9027C24.065 33.9371 23.9356 34.0105 23.8318 33.9977C23.7112 33.9718 23.7325 33.8467 23.7112 33.8251ZM24.7164 33.6308C24.7164 33.6308 24.7682 33.6609 24.7252 33.6956C24.695 33.7258 24.544 33.781 24.4143 33.7906C24.2849 33.7906 24.1685 33.812 24.1685 33.769C24.1685 33.7261 24.2763 33.6396 24.3409 33.618C24.3539 33.6018 24.3703 33.5887 24.389 33.5797C24.4077 33.5707 24.4283 33.5661 24.449 33.5662C24.5008 33.5662 24.7033 33.5446 24.7596 33.536C24.8114 33.5272 24.8546 33.5574 24.8242 33.6006C24.8114 33.6308 24.7164 33.6308 24.7164 33.6308ZM25.0142 32.2984C25.0142 32.2984 24.9493 32.4363 24.8762 32.4363C24.8029 32.4278 24.8029 32.4062 24.8029 32.3846C24.8029 32.3544 24.8762 32.2768 24.8674 32.2551C24.8461 32.2551 24.794 32.2551 24.8029 32.2034C24.8029 32.1601 24.8762 32.1084 24.9408 32.118C24.9896 32.0779 25.0503 32.0552 25.1135 32.0535C25.1869 32.0535 25.2514 32.0748 25.2514 32.118C25.2514 32.1613 25.1661 32.256 25.1348 32.2779C25.1004 32.3123 25.0571 32.3348 25.0142 32.2992V32.2984ZM24.0303 34.8485C24.0303 34.8485 23.945 34.8573 23.945 34.9003C23.945 34.9219 23.9663 34.9219 23.9967 34.9091C24.0143 34.9081 24.0316 34.9052 24.0485 34.9003C24.057 34.9091 24.057 34.9521 24.1219 34.9521C24.1751 34.9449 24.2265 34.9273 24.2729 34.9003C24.3247 34.879 24.3679 34.8571 24.3679 34.815C24.3463 34.7416 24.3031 34.7069 24.2385 34.7069C24.2054 34.7048 24.1724 34.7123 24.1435 34.7285C24.1435 34.7285 24.1219 34.6852 24.0485 34.7285C23.9751 34.7717 23.9837 34.7717 24.0053 34.7933C24.044 34.8278 24.0312 34.8502 24.0312 34.8502L24.0303 34.8485ZM23.5428 35.2974C23.5428 35.2758 23.6506 35.2325 23.6807 35.2456C23.7109 35.2542 23.7971 35.418 23.7971 35.4354C23.7971 35.457 23.6893 35.5087 23.646 35.5087C23.6028 35.5087 23.5297 35.4354 23.5297 35.4234C23.5297 35.4149 23.5814 35.4021 23.5814 35.3933C23.5942 35.3719 23.5428 35.3199 23.5428 35.2982V35.2974ZM23.2014 34.6673C23.223 34.6588 23.223 34.6372 23.2532 34.6156C23.2626 34.6093 23.2734 34.6052 23.2846 34.6038C23.2959 34.6023 23.3073 34.6034 23.3181 34.607C23.3257 34.5934 23.3362 34.5817 23.3489 34.5727C23.3616 34.5637 23.3761 34.5577 23.3914 34.555C23.4432 34.5464 23.4864 34.555 23.4768 34.5766C23.4768 34.6414 23.52 34.6844 23.52 34.7362C23.52 34.7879 23.4899 34.8528 23.3821 34.896C23.2742 34.9262 23.1275 34.9262 23.1059 34.9176C23.0842 34.9091 23.0626 34.8226 23.0842 34.7794C23.1059 34.7362 23.1662 34.6889 23.2009 34.6673H23.2014Z" fill="#82764F"/>
<path fill-rule="evenodd" clip-rule="evenodd" d="M23.339 34.6968C23.339 34.6968 23.2655 34.74 23.2655 34.7616C23.259 34.7825 23.2561 34.8043 23.257 34.8262C23.257 34.839 23.352 34.8176 23.3649 34.8045C23.3691 34.796 23.339 34.7192 23.339 34.6968Z" fill="#6E6342"/>
<path fill-rule="evenodd" clip-rule="evenodd" d="M22.6968 34.494C22.7397 34.5028 22.8131 34.494 22.8692 34.5156C22.9124 34.5372 22.9425 34.5804 22.8993 34.6322C22.8561 34.6839 22.814 34.7616 22.7181 34.7485C22.6103 34.74 22.5068 34.6839 22.5068 34.6407C22.505 34.6134 22.5086 34.5859 22.5175 34.56C22.5264 34.5341 22.5404 34.5102 22.5586 34.4897C22.6018 34.4553 22.6231 34.4769 22.6965 34.494H22.6968Z" fill="#585136"/>
<path fill-rule="evenodd" clip-rule="evenodd" d="M22.6452 34.5371C22.6452 34.5371 22.5073 34.6449 22.4726 34.697C22.4293 34.7487 22.218 35.0161 22.1534 35.0721C22.1749 35.0343 22.1993 34.9983 22.2265 34.9643C22.1412 35.0189 22.0772 35.1012 22.0453 35.1973C21.9935 35.3572 22.3346 35.4433 22.5588 35.5082C22.7829 35.5731 22.8697 35.5935 22.8697 35.5935C22.7871 35.4695 22.7163 35.3381 22.658 35.201C22.5727 34.9982 22.5286 34.9766 22.5846 34.8816C22.6279 34.7866 22.6927 34.722 22.6927 34.6486C22.6668 34.5803 22.6452 34.5371 22.6452 34.5371Z" fill="#574F35"/>
<path fill-rule="evenodd" clip-rule="evenodd" d="M17.7262 34.8781C17.7576 34.8839 17.7898 34.8839 17.8212 34.8781C17.8857 34.8693 18.559 34.6221 19.2624 34.6665C19.789 34.6983 20.311 34.7841 20.82 34.9225C21.7047 35.1554 22.8049 35.6171 23.5168 35.8805C23.7066 35.9536 23.8923 36.0833 24.0288 36.1348C24.5727 36.3465 24.594 36.3465 24.9135 36.4025C25.2889 36.4543 25.6729 36.3291 26.0743 36.2429C26.5661 36.1348 27.4074 36.0831 28.1453 35.9753C28.3839 35.9422 28.6192 35.8888 28.8487 35.8157C28.8487 35.8157 28.2619 36.4025 26.8551 36.6139C26.2864 36.7002 25.7085 36.7075 25.1379 36.6355C24.689 36.5922 24.3915 36.5274 24.1671 36.4628C23.9125 36.3894 23.3903 36.1951 22.7474 36.0361C22.2986 35.9195 21.798 35.8333 21.2242 35.7255C19.8088 35.4664 18.2729 35.1688 17.7256 34.8798L17.7262 34.8781Z" fill="#252211"/>
<path fill-rule="evenodd" clip-rule="evenodd" d="M16.1382 32.2114C15.7968 32.5004 15.4347 32.7766 15.0812 33.044L14.0154 33.8629C13.653 34.1303 13.2991 34.4065 12.9365 34.6741C12.5738 34.9418 12.2117 35.1961 11.8271 35.4421C12.1685 35.1532 12.5306 34.8855 12.893 34.6224C13.2553 34.3593 13.6311 34.1013 13.9807 33.8345L15.0465 33.0144C15.4131 32.747 15.767 32.4708 16.1382 32.212V32.2114ZM14.2526 35.2319C14.2526 35.2319 14.6366 34.9125 15.1156 34.4639C15.7109 33.9076 16.4402 33.1953 16.6732 33.0662L14.2523 35.2322L14.2526 35.2319Z" fill="#CFB66C"/>
<path fill-rule="evenodd" clip-rule="evenodd" d="M14.2524 35.2317C14.4425 35.042 14.6453 34.8566 14.8481 34.6751L15.1587 34.4077C15.2537 34.3224 15.3618 34.2265 15.4565 34.1315C15.6462 33.9418 15.832 33.7387 16.0217 33.5447C16.1157 33.4472 16.2151 33.3549 16.3195 33.2685C16.3717 33.2223 16.4296 33.1831 16.4919 33.1519C16.5439 33.1217 16.6 33.0666 16.6731 33.0569C16.6301 33.1217 16.5783 33.1519 16.5351 33.2079C16.4833 33.2512 16.4401 33.3029 16.3972 33.3459C16.3021 33.4409 16.1943 33.5271 16.0993 33.6135C15.8965 33.7862 15.6852 33.9549 15.4824 34.1355C15.2796 34.3161 15.0898 34.511 14.8868 34.6922C14.6669 34.8779 14.4641 35.0591 14.2524 35.2326V35.2317ZM16.8329 33.5057C16.8329 33.5057 15.4263 34.8824 15.1371 35.1066L16.8329 33.5057Z" fill="#CFB66C"/>
<path fill-rule="evenodd" clip-rule="evenodd" d="M16.8331 33.5059C16.7065 33.6523 16.5709 33.7907 16.4269 33.92L16.0002 34.3256C15.8623 34.4636 15.7325 34.6018 15.5861 34.7398C15.435 34.8692 15.2971 34.9958 15.1372 35.1152L15.5514 34.7096C15.6896 34.5717 15.8406 34.4553 15.9874 34.3171L16.4016 33.9115C16.5438 33.7693 16.682 33.631 16.8331 33.5059ZM16.8976 34.2522C16.768 34.6141 16.6152 34.9673 16.4402 35.3095C16.0779 36.0346 15.5343 36.9405 15.2968 37.4025L16.8976 34.2522Z" fill="#CFB66C"/>
<path fill-rule="evenodd" clip-rule="evenodd" d="M16.8974 34.2524C16.8974 34.412 16.8541 34.5503 16.8024 34.6882C16.7519 34.8263 16.6944 34.9617 16.63 35.0938C16.5651 35.2233 16.4917 35.3615 16.4184 35.4866C16.345 35.6118 16.2588 35.7409 16.1939 35.8706L15.7582 36.6386C15.6071 36.8946 15.4604 37.1521 15.3008 37.3981C15.4086 37.1219 15.5554 36.8631 15.6936 36.6085C15.8446 36.3525 15.9826 36.0965 16.1203 35.8317C16.1875 35.6997 16.248 35.5644 16.3015 35.4263C16.366 35.2881 16.4306 35.1587 16.4826 35.0335C16.5472 34.8956 16.599 34.7659 16.6638 34.641C16.7369 34.507 16.7975 34.3776 16.8968 34.2524H16.8974Z" fill="#CFB66C"/>
<path fill-rule="evenodd" clip-rule="evenodd" d="M18.4339 37.7905C18.4339 37.7905 18.0072 38.3557 18.0499 39.072C18.1662 38.6968 18.313 38.1228 18.4339 37.7905ZM18.8395 38.3571C18.8395 38.3571 18.6884 39.8931 18.5633 40.6483C18.7402 39.7754 18.7746 39.8488 18.8395 38.3571ZM21.6657 40.7391C21.6657 40.7391 21.0271 42.6164 21.014 43.1381C21.1523 42.6016 21.4196 41.5057 21.6657 40.7377V40.7391Z" fill="#DEC270"/>
<path fill-rule="evenodd" clip-rule="evenodd" d="M23.1592 37.6746C23.1592 37.6746 24.1948 39.3832 24.9717 40.8416C24.7615 40.1077 24.2779 38.7617 23.1592 37.6746Z" fill="#CBAF59"/>
<path fill-rule="evenodd" clip-rule="evenodd" d="M25.9424 40.1899C26.511 41.1951 27.0238 42.2308 27.4784 43.2924C27.3922 42.5588 27.159 41.3033 25.9424 40.1899Z" fill="#E3C677"/>
<path fill-rule="evenodd" clip-rule="evenodd" d="M34.1229 42.7091C34.2953 42.6013 34.6363 42.0142 34.9341 41.8677C35.2317 41.7167 35.4561 41.6865 35.7237 41.3887C35.9911 41.0778 36.0651 40.8881 36.6513 40.6423C37.4714 40.2882 36.9073 39.8308 36.9073 39.8308C36.9976 39.7421 37.0942 39.6599 37.1963 39.585C37.4079 39.4255 37.6537 39.2312 37.6324 38.8901C37.6022 38.3164 37.4944 37.4835 37.0239 37.0003C37.4813 36.9053 38.3571 36.8407 38.9013 36.7027C39.531 36.5429 39.8203 36.3185 39.8203 36.3185C39.8203 36.3185 39.4579 35.7015 40.0447 35.0803C40.6315 34.4591 41.1105 34.0878 41.4644 33.393C41.0588 33.3412 40.4404 33.1256 38.8623 33.7252C38.9475 33.7653 39.0297 33.8114 39.1083 33.8631C39.1083 33.8631 38.1375 34.1308 37.7837 34.4286C37.1664 34.9506 37.0888 35.3778 36.4201 35.6972C35.7513 36.0167 35.0781 35.9302 34.5217 36.189C33.9653 36.4479 33.8831 36.668 33.68 36.763C33.7233 36.8148 33.6715 36.901 33.7534 36.9744C33.7016 37.0478 33.3996 37.5396 33.0932 37.5396C33.1234 37.6562 33.3822 37.7424 33.3822 37.7424C33.3822 37.7424 33.1925 37.8806 32.7092 37.915C32.955 38.171 33.1882 38.4501 33.8311 38.8557C33.7793 38.9635 33.5634 39.1234 33.6499 39.3262C33.7449 39.529 33.9912 39.8052 34.9745 40.0296C34.4739 40.0509 33.8874 40.1676 33.0972 40.0598C32.3076 39.9648 32.1782 39.9087 31.6906 40.0296C31.7424 40.0814 31.8804 40.0814 32.0012 40.2193C31.8718 40.2279 31.0606 40.1243 30.7844 40.487C30.4954 40.8622 30.3702 41.4794 30.3919 41.8936C30.2408 41.967 30.0941 42.0964 30.1674 42.364C30.2408 42.6317 30.6248 42.7179 30.8709 42.886C31.1166 43.0672 31.1382 43.1318 31.3715 43.0888C31.6172 43.037 31.9796 42.7913 32.1913 42.7913C32.4029 42.7913 32.5536 42.9509 32.5536 42.9509C32.5536 42.9509 33.1276 42.6747 33.1837 42.7264C33.2354 42.7782 33.1922 43.1104 33.2482 43.1622C33.3051 43.2012 33.9517 42.8172 34.1243 42.7091H34.1229Z" fill="#ECD592"/>
<path fill-rule="evenodd" clip-rule="evenodd" d="M46.6671 25.4413C43.9703 18.477 37.3035 17.1868 37.3035 17.1868H18.283L18.3564 24.2805H22.1443V40.121H18.2827V47.2019H36.777C41.2343 47.2019 44.8072 42.7228 44.8072 42.7228C50.5288 34.6022 46.6669 25.4413 46.6669 25.4413H46.6671ZM36.8763 37.9504C36.8763 37.9504 35.4256 40.0433 33.8472 40.0433H30.6899L30.6151 24.2979H34.667C34.667 24.2979 36.5443 24.6904 37.8559 28.4055C37.8559 28.4055 39.5947 33.7247 36.8763 37.9504Z" fill="white" fill-opacity="0.8"/>
</svg>
