<svg width="16" height="12" viewBox="0 0 16 12" fill="none" xmlns="http://www.w3.org/2000/svg">
<mask id="mask0_175_5740" style="mask-type:luminance" maskUnits="userSpaceOnUse" x="0" y="0" width="16" height="12">
<rect width="16" height="12" fill="white"/>
</mask>
<g mask="url(#mask0_175_5740)">
<path fill-rule="evenodd" clip-rule="evenodd" d="M0 0V12H16V0H0Z" fill="#FFB400"/>
<mask id="mask1_175_5740" style="mask-type:luminance" maskUnits="userSpaceOnUse" x="0" y="0" width="16" height="12">
<path fill-rule="evenodd" clip-rule="evenodd" d="M0 0V12H16V0H0Z" fill="white"/>
</mask>
<g mask="url(#mask1_175_5740)">
<path fill-rule="evenodd" clip-rule="evenodd" d="M0 0V3H16V0H0Z" fill="#C51918"/>
<path fill-rule="evenodd" clip-rule="evenodd" d="M0 9V12H16V9H0Z" fill="#C51918"/>
<rect x="2.50391" y="5.13599" width="0.56" height="2.912" fill="#F1F9FF"/>
<path fill-rule="evenodd" clip-rule="evenodd" d="M3.28827 4.63199H2.28027V4.91199H2.44827V5.13599H3.12027V4.91199H3.28827V4.63199Z" fill="#C88A02"/>
<path fill-rule="evenodd" clip-rule="evenodd" d="M3.12027 8.216H3.28827V8.496H2.28027V8.216H2.44827V7.992H3.12027V8.216Z" fill="#C88A02"/>
<path fill-rule="evenodd" clip-rule="evenodd" d="M2.78458 4.68799C2.90644 4.68799 2.91883 4.6421 2.99073 4.57357C3.04656 4.52035 3.17658 4.45434 3.17658 4.37999C3.17658 4.20989 3.00107 4.07199 2.78458 4.07199C2.56808 4.07199 2.39258 4.20989 2.39258 4.37999C2.39258 4.46282 2.48212 4.51821 2.54982 4.57357C2.62115 4.63189 2.67351 4.68799 2.78458 4.68799Z" fill="#AD1619"/>
<path fill-rule="evenodd" clip-rule="evenodd" d="M2.28027 8.496H3.28827V8.944C3.28827 8.944 3.16227 8.888 3.03627 8.888C2.91027 8.888 2.78427 8.944 2.78427 8.944C2.78427 8.944 2.65827 8.888 2.53227 8.888C2.40627 8.888 2.28027 8.944 2.28027 8.944V8.496Z" fill="#005BBF"/>
<mask id="mask2_175_5740" style="mask-type:luminance" maskUnits="userSpaceOnUse" x="2" y="8" width="2" height="1">
<path fill-rule="evenodd" clip-rule="evenodd" d="M2.28027 8.496H3.28827V8.944C3.28827 8.944 3.16227 8.888 3.03627 8.888C2.91027 8.888 2.78427 8.944 2.78427 8.944C2.78427 8.944 2.65827 8.888 2.53227 8.888C2.40627 8.888 2.28027 8.944 2.28027 8.944V8.496Z" fill="white"/>
</mask>
<g mask="url(#mask2_175_5740)">
</g>
<rect x="7.99219" y="5.13599" width="0.56" height="2.912" fill="#F1F9FF"/>
<path fill-rule="evenodd" clip-rule="evenodd" d="M8.77655 4.63199H7.76855V4.91199H7.93655V5.13599H8.60855V4.91199H8.77655V4.63199Z" fill="#C88A02"/>
<path fill-rule="evenodd" clip-rule="evenodd" d="M8.60855 8.216H8.77655V8.496H7.76855V8.216H7.93655V7.992H8.60855V8.216Z" fill="#C88A02"/>
<path fill-rule="evenodd" clip-rule="evenodd" d="M8.27286 4.68799C8.39473 4.68799 8.40711 4.6421 8.47901 4.57357C8.53484 4.52035 8.66486 4.45434 8.66486 4.37999C8.66486 4.20989 8.48935 4.07199 8.27286 4.07199C8.05636 4.07199 7.88086 4.20989 7.88086 4.37999C7.88086 4.46282 7.9704 4.51821 8.0381 4.57357C8.10943 4.63189 8.16179 4.68799 8.27286 4.68799Z" fill="#AD1619"/>
<path fill-rule="evenodd" clip-rule="evenodd" d="M7.76855 8.496H8.77655V8.944C8.77655 8.944 8.65055 8.888 8.52455 8.888C8.39855 8.888 8.27255 8.944 8.27255 8.944C8.27255 8.944 8.14655 8.888 8.02055 8.888C7.89455 8.888 7.76855 8.944 7.76855 8.944V8.496Z" fill="#005BBF"/>
<mask id="mask3_175_5740" style="mask-type:luminance" maskUnits="userSpaceOnUse" x="7" y="8" width="2" height="1">
<path fill-rule="evenodd" clip-rule="evenodd" d="M7.76855 8.496H8.77655V8.944C8.77655 8.944 8.65055 8.888 8.52455 8.888C8.39855 8.888 8.27255 8.944 8.27255 8.944C8.27255 8.944 8.14655 8.888 8.02055 8.888C7.89455 8.888 7.76855 8.944 7.76855 8.944V8.496Z" fill="white"/>
</mask>
<g mask="url(#mask3_175_5740)">
</g>
<path fill-rule="evenodd" clip-rule="evenodd" d="M2.49437 7.83994C2.59533 7.71754 2.65179 7.60618 2.65179 7.48791C2.65179 7.41334 2.6296 7.34893 2.59072 7.29631L2.59729 7.29336C2.59668 7.29363 2.70805 7.24509 2.74682 7.22649C2.8189 7.19194 2.88239 7.15533 2.9443 7.11031C2.98383 7.08156 3.03679 7.05025 3.11752 7.0069L3.21387 6.95568C3.2531 6.93474 3.28232 6.9187 3.30947 6.90295C3.39405 6.85389 3.44995 6.81334 3.4927 6.75912C3.59396 6.63072 3.57294 6.45666 3.43104 6.36005C3.36152 6.31272 3.26771 6.28556 3.13019 6.26418L2.93351 6.23369C2.86771 6.22336 2.80899 6.21372 2.75664 6.20457C3.10092 6.14728 3.59254 6.16834 3.80879 6.27999L4.01432 5.88192C3.57364 5.65439 2.56958 5.67763 2.19451 5.93592C1.91941 6.12538 1.95633 6.41176 2.24256 6.53508C2.36216 6.58661 2.51807 6.6208 2.8066 6.66715C2.75825 6.6952 2.71816 6.72083 2.68081 6.74799C2.64293 6.77553 2.60235 6.79893 2.55312 6.82253C2.52959 6.83382 2.45989 6.86442 2.42793 6.87845L2.42791 6.87846L2.42791 6.87847L2.41185 6.88554C2.17871 6.99155 2.06556 7.1382 2.09937 7.40293L2.11767 7.54624L2.1505 7.55632L2.49437 7.83994ZM2.20618 7.4696L2.20546 7.47166L2.20601 7.4702L2.20618 7.4696ZM8.35336 7.48791C8.35336 7.60618 8.40982 7.71754 8.51079 7.83994L8.85465 7.55632L8.88748 7.54624L8.90579 7.40293C8.9396 7.1382 8.82645 6.99155 8.59331 6.88554L8.57725 6.87846C8.5453 6.86444 8.47557 6.83382 8.45203 6.82253C8.4028 6.79893 8.36222 6.77553 8.32434 6.74799C8.28699 6.72083 8.24691 6.6952 8.19856 6.66715C8.48708 6.6208 8.64299 6.58661 8.7626 6.53508C9.04882 6.41176 9.08574 6.12538 8.81064 5.93592C8.43557 5.67763 7.43151 5.65439 6.99084 5.88192L7.19636 6.27999C7.41261 6.16834 7.90423 6.14728 8.24852 6.20457C8.19616 6.21372 8.13744 6.22336 8.07164 6.23369L7.87496 6.26418C7.73745 6.28556 7.64363 6.31272 7.57411 6.36005C7.43222 6.45666 7.41119 6.63072 7.51245 6.75912C7.5552 6.81334 7.6111 6.85389 7.69569 6.90295C7.72283 6.9187 7.75205 6.93474 7.79129 6.95568L7.88763 7.0069C7.96836 7.05025 8.02132 7.08156 8.06085 7.11031C8.12276 7.15533 8.18626 7.19194 8.25833 7.22649C8.29711 7.24509 8.40847 7.29363 8.40787 7.29336L8.41444 7.29631C8.37556 7.34893 8.35336 7.41334 8.35336 7.48791Z" fill="#AD1619"/>
<path d="M2.96158 6.19998L3.12688 6.23418V6.48055C2.95083 6.62101 2.50391 6.85776 2.50391 6.85776V6.19998H2.96158Z" fill="#F1F9FF"/>
<path d="M8.15756 6.19998L7.99226 6.23418V6.48055C8.16831 6.62101 8.61523 6.85776 8.61523 6.85776V6.19998H8.15756Z" fill="#F1F9FF"/>
<path fill-rule="evenodd" clip-rule="evenodd" d="M7.38856 3.60298V3.52099C7.10052 3.31427 6.79888 3.21091 6.48364 3.21091C6.18143 3.07717 5.87554 3.02526 5.56595 3.05517C5.56604 3.05421 5.56608 3.05373 5.56608 3.05373C5.10059 3.00818 4.63148 3.21091 4.63148 3.21091C4.15862 3.21091 3.72656 3.52099 3.72656 3.52099V3.60298L4.29138 4.17025C4.29138 4.17025 4.4503 4.71605 5.56318 4.58799C5.56358 4.58886 5.56378 4.58931 5.56378 4.58931C5.56378 4.58931 6.30095 4.56919 6.35275 4.55196C6.37331 4.54512 6.39462 4.5389 6.4164 4.53254C6.56079 4.49038 6.72563 4.44226 6.82374 4.17025L7.38856 3.60298ZM5.56342 3.0845C5.56109 3.11201 5.5574 3.15681 5.55303 3.21408C5.55857 3.17304 5.56229 3.12998 5.56342 3.0845Z" fill="#AD1619"/>
<path fill-rule="evenodd" clip-rule="evenodd" d="M3.76074 3.69923L3.79912 3.65845L4.31196 4.14095C4.40931 4.11477 4.93773 3.98012 5.52797 3.97349V3.97324L5.55042 3.9733L5.57288 3.97324V3.97349C6.22682 3.98084 6.80488 4.14533 6.80488 4.14533C6.80488 4.14533 6.79868 4.19841 6.78364 4.26081C6.79957 4.22814 6.81844 4.19184 6.84025 4.15178L6.84566 4.14478L7.36257 3.65845L7.40095 3.69923L6.8873 4.18249C6.81236 4.3205 6.77462 4.4116 6.77462 4.44944C6.77462 4.50717 6.62442 4.54144 6.33129 4.57663C6.10165 4.6042 5.83063 4.62271 5.60895 4.62548V4.62584L5.58084 4.62574L5.55274 4.62584V4.62548C5.33106 4.62271 5.06004 4.6042 4.8304 4.57663C4.53727 4.54144 4.38707 4.50717 4.38707 4.44944C4.38707 4.44228 4.38572 4.43322 4.38302 4.42229C4.35347 4.38465 4.33268 4.32307 4.31886 4.26752C4.30588 4.24154 4.29106 4.21318 4.27439 4.18249L3.76074 3.69923ZM6.62738 4.45054C6.66662 4.4689 6.69807 4.45058 6.72293 4.41542C6.72078 4.42513 6.71944 4.43391 6.71889 4.44178C6.71561 4.44393 6.71057 4.44651 6.70396 4.44929C6.68552 4.45705 6.65735 4.46531 6.6207 4.47367C6.54867 4.4901 6.44613 4.50644 6.32462 4.52103C6.08732 4.54952 5.80516 4.56827 5.58085 4.56974C5.35653 4.56827 5.07437 4.54952 4.83707 4.52103C4.71556 4.50644 4.61302 4.4901 4.54099 4.47367C4.51027 4.46666 4.48551 4.45972 4.46744 4.4531L4.47347 4.45054C4.5958 4.39329 5.40475 4.33958 5.55042 4.33031C5.6961 4.33958 6.50505 4.39329 6.62738 4.45054ZM6.78165 4.44028L6.7808 4.44126L6.78131 4.44055L6.78165 4.44028Z" fill="#C88A02"/>
<path fill-rule="evenodd" clip-rule="evenodd" d="M5.55667 2.67352C5.64946 2.67352 5.72467 2.59831 5.72467 2.50552C5.72467 2.41274 5.64946 2.33752 5.55667 2.33752C5.46389 2.33752 5.38867 2.41274 5.38867 2.50552C5.38867 2.59831 5.46389 2.67352 5.55667 2.67352Z" fill="#005BBF"/>
<path fill-rule="evenodd" clip-rule="evenodd" d="M5.49441 2.0383H5.61107V2.112H5.6873V2.22867H5.61107V2.462H5.6873V2.57867H5.41699V2.462H5.49441V2.22867H5.41699V2.112H5.49441V2.0383Z" fill="#C88A02"/>
<rect x="5.47266" y="2.672" width="0.224" height="0.728" fill="#C88A02"/>
<path d="M3.85449 3.64843L3.54688 3.63686C3.69201 2.79807 4.4068 2.38708 5.54901 2.38708C6.6927 2.38708 7.40496 2.79985 7.53918 3.64176L7.12314 3.6854C7.05782 3.2757 6.37159 2.90493 5.55502 2.90493C4.73697 2.90493 3.92592 3.23561 3.85449 3.64843Z" fill="#C88A02"/>
<path opacity="0.3" fill-rule="evenodd" clip-rule="evenodd" d="M3.73633 4.63199H7.37633V7.9024C7.37633 7.9024 7.10594 8.99999 5.55633 8.99999C4.00672 8.99999 3.73633 7.87346 3.73633 7.87346V4.63199Z" fill="#E1E5E8"/>
<mask id="mask4_175_5740" style="mask-type:luminance" maskUnits="userSpaceOnUse" x="3" y="4" width="5" height="5">
<path fill-rule="evenodd" clip-rule="evenodd" d="M3.73633 4.63199H7.37633V7.9024C7.37633 7.9024 7.10594 8.99999 5.55633 8.99999C4.00672 8.99999 3.73633 7.87346 3.73633 7.87346V4.63199Z" fill="white"/>
</mask>
<g mask="url(#mask4_175_5740)">
<rect x="3.73633" y="6.64798" width="1.848" height="2.184" fill="#FFC034"/>
<rect x="3.73633" y="4.57599" width="1.848" height="2.128" fill="#AD1619"/>
<rect x="5.52832" y="6.59198" width="1.848" height="2.128" fill="#AD1619"/>
<rect x="5.52832" y="4.63199" width="1.96" height="2.072" fill="#F1F9FF"/>
<path fill-rule="evenodd" clip-rule="evenodd" d="M6.74157 8.72135C6.74157 8.72135 5.55547 8.8146 5.55547 8.04962C5.55547 8.04962 5.54416 8.72135 4.30566 8.72135V9.32526H6.74157V8.72135Z" fill="#F1F9FF"/>
<path fill-rule="evenodd" clip-rule="evenodd" d="M5.55672 7.09598C5.78868 7.09598 5.97672 6.89541 5.97672 6.64798C5.97672 6.40056 5.78868 6.19998 5.55672 6.19998C5.32476 6.19998 5.13672 6.40056 5.13672 6.64798C5.13672 6.89541 5.32476 7.09598 5.55672 7.09598Z" fill="#005BBF" stroke="#AD1619" stroke-width="0.583333"/>
</g>
<path fill-rule="evenodd" clip-rule="evenodd" d="M4.5 6C4.77614 6 5 5.77614 5 5.5C5 5.22386 4.77614 5 4.5 5C4.22386 5 4 5.22386 4 5.5C4 5.77614 4.22386 6 4.5 6Z" fill="#C88A02"/>
<path fill-rule="evenodd" clip-rule="evenodd" d="M6.5 6C6.77614 6 7 5.77614 7 5.5C7 5.22386 6.77614 5 6.5 5C6.22386 5 6 5.22386 6 5.5C6 5.77614 6.22386 6 6.5 6Z" fill="#C37C9C"/>
<path fill-rule="evenodd" clip-rule="evenodd" d="M6.5 8C6.77614 8 7 7.77614 7 7.5C7 7.22386 6.77614 7 6.5 7C6.22386 7 6 7.22386 6 7.5C6 7.77614 6.22386 8 6.5 8Z" fill="#FFC034"/>
<path d="M4.5 8C4.77614 8 5 7.77614 5 7.5C5 7.22386 4.77614 7 4.5 7C4.22386 7 4 7.22386 4 7.5C4 7.77614 4.22386 8 4.5 8Z" fill="#AD1619"/>
</g>
</g>
</svg>
