<svg width="72" height="72" viewBox="0 0 72 72" fill="none" xmlns="http://www.w3.org/2000/svg">
<g clip-path="url(#clip0_286_7360)">
<path d="M61.4558 10.5442C54.6563 3.74456 45.6159 0 36 0C26.3841 0 17.3437 3.74456 10.5442 10.5442C3.7447 17.3437 0 26.3841 0 36C0 45.6159 3.7447 54.6563 10.5442 61.4558C17.3437 68.2554 26.3841 72 36 72C45.6159 72 54.6563 68.2554 61.4558 61.4558C68.2553 54.6563 72 45.6159 72 36C72 26.3841 68.2553 17.3437 61.4558 10.5442ZM59.8617 59.8615C53.4878 66.2351 45.0136 69.7454 36 69.7454C26.9864 69.7454 18.5122 66.2351 12.1383 59.8615C5.76478 53.4878 2.25464 45.0136 2.25464 36C2.25464 26.9864 5.76478 18.5122 12.1383 12.1385C18.5122 5.76492 26.9864 2.25464 36 2.25464C45.0136 2.25464 53.4878 5.76492 59.8617 12.1385C66.2352 18.512 69.7454 26.9862 69.7454 36C69.7454 45.0138 66.2352 53.4878 59.8617 59.8615Z" fill="#FED700"/>
<path d="M35.9999 6.01257C19.4646 6.01257 6.01245 19.4648 6.01245 36C6.01245 52.5353 19.4646 65.9874 35.9999 65.9874C52.5351 65.9874 65.9873 52.5353 65.9873 36C65.9873 19.4648 52.5351 6.01257 35.9999 6.01257ZM35.9999 63.7328C20.7079 63.7328 8.26709 51.2919 8.26709 36C8.26709 20.7082 20.7079 8.26721 35.9999 8.26721C51.2919 8.26721 63.7327 20.7082 63.7327 36C63.7327 51.2919 51.2919 63.7328 35.9999 63.7328Z" fill="#FED700"/>
<path d="M44.0872 34.3409C45.7086 33.031 46.7474 31.027 46.7474 28.7851C46.7474 24.8483 43.5444 21.6453 39.6076 21.6453H38.3299V19.1651C38.3299 18.5424 37.8252 18.0377 37.2025 18.0377C36.5798 18.0377 36.0751 18.5423 36.0751 19.1651V21.6453H33.5198V19.1651C33.5198 18.5424 33.0151 18.0377 32.3924 18.0377C31.7697 18.0377 31.265 18.5423 31.265 19.1651V21.6453H26.3798C25.7573 21.6453 25.2524 22.1499 25.2524 22.7727C25.2524 23.3954 25.7571 23.9001 26.3798 23.9001H27.6576V48.1005H26.3798C25.7573 48.1005 25.2524 48.6051 25.2524 49.2279C25.2524 49.8506 25.7571 50.3553 26.3798 50.3553H31.265V52.8355C31.265 53.4582 31.7697 53.9629 32.3924 53.9629C33.0151 53.9629 33.5198 53.4583 33.5198 52.8355V50.3553H36.0751V52.8355C36.0751 53.4582 36.5798 53.9629 37.2025 53.9629C37.8252 53.9629 38.3299 53.4583 38.3299 52.8355V50.3553H40.8101C45.41 50.3553 49.1525 46.613 49.1525 42.0129C49.1524 38.5752 47.0628 35.6167 44.0872 34.3409ZM29.9123 23.8998H39.6076C42.3013 23.8998 44.4928 26.0912 44.4928 28.785C44.4928 31.4788 42.3013 33.6702 39.6076 33.6702H29.9123V23.8998ZM40.8101 48.1002H29.9123V35.9249H40.8101C44.1669 35.9249 46.8977 38.6559 46.8977 42.0126C46.8977 45.3693 44.1668 48.1002 40.8101 48.1002Z" fill="#FED700"/>
</g>
<defs>
<clipPath id="clip0_286_7360">
<rect width="72" height="72" fill="white"/>
</clipPath>
</defs>
</svg>
