<svg width="70" height="70" viewBox="0 0 70 70" fill="none" xmlns="http://www.w3.org/2000/svg">
<g clip-path="url(#clip0_286_7634)">
<path d="M59.7487 10.2513C53.1381 3.64055 44.3488 0 35 0C25.6512 0 16.8619 3.64055 10.2513 10.2513C3.64068 16.8619 0 25.6512 0 35C0 44.3488 3.64068 53.1381 10.2513 59.7487C16.8619 66.3595 25.6512 70 35 70C44.3488 70 53.1381 66.3595 59.7487 59.7487C66.3593 53.1381 70 44.3488 70 35C70 25.6512 66.3593 16.8619 59.7487 10.2513ZM58.1988 58.1987C52.0021 64.3952 43.7633 67.808 35 67.808C26.2367 67.808 17.9979 64.3952 11.8012 58.1987C5.60465 52.0021 2.19201 43.7633 2.19201 35C2.19201 26.2367 5.60465 17.9979 11.8012 11.8013C17.9979 5.60478 26.2367 2.19201 35 2.19201C43.7633 2.19201 52.0021 5.60478 58.1988 11.8013C64.3954 17.9978 67.808 26.2366 67.808 35C67.808 43.7634 64.3954 52.0021 58.1988 58.1987Z" fill="#FED700"/>
<path d="M40.8116 34.3503C42.3879 33.0768 43.3979 31.1284 43.3979 28.9489C43.3979 25.1214 40.2838 22.0074 36.4564 22.0074H35.2142V19.5961C35.2142 18.9907 34.7235 18.5 34.1181 18.5C33.5127 18.5 33.022 18.9905 33.022 19.5961V22.0074H30.5377V19.5961C30.5377 18.9907 30.047 18.5 29.4416 18.5C28.8362 18.5 28.3455 18.9905 28.3455 19.5961V22.0074H23.5961C22.9908 22.0074 22.5 22.4979 22.5 23.1035C22.5 23.7088 22.9907 24.1995 23.5961 24.1995H24.8383V47.7277H23.5961C22.9908 47.7277 22.5 48.2183 22.5 48.8238C22.5 49.4292 22.9907 49.9199 23.5961 49.9199H28.3455V52.3312C28.3455 52.9366 28.8362 53.4273 29.4416 53.4273C30.047 53.4273 30.5377 52.9367 30.5377 52.3312V49.9199H33.022V52.3312C33.022 52.9366 33.5127 53.4273 34.1181 53.4273C34.7235 53.4273 35.2142 52.9367 35.2142 52.3312V49.9199H37.6255C42.0977 49.9199 45.7362 46.2815 45.7362 41.8092C45.736 38.4669 43.7045 35.5907 40.8116 34.3503ZM27.0305 24.1993H36.4564C39.0752 24.1993 41.2059 26.3297 41.2059 28.9487C41.2059 31.5677 39.0752 33.6982 36.4564 33.6982H27.0305V24.1993ZM37.6255 47.7275H27.0305V35.8904H37.6255C40.8891 35.8904 43.544 38.5454 43.544 41.8089C43.544 45.0724 40.8889 47.7275 37.6255 47.7275Z" fill="#FED700"/>
</g>
<defs>
<clipPath id="clip0_286_7634">
<rect width="70" height="70" fill="white"/>
</clipPath>
</defs>
</svg>
