<svg width="100" height="15" viewBox="0 0 100 15" fill="none" xmlns="http://www.w3.org/2000/svg">
<path d="M6.84138 0.662069L5.04828 4.33103L0.993103 4.91034C0.275862 5.02069 0 5.90345 0.524138 6.42759L3.42069 9.26897L2.73103 13.269C2.62069 13.9862 3.3931 14.5379 4.02759 14.2069L7.64138 12.3034L11.2276 14.2069C11.8621 14.5379 12.6345 13.9862 12.5241 13.269L11.8345 9.26897L14.731 6.42759C15.2552 5.90345 14.9793 5.02069 14.2621 4.91034L10.2345 4.33103L8.41379 0.662069C8.11034 0.0275862 7.17241 0 6.84138 0.662069Z" fill="#FFBD69"/>
<path d="M28.0276 0.662069L26.2345 4.33103L22.1793 4.91034C21.4621 5.02069 21.1862 5.90345 21.7103 6.42759L24.6069 9.26897L23.9172 13.269C23.8069 13.9862 24.5793 14.5379 25.2138 14.2069L28.8276 12.3034L32.4138 14.2069C33.0483 14.5379 33.8207 13.9862 33.7103 13.269L33.0207 9.26897L35.9172 6.42759C36.4414 5.90345 36.1655 5.02069 35.4483 4.91034L31.4207 4.33103L29.6 0.662069C29.2966 0.0275862 28.3586 0 28.0276 0.662069Z" fill="#FFBD69"/>
<path d="M49.2138 0.662069L47.4207 4.33103L43.3655 4.91034C42.6483 5.02069 42.3724 5.90345 42.8966 6.42759L45.7931 9.26897L45.1034 13.269C44.9931 13.9862 45.7655 14.5379 46.4 14.2069L50.0138 12.3034L53.6 14.2069C54.2345 14.5379 55.0069 13.9862 54.8966 13.269L54.2069 9.26897L57.1034 6.42759C57.6276 5.90345 57.3517 5.02069 56.6345 4.91034L52.6069 4.33103L50.7862 0.662069C50.4828 0.0275862 49.5448 0 49.2138 0.662069Z" fill="#FFBD69"/>
<path d="M99.0069 4.91034L94.9793 4.33103L93.1586 0.662069C92.8552 0.0275862 91.9172 0 91.5862 0.662069L89.7931 4.33103L85.7379 4.91034C85.0207 5.02069 84.7448 5.90345 85.269 6.42759L88.1655 9.26897L87.4759 13.269C87.3655 13.9862 88.1379 14.5379 88.7724 14.2069L92.3862 12.3034L95.9724 14.2069C96.6069 14.5379 97.3793 13.9862 97.269 13.269L96.5793 9.26897L99.4759 6.42759C100 5.90345 99.7241 5.02069 99.0069 4.91034ZM95.1448 8.8L95.8069 12.6069L92.3862 10.8138L88.9379 12.6069L89.6 8.8L86.8138 6.09655L90.6483 5.54483L92.3862 2.06897L94.0966 5.54483L97.931 6.09655L95.1448 8.8Z" fill="#FFBD69"/>
<path d="M77.8207 4.91034L73.7931 4.33103L71.9724 0.662069C71.669 0.0275862 70.731 0 70.4 0.662069L68.6069 4.33103L64.5517 4.91034C63.8345 5.02069 63.5586 5.90345 64.0828 6.42759L66.9793 9.26897L66.2897 13.269C66.1793 13.9862 66.9517 14.5379 67.5862 14.2069L71.2 12.3034L74.7862 14.2069C75.4207 14.5379 76.1931 13.9862 76.0828 13.269L75.3931 9.26897L78.2897 6.42759C78.8138 5.90345 78.5379 5.02069 77.8207 4.91034ZM73.9586 8.8L74.6207 12.6069L71.2 10.8138L67.7517 12.6069L68.4138 8.8L65.6276 6.09655L69.4621 5.54483L71.2 2.06897L72.9103 5.54483L76.7448 6.09655L73.9586 8.8Z" fill="#FFBD69"/>
</svg>
