<svg width="64" height="64" viewBox="0 0 64 64" fill="none" xmlns="http://www.w3.org/2000/svg">
<path d="M19.0151 31.7992C18.9559 32.8297 19.3083 33.8415 19.9947 34.6124C20.6811 35.3832 21.6455 35.85 22.6759 35.9102H22.8882C23.6471 35.9094 24.3891 35.6864 25.0227 35.2687C25.6563 34.851 26.1537 34.2569 26.4536 33.5598C26.7535 32.8627 26.8426 32.093 26.7101 31.3458C26.5776 30.5986 26.2292 29.9065 25.7079 29.355C25.1867 28.8035 24.5153 28.4167 23.7767 28.2424C23.0381 28.0681 22.2647 28.1138 21.5518 28.3739C20.8389 28.6341 20.2178 29.0973 19.7651 29.7064C19.3124 30.3155 19.048 31.0437 19.0045 31.8014L19.0151 31.7992Z" fill="#0033AD"/>
<path d="M4.52478 30.814C4.27705 30.8001 4.03076 30.86 3.81705 30.9861C3.60334 31.1121 3.43179 31.2987 3.32409 31.5222C3.21639 31.7458 3.17737 31.9962 3.21196 32.2419C3.24656 32.4876 3.35321 32.7176 3.51844 32.9027C3.68367 33.0878 3.90006 33.2197 4.14028 33.2819C4.38049 33.3441 4.63373 33.3336 4.86801 33.2519C5.10229 33.1702 5.30708 33.0208 5.45651 32.8227C5.60594 32.6246 5.69329 32.3867 5.70754 32.139C5.71729 31.9742 5.69439 31.8092 5.64016 31.6533C5.58594 31.4974 5.50144 31.3538 5.39154 31.2307C5.28163 31.1076 5.14848 31.0074 4.99974 30.9358C4.85099 30.8643 4.68958 30.8229 4.52478 30.814Z" fill="#0033AD"/>
<path d="M18.7688 9.24627C18.9894 9.13297 19.1716 8.95692 19.2924 8.74029C19.4132 8.52366 19.4672 8.27614 19.4477 8.02888C19.4281 7.78161 19.3358 7.54566 19.1825 7.35073C19.0291 7.1558 18.8215 7.01059 18.5858 6.93339C18.35 6.8562 18.0968 6.85046 17.8578 6.9169C17.6188 6.98334 17.4048 7.11899 17.2428 7.30678C17.0808 7.49457 16.9779 7.72609 16.9471 7.97222C16.9164 8.21834 16.9592 8.46806 17.07 8.68994C17.1446 8.83845 17.2477 8.97074 17.3736 9.07919C17.4995 9.18764 17.6456 9.2701 17.8036 9.32182C17.9615 9.37354 18.1281 9.39349 18.2937 9.38052C18.4594 9.36755 18.6208 9.32193 18.7688 9.24627Z" fill="#0033AD"/>
<path d="M22.712 16.1219C23.0547 15.9491 23.3384 15.6785 23.5273 15.3444C23.7162 15.0104 23.8018 14.6278 23.7733 14.245C23.7448 13.8623 23.6035 13.4966 23.3672 13.1942C23.1309 12.8917 22.8102 12.6662 22.4458 12.546C22.0813 12.4257 21.6893 12.4163 21.3195 12.5188C20.9496 12.6213 20.6185 12.8312 20.3679 13.1219C20.1173 13.4126 19.9585 13.771 19.9116 14.152C19.8647 14.5329 19.9318 14.9192 20.1044 15.262C20.2191 15.4897 20.3775 15.6926 20.5707 15.8591C20.7638 16.0256 20.9878 16.1524 21.23 16.2323C21.4722 16.3121 21.7277 16.3435 21.982 16.3246C22.2363 16.3056 22.4843 16.2368 22.712 16.1219Z" fill="#0033AD"/>
<path d="M9.44265 20.8508C9.70696 21.0246 10.0169 21.1161 10.3332 21.1138C10.6495 21.1114 10.9581 21.0152 11.2197 20.8375C11.4814 20.6597 11.6844 20.4083 11.8032 20.1151C11.9219 19.8219 11.9511 19.5001 11.8869 19.1903C11.8226 18.8806 11.668 18.5968 11.4425 18.375C11.217 18.1531 10.9307 18.0032 10.6199 17.9441C10.3092 17.885 9.98786 17.9194 9.69665 18.0429C9.40545 18.1665 9.15743 18.3737 8.98399 18.6382C8.7517 18.9925 8.66953 19.4246 8.75553 19.8394C8.84153 20.2543 9.08866 20.618 9.44265 20.8508Z" fill="#0033AD"/>
<path d="M11.806 30.1069C11.4229 30.0853 11.0419 30.1777 10.7113 30.3726C10.3807 30.5674 10.1152 30.8559 9.94852 31.2016C9.78183 31.5473 9.72135 31.9346 9.77475 32.3146C9.82815 32.6947 9.99301 33.0504 10.2485 33.3367C10.504 33.6231 10.8387 33.8273 11.2102 33.9235C11.5817 34.0197 11.9734 34.0036 12.3358 33.8772C12.6981 33.7508 13.0149 33.5199 13.246 33.2135C13.4772 32.9071 13.6123 32.5391 13.6343 32.156C13.6633 31.6419 13.487 31.1373 13.1442 30.7531C12.8014 30.3689 12.3201 30.1364 11.806 30.1069Z" fill="#0033AD"/>
<path d="M9.655 43.1554C9.37281 43.298 9.13924 43.5211 8.98381 43.7964C8.82838 44.0717 8.75807 44.387 8.78177 44.7023C8.80547 45.0176 8.92212 45.3187 9.11696 45.5678C9.31181 45.8168 9.57611 46.0024 9.87644 46.1012C10.1768 46.2001 10.4997 46.2076 10.8043 46.123C11.109 46.0383 11.3817 45.8653 11.5879 45.6256C11.7942 45.386 11.9249 45.0906 11.9633 44.7768C12.0017 44.463 11.9463 44.1448 11.8039 43.8625C11.7093 43.6749 11.5787 43.5078 11.4195 43.3707C11.2602 43.2336 11.0756 43.1292 10.876 43.0636C10.6764 42.9979 10.4659 42.9722 10.2564 42.988C10.0469 43.0037 9.84251 43.0606 9.655 43.1554Z" fill="#0033AD"/>
<path d="M17.1996 26.0957C17.5775 26.3434 18.0204 26.4734 18.4722 26.4694C18.9241 26.4654 19.3646 26.3275 19.7381 26.0732C20.1115 25.8188 20.4012 25.4594 20.5705 25.0404C20.7397 24.6215 20.7809 24.1617 20.6888 23.7193C20.5968 23.2769 20.3757 22.8718 20.0534 22.555C19.7311 22.2383 19.3221 22.0243 18.8782 21.94C18.4342 21.8557 17.9753 21.9049 17.5593 22.0815C17.1433 22.258 16.7891 22.5539 16.5413 22.9318C16.3764 23.1827 16.2627 23.4636 16.2066 23.7585C16.1504 24.0533 16.153 24.3564 16.2142 24.6503C16.2753 24.9442 16.3938 25.2231 16.5629 25.4711C16.732 25.7192 16.9483 25.9314 17.1996 26.0957Z" fill="#0033AD"/>
<path d="M41.1349 15.9691C41.4567 16.179 41.8335 16.2887 42.2176 16.2845C42.6018 16.2803 42.9761 16.1623 43.2932 15.9454C43.6104 15.7285 43.8561 15.4225 43.9993 15.066C44.1425 14.7095 44.1768 14.3185 44.0979 13.9425C44.0189 13.5665 43.8303 13.2224 43.5558 12.9535C43.2813 12.6847 42.9333 12.5033 42.5557 12.4323C42.1781 12.3612 41.788 12.4037 41.4345 12.5544C41.0811 12.705 40.7803 12.9571 40.57 13.2787C40.4301 13.4923 40.3337 13.7314 40.2863 13.9824C40.2389 14.2333 40.2416 14.4912 40.294 14.7411C40.3465 14.991 40.4478 15.2282 40.5921 15.4389C40.7364 15.6496 40.9208 15.8298 41.1349 15.9691Z" fill="#0033AD"/>
<path d="M45.1184 9.11462C45.3264 9.25096 45.5702 9.32254 45.8189 9.3203C46.0676 9.31807 46.31 9.24212 46.5155 9.10206C46.721 8.96201 46.8804 8.76414 46.9734 8.5335C47.0664 8.30286 47.089 8.0498 47.0381 7.80636C46.9873 7.56291 46.8654 7.34001 46.6879 7.16586C46.5103 6.99171 46.2851 6.87414 46.0407 6.82802C45.7963 6.7819 45.5438 6.8093 45.315 6.90676C45.0862 7.00422 44.8914 7.16736 44.7553 7.37553C44.5731 7.65436 44.509 7.99413 44.577 8.32021C44.6451 8.64628 44.8399 8.93201 45.1184 9.11462Z" fill="#0033AD"/>
<path d="M41.4407 28.1002C40.9311 28.071 40.4207 28.1423 39.9387 28.3103C39.4566 28.4783 39.0124 28.7395 38.6314 29.0792C37.8618 29.7651 37.3963 30.7287 37.3371 31.7578C37.278 32.787 37.6301 33.7976 38.3161 34.5671C39.002 35.3367 39.9655 35.8022 40.9947 35.8614C41.0691 35.8614 41.1455 35.8614 41.2198 35.8614C41.9696 35.861 42.7032 35.6438 43.3322 35.2358C43.9613 34.8279 44.4589 34.2467 44.765 33.5623C45.0712 32.878 45.1728 32.1196 45.0577 31.3788C44.9426 30.6379 44.6156 29.9462 44.1162 29.387C43.778 29.0057 43.3672 28.6955 42.9078 28.4745C42.4485 28.2536 41.9497 28.1264 41.4407 28.1002Z" fill="#0033AD"/>
<path d="M23.9882 25.826C24.3108 26.4705 24.8069 27.0121 25.4206 27.3899C26.0344 27.7677 26.7414 27.9666 27.4621 27.9643C28.1266 27.9645 28.78 27.7943 29.3599 27.4701C29.9399 27.146 30.4272 26.6785 30.7752 26.1125C31.1231 25.5464 31.3202 24.9007 31.3477 24.2368C31.3751 23.5729 31.2319 22.9131 30.9318 22.3202C30.6069 21.6787 30.1099 21.1403 29.4964 20.7652C28.8828 20.3902 28.1769 20.1934 27.4579 20.1968C26.7954 20.1979 26.1443 20.3683 25.5662 20.6917C24.9881 21.0151 24.5023 21.4809 24.1547 22.0448C23.8071 22.6086 23.6094 23.252 23.5802 23.9138C23.5511 24.5755 23.6915 25.2338 23.9882 25.826Z" fill="#0033AD"/>
<path d="M54.4594 20.8466C54.7417 20.7042 54.9753 20.4813 55.1309 20.2061C55.2865 19.9309 55.3571 19.6157 55.3336 19.3004C55.3101 18.9852 55.1937 18.6839 54.9991 18.4348C54.8045 18.1857 54.5404 17.9998 54.2402 17.9007C53.94 17.8016 53.6171 17.7938 53.3124 17.8781C53.0078 17.9625 52.7349 18.1353 52.5284 18.3746C52.3219 18.614 52.191 18.9092 52.1522 19.2229C52.1134 19.5367 52.1685 19.8549 52.3105 20.1374C52.5016 20.5162 52.8353 20.8037 53.2382 20.9367C53.6411 21.0696 54.0804 21.0372 54.4594 20.8466Z" fill="#0033AD"/>
<path d="M44.6046 22.0845C44.201 22.2878 43.8667 22.6062 43.6441 22.9994C43.4214 23.3927 43.3204 23.8431 43.3537 24.2938C43.3871 24.7444 43.5533 25.1751 43.8314 25.5313C44.1095 25.8874 44.487 26.1532 44.9161 26.2948C45.3452 26.4365 45.8067 26.4477 46.2422 26.3271C46.6777 26.2064 47.0676 25.9594 47.3627 25.6171C47.6578 25.2749 47.8448 24.8528 47.9 24.4043C47.9552 23.9558 47.8762 23.501 47.6729 23.0974C47.5382 22.8293 47.3519 22.5903 47.1247 22.3942C46.8974 22.1981 46.6338 22.0487 46.3488 21.9547C46.0638 21.8606 45.7631 21.8236 45.4638 21.8459C45.1645 21.8682 44.8725 21.9493 44.6046 22.0845Z" fill="#0033AD"/>
<path d="M31.9107 8.52855C32.2265 8.54654 32.5405 8.47046 32.813 8.30995C33.0856 8.14944 33.3044 7.9117 33.4418 7.62681C33.5792 7.34191 33.629 7.02267 33.585 6.70946C33.5409 6.39625 33.4049 6.10314 33.1943 5.86721C32.9836 5.63129 32.7077 5.46314 32.4014 5.38405C32.0952 5.30496 31.7724 5.31847 31.4738 5.42288C31.1752 5.52728 30.9143 5.7179 30.7241 5.9706C30.5339 6.22331 30.4229 6.52675 30.4052 6.84255C30.3814 7.26573 30.5266 7.68103 30.8089 7.99718C31.0913 8.31333 31.4875 8.50445 31.9107 8.52855Z" fill="#0033AD"/>
<path d="M31.8937 18.5915C32.3448 18.6168 32.7932 18.5078 33.1823 18.2783C33.5714 18.0488 33.8838 17.7091 34.0799 17.3021C34.276 16.8951 34.3471 16.4392 34.2841 15.9918C34.2211 15.5445 34.027 15.1258 33.7261 14.7888C33.4253 14.4518 33.0313 14.2115 32.594 14.0983C32.1566 13.9851 31.6955 14.0042 31.269 14.153C30.8424 14.3018 30.4696 14.5737 30.1975 14.9344C29.9255 15.295 29.7664 15.7283 29.7405 16.1793C29.7063 16.7846 29.9139 17.3788 30.3177 17.8312C30.7215 18.2835 31.2884 18.557 31.8937 18.5915Z" fill="#0033AD"/>
<path d="M19.5141 41.9153C19.9176 41.7118 20.2518 41.3933 20.4743 40.9999C20.6968 40.6065 20.7976 40.156 20.764 39.7053C20.7304 39.2546 20.5639 38.824 20.2856 38.468C20.0073 38.1119 19.6296 37.8464 19.2004 37.705C18.7711 37.5636 18.3096 37.5527 17.8741 37.6736C17.4387 37.7945 17.0489 38.0419 16.754 38.3844C16.4591 38.7269 16.2725 39.1491 16.2176 39.5977C16.1627 40.0463 16.2421 40.5011 16.4457 40.9045C16.7187 41.4454 17.1952 41.8557 17.7706 42.0452C18.346 42.2347 18.9731 42.188 19.5141 41.9153Z" fill="#0033AD"/>
<path d="M33.3695 21.9253C32.8956 22.6485 32.6765 23.509 32.7467 24.3708C32.8169 25.2325 33.1725 26.0462 33.7573 26.6831C34.342 27.32 35.1224 27.7437 35.975 27.8871C36.8276 28.0306 37.7037 27.8856 38.4647 27.4751C39.2256 27.0646 39.8279 26.412 40.1763 25.6207C40.5246 24.8294 40.5991 23.9445 40.3879 23.1061C40.1768 22.2677 39.6921 21.5236 39.0104 20.9917C38.3288 20.4597 37.4893 20.1703 36.6247 20.1692C35.979 20.1688 35.3433 20.3291 34.775 20.6356C34.2068 20.9422 33.7237 21.3854 33.3695 21.9253Z" fill="#0033AD"/>
<path d="M40.1263 38.1759C39.8149 37.5585 39.3445 37.0354 38.7635 36.6605C38.1826 36.2856 37.5121 36.0725 36.8213 36.0432C36.1305 36.0139 35.4444 36.1695 34.8337 36.4938C34.2231 36.8182 33.7101 37.2996 33.3476 37.8883C32.9851 38.4771 32.7862 39.152 32.7716 39.8432C32.7569 40.5345 32.927 41.2172 33.2642 41.8208C33.6014 42.4244 34.0936 42.9271 34.6899 43.2771C35.2862 43.627 35.9651 43.8115 36.6566 43.8115C37.2648 43.8073 37.8638 43.6619 38.4063 43.3868C39.3239 42.9223 40.0201 42.1132 40.3424 41.1366C40.6648 40.1599 40.5871 39.0954 40.1263 38.1759Z" fill="#0033AD"/>
<path d="M46.917 37.9041C46.5392 37.6561 46.0964 37.5257 45.6445 37.5294C45.1926 37.5331 44.752 37.6707 44.3783 37.9248C44.0047 38.1789 43.7147 38.5381 43.5452 38.957C43.3757 39.3759 43.3341 39.8356 43.4259 40.2781C43.5177 40.7206 43.7386 41.1259 44.0607 41.4428C44.3828 41.7598 44.7917 41.974 45.2356 42.0586C45.6795 42.1432 46.1385 42.0942 46.5546 41.9179C46.9707 41.7415 47.3251 41.4458 47.5731 41.068C47.9046 40.5611 48.0216 39.9436 47.8986 39.3505C47.7756 38.7575 47.4227 38.2374 46.917 37.9041Z" fill="#0033AD"/>
<path d="M54.3575 32.0668C54.3791 31.6836 54.2867 31.3027 54.0918 30.972C53.897 30.6414 53.6085 30.376 53.2628 30.2093C52.9171 30.0426 52.5298 29.9821 52.1497 30.0355C51.7697 30.0889 51.414 30.2538 51.1277 30.5093C50.8413 30.7648 50.6371 31.0994 50.5409 31.4709C50.4447 31.8425 50.4608 32.2342 50.5872 32.5965C50.7136 32.9589 50.9445 33.2757 51.2509 33.5068C51.5572 33.7379 51.9252 33.8731 52.3084 33.8951C52.8225 33.9241 53.3271 33.7478 53.7113 33.405C54.0955 33.0622 54.3279 32.5809 54.3575 32.0668Z" fill="#0033AD"/>
<path d="M59.734 30.6844C59.4858 30.6702 59.2389 30.7298 59.0246 30.8558C58.8103 30.9818 58.6381 31.1686 58.53 31.3924C58.4218 31.6163 58.3824 31.8672 58.4168 32.1135C58.4512 32.3597 58.5579 32.5902 58.7233 32.7758C58.8887 32.9614 59.1055 33.0938 59.3461 33.1562C59.5868 33.2187 59.8406 33.2083 60.0754 33.1265C60.3102 33.0447 60.5154 32.8951 60.6652 32.6967C60.815 32.4982 60.9025 32.2598 60.9168 32.0116C60.9353 31.6789 60.8213 31.3524 60.5996 31.1037C60.3779 30.8549 60.0667 30.7042 59.734 30.6844Z" fill="#0033AD"/>
<path d="M54.6718 43.149C54.4073 42.9758 54.0973 42.8848 53.7812 42.8877C53.465 42.8906 53.1568 42.9871 52.8955 43.1651C52.6341 43.3431 52.4315 43.5946 52.3131 43.8878C52.1947 44.181 52.1659 44.5027 52.2303 44.8123C52.2947 45.1218 52.4494 45.4053 52.6749 45.627C52.9004 45.8486 53.1866 45.9984 53.4972 46.0574C53.8078 46.1164 54.129 46.082 54.4201 45.9586C54.7112 45.8351 54.9591 45.6281 55.1326 45.3637C55.2478 45.1881 55.3273 44.9914 55.3665 44.785C55.4057 44.5787 55.4039 44.3666 55.3611 44.1609C55.3183 43.9552 55.2354 43.76 55.1171 43.5863C54.9988 43.4127 54.8475 43.2641 54.6718 43.149Z" fill="#0033AD"/>
<path d="M18.9981 54.8852C18.7903 54.7488 18.5466 54.6771 18.298 54.6792C18.0495 54.6812 17.8071 54.757 17.6015 54.8968C17.3959 55.0366 17.2364 55.2342 17.1432 55.4646C17.0499 55.6951 17.0271 55.948 17.0775 56.1914C17.128 56.4348 17.2495 56.6578 17.4267 56.8322C17.6039 57.0065 17.8288 57.1245 18.073 57.171C18.3172 57.2176 18.5697 57.1907 18.7986 57.0938C19.0276 56.9968 19.2226 56.8342 19.3591 56.6264C19.4498 56.4884 19.5123 56.3339 19.5433 56.1717C19.5742 56.0094 19.5729 55.8427 19.5393 55.681C19.5058 55.5193 19.4408 55.3658 19.3479 55.2293C19.255 55.0927 19.1362 54.9758 18.9981 54.8852Z" fill="#0033AD"/>
<path d="M45.3457 54.7536C45.1236 54.8655 44.9398 55.0407 44.8173 55.2571C44.6949 55.4735 44.6394 55.7214 44.6578 55.9694C44.6763 56.2173 44.7678 56.4542 44.921 56.6502C45.0741 56.8461 45.2818 56.9922 45.518 57.07C45.7541 57.1478 46.0081 57.1539 46.2476 57.0874C46.4872 57.0209 46.7017 56.8848 46.864 56.6964C47.0262 56.508 47.129 56.2757 47.1592 56.0289C47.1894 55.7821 47.1458 55.5319 47.0338 55.3099C46.9597 55.1623 46.8571 55.0309 46.7321 54.923C46.6071 54.8152 46.462 54.733 46.3052 54.6814C46.1484 54.6297 45.9829 54.6094 45.8182 54.6218C45.6536 54.6342 45.493 54.679 45.3457 54.7536Z" fill="#0033AD"/>
<path d="M30.7449 42.0682C31.2189 41.3449 31.438 40.4843 31.3677 39.6224C31.2974 38.7606 30.9417 37.9469 30.3568 37.31C29.7719 36.6731 28.9913 36.2495 28.1386 36.1062C27.2859 35.9629 26.4097 36.1081 25.6488 36.5189C24.8879 36.9296 24.2857 37.5824 23.9376 38.374C23.5895 39.1655 23.5153 40.0505 23.7269 40.8889C23.9384 41.7273 24.4235 42.4713 25.1054 43.0029C25.7874 43.5346 26.6271 43.8236 27.4918 43.8242C28.1376 43.8265 28.7736 43.6669 29.3418 43.3601C29.9101 43.0534 30.3924 42.6092 30.7449 42.0682Z" fill="#0033AD"/>
<path d="M22.9795 48.0329C22.6584 47.8228 22.2821 47.7126 21.8984 47.7163C21.5146 47.72 21.1406 47.8374 20.8235 48.0536C20.5065 48.2698 20.2606 48.5752 20.1171 48.9311C19.9735 49.2871 19.9387 49.6775 20.0171 50.0532C20.0954 50.4289 20.2834 50.773 20.5572 51.0418C20.8311 51.3107 21.1785 51.4924 21.5555 51.5639C21.9326 51.6354 22.3224 51.5935 22.6756 51.4435C23.0289 51.2935 23.3297 51.0421 23.5401 50.7212C23.822 50.2902 23.9212 49.7651 23.8161 49.261C23.711 48.757 23.4101 48.3152 22.9795 48.0329Z" fill="#0033AD"/>
<path d="M32.0402 55.4713C31.7245 55.4533 31.4106 55.5294 31.1381 55.6898C30.8657 55.8502 30.6469 56.0879 30.5094 56.3726C30.372 56.6574 30.3221 56.9765 30.366 57.2897C30.4099 57.6028 30.5456 57.8959 30.7561 58.1319C30.9666 58.3679 31.2423 58.5361 31.5483 58.6155C31.8544 58.6948 32.1772 58.6816 32.4758 58.5775C32.7743 58.4734 33.0353 58.2831 33.2258 58.0307C33.4163 57.7783 33.5276 57.4751 33.5457 57.1594C33.5578 56.9497 33.5284 56.7397 33.4593 56.5413C33.3901 56.343 33.2826 56.1602 33.1427 56.0034C33.0029 55.8466 32.8336 55.7189 32.6444 55.6276C32.4553 55.5363 32.2499 55.4832 32.0402 55.4713Z" fill="#0033AD"/>
<path d="M32.0572 45.4104C31.6058 45.383 31.1563 45.4902 30.7658 45.7184C30.3753 45.9466 30.0614 46.2855 29.8636 46.6923C29.6659 47.0991 29.5934 47.5554 29.6553 48.0034C29.7171 48.4515 29.9105 48.8711 30.211 49.2091C30.5115 49.5471 30.9056 49.7884 31.3433 49.9022C31.781 50.0161 32.2426 49.9976 32.6698 49.8489C33.0969 49.7002 33.4703 49.428 33.7427 49.067C34.015 48.7059 34.1741 48.2721 34.1998 47.8205C34.2346 47.217 34.0285 46.6243 33.6269 46.1724C33.2252 45.7206 32.6607 45.4466 32.0572 45.4104Z" fill="#0033AD"/>
<path d="M41.4024 47.8779C41.0596 48.0518 40.776 48.3236 40.5877 48.6588C40.3994 48.994 40.3147 49.3775 40.3445 49.7609C40.3742 50.1442 40.517 50.5101 40.7548 50.8122C40.9926 51.1143 41.3147 51.3391 41.6803 51.4581C42.0459 51.5771 42.4385 51.5849 42.8086 51.4806C43.1787 51.3764 43.5095 51.1646 43.7591 50.8722C44.0088 50.5798 44.1661 50.22 44.2111 49.8381C44.2562 49.4563 44.1869 49.0697 44.0121 48.7273C43.8967 48.4999 43.7377 48.2976 43.544 48.1319C43.3503 47.9661 43.1258 47.8402 42.8834 47.7613C42.641 47.6824 42.3855 47.6521 42.1313 47.6721C41.8772 47.6921 41.6295 47.762 41.4024 47.8779Z" fill="#0033AD"/>
</svg>
