<svg width="64" height="64" viewBox="0 0 64 64" fill="none" xmlns="http://www.w3.org/2000/svg">
<path d="M32 58.6663C46.7276 58.6663 58.6667 46.7273 58.6667 31.9997C58.6667 17.2721 46.7276 5.33301 32 5.33301C17.2724 5.33301 5.33334 17.2721 5.33334 31.9997C5.33334 46.7273 17.2724 58.6663 32 58.6663Z" fill="#988430"/>
<path d="M32 57.8125C46.2558 57.8125 57.8125 46.2558 57.8125 32C57.8125 17.7441 46.2558 6.1875 32 6.1875C17.7441 6.1875 6.1875 17.7441 6.1875 32C6.1875 46.2558 17.7441 57.8125 32 57.8125Z" fill="#7A6A2A"/>
<path d="M32.0001 57.2677C45.9555 57.2677 57.2687 45.9546 57.2687 31.9991C57.2687 18.0436 45.9555 6.73047 32.0001 6.73047C18.0446 6.73047 6.73145 18.0436 6.73145 31.9991C6.73145 45.9546 18.0446 57.2677 32.0001 57.2677Z" fill="#BA9F33"/>
<path fill-rule="evenodd" clip-rule="evenodd" d="M16.9925 29.1524C16.8415 29.0144 16.6819 28.8762 16.5351 28.7382C16.3884 28.6003 16.2376 28.462 16.0866 28.3241L15.6377 27.8974C15.5643 27.824 15.4867 27.7594 15.4133 27.6858C15.3399 27.6212 15.2537 27.5478 15.1803 27.483C14.5847 26.9178 13.9857 26.3526 13.3983 25.7871C14.0067 26.3438 14.6023 26.8964 15.2108 27.4613L15.4221 27.673C15.4955 27.7461 15.5732 27.8109 15.6465 27.8843L16.0951 28.2985C16.2461 28.4364 16.3929 28.5747 16.544 28.7251C16.695 28.8756 16.8418 29.0141 16.9928 29.1518L16.9925 29.1524ZM9.08753 29.067C9.08753 29.067 11.2536 29.2912 12.3109 29.4422C13.2902 29.5805 16.354 30.0506 16.354 30.0506L9.08753 29.067ZM9.08753 29.067C9.69596 29.1188 10.3044 29.1834 10.9128 29.2482C11.2234 29.2784 11.5212 29.3128 11.8191 29.3429L12.2762 29.395C12.4272 29.4163 12.574 29.438 12.725 29.4596L14.5375 29.7486L15.4434 29.8996C15.7413 29.9514 16.0391 30.0077 16.3497 30.0595C16.0519 30.0293 15.7413 29.9861 15.4434 29.9428L14.5375 29.8134L12.725 29.546C12.574 29.5244 12.4272 29.494 12.2762 29.4727L11.8188 29.42C11.521 29.3899 11.2103 29.3466 10.9125 29.3119C10.3041 29.2388 9.69568 29.1609 9.08725 29.0662L9.08753 29.067ZM16.1383 30.615C16.1383 30.615 13.8255 31.2021 13.0444 31.4265C12.2764 31.6378 9.95054 32.3455 9.95054 32.3455L16.1381 30.6153L16.1383 30.615Z" fill="#CFB66C"/>
<path fill-rule="evenodd" clip-rule="evenodd" d="M16.1383 30.6143C15.6249 30.7653 15.1143 30.9121 14.5935 31.0503L13.0486 31.4645C12.5352 31.6155 12.0246 31.7623 11.5126 31.9134L10.7446 32.1247C10.4901 32.1981 10.2312 32.2627 9.96811 32.3364C10.2224 32.251 10.4815 32.1637 10.7361 32.0903L11.5041 31.8445C12.0175 31.6847 12.5281 31.5336 13.0401 31.374C13.5621 31.2446 14.0758 31.1064 14.5977 30.9812C15.0938 30.856 15.616 30.7312 16.1383 30.6145V30.6143ZM10.2745 33.7689C10.5287 33.6739 13.4631 32.3062 14.1449 31.9868C14.4862 31.8269 15.4784 31.4747 15.4784 31.4747L10.2745 33.7689Z" fill="#CFB66C"/>
<path fill-rule="evenodd" clip-rule="evenodd" d="M10.2744 33.7686C10.4985 33.6833 10.7102 33.5789 10.9258 33.4796L11.5643 33.1818L12.8461 32.5648C13.2727 32.362 13.6874 32.1382 14.1275 31.9476C14.3519 31.8529 14.5763 31.7752 14.8005 31.7018L15.1418 31.594C15.2581 31.5639 15.3662 31.5292 15.4831 31.499C15.0565 31.7018 14.6073 31.8745 14.1801 32.0727C13.7534 32.2844 13.3171 32.457 12.8768 32.6468L11.5737 33.2205C11.1363 33.3977 10.7096 33.5874 10.2741 33.7686H10.2744ZM10.5588 34.9633C10.5588 34.9633 13.2167 33.4057 14.1315 32.905C14.6105 32.6377 16.1595 31.8694 16.1595 31.8694L10.5588 34.9633Z" fill="#CFB66C"/>
<path fill-rule="evenodd" clip-rule="evenodd" d="M10.5589 34.9638C11.0075 34.6876 11.4649 34.4071 11.9223 34.1224L12.6049 33.7079C12.8379 33.57 13.0623 33.4406 13.2998 33.3026C13.5328 33.1644 13.7572 33.0264 13.9944 32.897C14.1074 32.8273 14.2257 32.7667 14.3483 32.7158L14.7107 32.5346C15.1897 32.3016 15.6687 32.0641 16.1735 31.8613C15.7162 32.1506 15.2457 32.3967 14.7755 32.6509C14.5426 32.7804 14.305 32.897 14.0721 33.0264C13.8391 33.1558 13.6147 33.2941 13.3772 33.4192C13.1442 33.5572 12.9198 33.6866 12.6826 33.8118L11.9792 34.1958L10.5595 34.9638H10.5589ZM16.138 32.2106C16.138 32.2106 14.4854 33.4792 13.9503 33.8849C13.4153 34.2905 11.8403 35.4297 11.8403 35.4297L16.138 32.2106Z" fill="#CFB66C"/>
<path fill-rule="evenodd" clip-rule="evenodd" d="M25.6224 42.4424L24.7767 40.8415L25.2685 38.8393L28.7766 37.4845L27.2835 34.4211L28.0214 31.3271L29.4066 28.5567L33.6873 27.8837L36.8327 24.8848L43.6247 25.3982L44.9579 32.6603L42.3905 41.8038L40.9278 46.5375L34.9989 46.762L32.246 44.8548L29.0226 43.5082L25.6224 42.4424Z" fill="#E2CC85"/>
<path fill-rule="evenodd" clip-rule="evenodd" d="M36.0216 42.3904C36.0216 42.3904 35.2015 42.7659 33.8029 42.6794C33.3982 42.1358 30.5634 41.8813 30.5634 41.8813C30.5634 41.8813 30.2096 41.7735 29.5838 42.0323C28.954 42.2883 28.3584 42.2567 27.8018 42.3947C27.2451 42.5326 26.6924 41.8079 26.2658 41.6568C25.8391 41.4973 25.2733 41.1133 25.2733 41.1133L24.0787 40.9966L21.6797 39.9826L17.8685 36.1855L16.8328 37.8069L16.5134 39.8133L17.6656 42.191L20.7681 45.0173L26.8176 46.5533L30.4033 45.4968L34.8952 43.5982L36.0216 42.3901V42.3904Z" fill="#F1D789"/>
<path fill-rule="evenodd" clip-rule="evenodd" d="M14.5286 28.971L15.2966 26.6454L16.2117 25.1435L19.1586 24.8975L18.274 27.4779L15.8103 31.8621L16.8329 35.7758L15.0207 36.6817L14.4638 35.8275L14.0152 33.8686L13.985 31.6678L14.5286 28.971Z" fill="#F4ECB4"/>
<path fill-rule="evenodd" clip-rule="evenodd" d="M17.8338 42.2306L17.2686 41.4409C17.2686 41.4409 17.1176 41.0655 17.2041 40.7375C17.2894 40.4053 17.2772 40.3837 17.2342 40.2585C17.1913 40.1333 16.8286 39.7018 16.8502 39.3306C16.8716 38.9552 16.8201 38.83 17.096 38.5325C17.385 38.2435 17.2988 37.7429 17.2988 37.7429L17.6743 37.9758L17.7596 37.8464C17.7596 37.8464 17.8975 37.9542 17.8975 38.1226C17.9277 37.8896 17.8025 36.8107 18.0873 36.565C18.372 36.3192 18.8769 37.717 18.8769 37.717L18.5663 35.6889L17.7678 33.6093L16.3482 31.7107L16.2628 29.6177V29.4365C16.2628 29.4365 15.6112 30.4378 15.43 31.2285C15.3006 31.7721 15.6112 32.4323 15.5466 33.2134C15.4946 33.9902 15.43 33.9296 15.6197 34.2374C15.8094 34.5451 16.2714 35.178 16.0902 35.6354C15.9306 36.0282 15.3868 35.752 15.3868 35.752C15.3868 35.752 15.279 36.0712 15.1322 36.1878C15.0804 35.9981 15.0244 35.8772 14.9208 35.7611C14.912 35.8345 14.8907 35.9338 14.8907 35.9338C14.8907 35.9338 14.7957 35.636 14.7007 35.2605C14.5715 34.7602 14.4333 34.1 14.3081 33.7461C14.2564 33.949 14.127 34.5659 14.127 34.5659L14.2003 35.5154L14.5542 36.8184L14.8955 37.6718L15.2278 38.716L15.5165 39.4174L15.7494 39.9524L15.9522 41.1565L16.9316 42.1919L17.4538 42.4251L17.8333 42.2308L17.8338 42.2306Z" fill="#F3E19D"/>
<path fill-rule="evenodd" clip-rule="evenodd" d="M15.0419 27.0723C15.0419 27.0723 14.3385 28.267 14.136 29.4713C13.9334 30.6756 13.752 31.9482 13.88 33.5878C14.0094 35.2407 14.2554 36.2545 14.454 36.9795C14.7953 38.1836 15.6794 39.8578 15.6794 39.8578L15.7095 39.7929C15.5609 39.5113 15.4423 39.2148 15.3557 38.9083C15.2391 38.4509 15.1958 37.9074 15.088 37.6613C14.993 37.4156 14.8334 37.2039 14.7558 36.9018C14.6824 36.6128 14.6704 36.1555 14.4452 35.8147C14.3502 35.6765 14.2335 35.3141 14.1991 34.9517C14.1559 34.4078 14.2207 33.7994 14.169 33.2991C14.074 32.4662 14.0094 31.901 14.0956 31.465C14.1818 31.0289 14.6309 29.791 14.9071 28.8071C15.0883 28.1771 14.9802 27.6463 15.3124 27.0982C15.6447 26.5546 15.8478 26.0756 15.9209 25.7434C16.0062 25.4413 15.0408 27.0723 15.0408 27.0723H15.0419Z" fill="#F2E8B0"/>
<path fill-rule="evenodd" clip-rule="evenodd" d="M18.3779 26.5928C18.3779 26.5928 18.0155 26.7009 17.8428 26.8906C17.6701 27.0718 17.5968 27.2228 17.3638 27.5292C17.1308 27.8355 17.1177 28.0858 16.9277 28.4698C16.738 28.8453 16.3193 29.4104 16.2675 29.6132C16.2158 29.816 16.1296 30.7652 16.0218 31.2141C15.9268 31.6629 16.1296 32.2153 16.1296 32.2153L16.3753 32.1632C16.3753 32.1632 16.3753 32.4827 16.6214 32.6986C16.8671 32.9099 16.9104 31.9821 16.9104 31.9821L17.8294 28.8797L19.2144 27.939L19.3655 27.1796L18.3773 26.5928H18.3779Z" fill="#F5EEC0"/>
<path fill-rule="evenodd" clip-rule="evenodd" d="M19.0508 27.9997C19.0508 27.9997 18.3991 28.0427 18.08 28.2759C17.9505 28.3706 17.8988 28.4483 17.7608 28.5649C17.5062 28.7762 17.2471 28.9705 17.1223 29.2476C16.984 29.5235 16.833 29.9422 16.7294 30.7318C16.6862 31.064 16.6862 31.3704 16.6561 31.638C16.6128 32.0004 16.5483 32.2894 16.5827 32.4914C16.6259 32.9055 17.0531 33.1214 17.0947 33.5916L17.9793 33.143L18.8121 29.8591L20.5813 28.7498L19.5801 27.6279L19.0496 27.9977L19.0508 27.9997Z" fill="#E6DB9D"/>
<path fill-rule="evenodd" clip-rule="evenodd" d="M14.3838 50.113C14.3875 50.0806 14.3912 50.0481 14.3949 50.0148C14.524 48.9055 14.5459 48.0647 14.6406 47.5382C14.7786 46.7918 14.8736 46.5142 14.852 46.2349C14.8218 45.7863 14.7874 45.4583 14.8306 45.113C14.8952 44.6556 15.3441 44.1121 15.3313 43.7366C15.3224 43.4388 15.1714 43.2448 15.042 43.0636C14.9126 42.8824 14.809 42.7314 14.809 42.7314C14.809 42.7314 15.6936 42.1229 15.6851 39.6719C15.7032 39.677 15.7206 39.6842 15.7369 39.6935L16.1727 40.9317L16.4705 41.2941L17.6139 43.4257L19.0854 44.8542L21.26 46.3168L22.6236 47.8007L22.7616 51.7576L20.9795 54.0705L20.6877 54.599C18.3691 53.435 16.2429 51.9219 14.3835 50.1127L14.3838 50.113Z" fill="#E5CB7A"/>
<path fill-rule="evenodd" clip-rule="evenodd" d="M19.8275 53.8982C19.8275 53.8982 19.8576 53.4064 20.2633 53.087C20.3281 53.1948 20.3711 53.2986 20.3583 53.376C20.4316 53.2468 20.9451 52.4182 22.1059 52.2024C23.2667 51.991 23.5472 51.1454 23.5472 51.1454L26.0107 48.9059L28.8284 46.3126L32.2546 45.1086L33.8557 44.7158C33.8557 44.7158 33.8858 44.8324 33.8255 45.0912C34.1231 45.0699 34.7833 44.9189 35.4693 44.6771C35.7455 44.5693 36.0047 44.5261 36.1426 44.6686C36.3454 44.8583 36.3756 45.3071 36.3884 45.5745C36.7206 45.5011 37.1046 45.182 37.4124 45.2121C37.9045 45.2639 38.3402 45.8422 38.8408 45.8422C39.501 45.8422 39.7986 45.4366 40.2605 45.1171C40.5367 44.9274 40.9335 44.6905 41.1579 44.5303C41.693 44.1375 47.3543 42.4072 47.3543 42.4072L49.3391 42.5366L49.6585 44.6683L49.4879 50.2405C49.4668 50.2607 49.4458 50.2818 49.4244 50.302L40.3996 55.0155L27.8898 56.9332C25.0875 56.4754 22.3833 55.5452 19.8923 54.1824L19.8283 53.8979L19.8275 53.8982Z" fill="#D8C173"/>
<path fill-rule="evenodd" clip-rule="evenodd" d="M15.1426 50.8212C15.3204 50.4495 15.4802 50.1386 15.5084 50.0273C15.5306 50.2515 15.5712 50.7433 15.6532 51.2661C15.4812 51.1199 15.311 50.9715 15.1426 50.8209V50.8212Z" fill="#F1D789"/>
<path fill-rule="evenodd" clip-rule="evenodd" d="M24.2806 56.0663L25.8986 55.6163L26.0365 55.6595C26.0365 55.6595 26.1099 55.7027 26.1099 55.8492C26.3127 55.7329 26.4854 55.7542 26.6105 55.6769C26.6751 55.8148 26.7397 56.2722 27.0247 56.3282C27.3222 56.3931 27.6417 56.1988 27.9654 55.9531C28.2845 55.6985 28.648 55.379 28.9231 55.2496C29.024 55.4352 29.1134 55.6268 29.1908 55.8233C29.5531 55.5343 30.1832 54.3607 31.0806 54.3821C31.34 53.7691 31.7733 53.2456 32.3271 52.8762C33.1599 52.311 33.6819 52.2678 34.3335 52.3195C34.5924 51.9833 34.9113 51.698 35.2742 51.4781C35.382 51.5214 35.6798 51.7026 36.051 51.5299C36.4265 51.3575 36.8492 50.6885 37.4058 50.6023C37.7058 50.5611 38.0108 50.6251 38.2689 50.7835C38.2689 50.7835 39.8902 49.1738 41.0089 48.6388C40.9657 48.5094 40.8795 48.0218 42.1911 46.9429C42.2645 47.0078 42.2127 47.189 42.2645 47.1989C42.2858 47.1989 42.6058 47.061 43.0109 46.7501C43.5115 46.3749 44.1111 45.9821 44.4735 45.8743C45.1562 45.6715 45.8804 46.0856 45.8804 46.0856C45.9419 46.0424 46.0106 46.0103 46.0832 45.9906C46.2555 45.9605 46.3807 45.9388 46.4757 45.9053C46.4672 46.1297 46.5923 46.5137 46.4757 46.8459C46.6108 46.9219 46.7539 46.9827 46.9024 47.0271C46.8293 47.1867 46.6694 47.5923 46.402 47.7866C46.6262 47.8944 46.6563 48.0196 46.9758 48.1279C46.8463 48.3091 46.6344 48.62 46.54 48.8106C46.445 49.0134 46.1039 49.8548 45.9529 50.174C45.7933 50.4934 45.5777 51.0802 45.4739 51.198C45.3701 51.3157 44.9949 51.8149 44.7059 52.0607C44.9619 51.9657 46.0092 51.6465 46.4535 51.5256C46.3212 51.7196 45.6508 52.7143 45.0063 53.6709C41.9201 55.5207 38.4753 56.6914 34.9011 57.1052C31.327 57.519 27.7057 57.1662 24.2787 56.0705L24.2806 56.0663Z" fill="#E0CD81"/>
<path fill-rule="evenodd" clip-rule="evenodd" d="M19.1572 27.8833C19.1572 27.8833 18.782 27.8833 18.7086 27.9351C18.6352 27.9869 19.0841 28.095 19.222 28.1467C19.36 28.1985 19.6578 28.4357 19.7355 28.6257C19.8088 28.8069 22.4323 29.8639 22.4323 29.8639L24.2878 29.7689L24.9276 28.8852L23.7107 27.8193L24.564 25.3037L23.4336 25.4849L20.7151 27.1062L19.3514 27.6285L19.1572 27.8833Z" fill="#DFC57C"/>
<path fill-rule="evenodd" clip-rule="evenodd" d="M23.2319 28.7157C23.2588 28.7591 23.2965 28.7947 23.3415 28.8189C23.3864 28.8432 23.4369 28.8551 23.4879 28.8537C23.8719 28.8537 24.2255 28.9487 24.3723 29.1426C24.6183 29.4535 25.3001 30.446 25.3001 30.446L26.9311 31.0328L27.0364 29.1122L25.2543 27.874L23.2263 28.6204V28.7154H23.2308L23.2319 28.7157Z" fill="#E5CC7C"/>
<path fill-rule="evenodd" clip-rule="evenodd" d="M22.9119 29.4281C22.9119 29.4281 23.2095 29.4497 23.5849 29.3115C23.9604 29.1733 24.5773 28.8757 24.845 28.9923C25.2202 29.1519 25.1425 29.6525 25.5484 30.1017C25.7942 30.3779 26.2431 30.3693 26.4976 30.6672C26.7522 30.965 27.628 30.8267 27.628 30.8267L27.9602 32.6187L26.6271 34.3277L26.191 36.4505H24.3882L22.7413 35.7971L21.93 33.8344L22.3356 31.8496L22.9119 29.4281Z" fill="#D2C281"/>
<path fill-rule="evenodd" clip-rule="evenodd" d="M26.3995 29.5137C26.4442 29.5274 26.4906 29.5347 26.5374 29.5353C26.4856 29.5785 26.3775 29.6732 26.4208 29.9193C26.464 30.1653 26.602 30.4759 26.4856 30.6656C26.5785 30.7672 26.6478 30.888 26.6884 31.0195C26.7618 31.2311 26.7835 31.4251 27.2622 31.4555C27.1931 31.498 27.1294 31.5488 27.0724 31.6066C27.0724 31.6066 27.4047 31.8955 27.5731 32.1629C27.7454 32.1555 28.2028 32.0133 28.2028 32.0133L28.2978 32.0782L28.5006 31.9928C28.5006 31.9928 28.3109 31.9194 28.4489 31.4578C28.5783 31.0522 28.6949 31.0738 28.7049 31.0437C28.7148 31.0135 28.7999 30.5863 28.7999 30.4136C28.8644 30.1895 28.9162 29.5077 28.9162 29.5077L28.7783 28.0019L28.0017 27.5314L27.3703 26.9219L26.7746 28.0437L26.3824 28.4348L26.3522 29.4056L26.3995 29.5137Z" fill="#E2C270"/>
<path fill-rule="evenodd" clip-rule="evenodd" d="M28.2676 28.2547C28.2676 28.2547 28.4055 28.6472 28.4576 28.9493C28.4759 28.8906 28.4861 28.8296 28.4877 28.7681C28.4877 28.7681 28.5955 29.3637 28.6169 29.6098C28.6601 29.601 28.7022 29.5882 28.7119 29.6311C28.7216 29.6741 28.82 30.1534 28.7972 30.4207C28.9769 30.1243 29.2255 29.8757 29.522 29.696C29.6946 29.5879 29.8974 29.4715 30.1091 29.4627C30.4413 29.4542 30.6828 29.6744 31.0799 29.6744C32.0376 29.6744 32.9052 28.9709 33.5437 28.7553C34.0139 28.5955 34.4195 28.4791 34.7043 28.22C34.8425 28.1037 35.0886 27.8448 35.3127 27.4605C35.6105 26.9485 35.9211 26.5028 36.232 26.4468C36.0914 26.4726 35.9483 26.4827 35.8054 26.4769C35.8054 26.4769 35.9004 26.3819 36.0614 26.2525C36.2224 26.1231 36.4152 25.9635 36.6911 25.9635C37.1832 25.9635 37.429 26.0366 37.7052 26.0366C37.9814 26.0281 38.1409 25.9635 38.1409 25.9635C38.1409 25.9635 38.4302 26.1663 39.0816 26.1663C39.7332 26.1748 40.169 26.2309 40.5101 26.2613C40.8511 26.2917 41.9943 26.1663 42.3223 26.176C42.5361 26.1842 42.746 26.2356 42.9395 26.327L41.8822 23.255L38.0843 19.9355L35.8233 21.5364L32.3451 25.0143L28.9795 26.2613L28.2761 27.0509V28.2547H28.2676Z" fill="#CCB360"/>
<path fill-rule="evenodd" clip-rule="evenodd" d="M35.8189 26.494C35.8189 26.494 35.9139 26.3992 36.0732 26.2698C36.2325 26.1404 36.4274 25.9805 36.7033 25.9805C37.1951 25.9805 37.4412 26.0539 37.7174 26.0539C37.9936 26.0454 38.1531 25.9805 38.1531 25.9805C38.1531 25.9805 38.4427 26.1831 39.0938 26.1831C39.7455 26.1916 40.1812 26.2476 40.5223 26.2778C40.8634 26.3079 42.0066 26.1831 42.3345 26.1925C42.5483 26.2005 42.7582 26.2519 42.9515 26.3435L42.4725 24.9582L41.9161 23.9013L40.328 22.1622L38.4077 21.0318C38.3992 21.0232 37.7475 20.8506 37.7475 20.8506L36.0215 21.8948L34.4553 25.9467L34.4251 26.8L35.4389 27.279C35.6935 26.8524 35.9742 26.511 36.2374 26.4678C35.9998 26.4937 35.8187 26.4937 35.8187 26.4937L35.8189 26.494Z" fill="#D5B457"/>
<path fill-rule="evenodd" clip-rule="evenodd" d="M35.7972 26.7835C35.6462 26.792 35.5213 26.7619 35.4866 26.6541C35.3572 26.2917 35.2536 26.2399 35.1453 26.2399C35.0369 26.2399 34.8907 26.4729 34.804 26.4942C34.7172 26.5155 34.6142 26.2268 34.6142 26.2268L34.5192 26.1836C34.5192 26.1836 33.9626 26.546 33.5701 26.9732C33.1775 27.4004 32.5344 28.1255 32.2454 28.2546C31.9565 28.3838 30.9638 28.4273 30.6242 28.5007C30.2845 28.5741 29.9079 28.8201 29.8562 28.8761C29.8044 28.9322 30.0075 28.9925 30.0376 29.0485C30.0678 29.1003 29.7051 29.0787 29.675 29.1338C29.6537 29.1771 29.7603 29.4228 29.8132 29.548C29.9058 29.502 30.0074 29.4769 30.1108 29.4746C30.443 29.4661 30.6847 29.6862 31.0815 29.6862C32.0395 29.6862 32.9068 28.9828 33.5453 28.7669C34.0158 28.6073 34.4214 28.4907 34.7061 28.2319C34.8441 28.1155 35.0901 27.8564 35.3145 27.4724C35.4784 27.2093 35.6382 26.9633 35.7981 26.7821L35.7972 26.7835Z" fill="#D2B257"/>
<path fill-rule="evenodd" clip-rule="evenodd" d="M22.0586 48.1376C22.0586 48.1376 21.9732 47.8181 21.1825 46.9941C20.958 46.7611 20.8201 46.5674 20.669 46.4289C20.2936 46.0747 20.0734 45.98 19.806 45.7772C19.2192 45.3414 18.5806 45.3414 18.0888 44.8064C17.597 44.2713 17.0239 43.249 16.6256 42.2043C16.2331 41.16 16.125 40.8278 16.125 40.7977C16.125 40.7675 16.2331 40.5647 16.371 40.5948C16.509 40.625 16.509 40.8924 16.5437 40.9572C16.6124 41.0631 16.6904 41.1626 16.7767 41.2548C16.9795 41.488 17.2685 41.7668 17.4152 42.1826C17.3851 41.8288 17.2642 41.4362 17.2642 41.4362C17.2642 41.4362 18.0237 41.9153 18.6708 42.4156C19.3225 42.9162 19.5898 43.0889 19.7801 43.408C19.9704 43.7272 20.4187 44.5689 20.6335 44.8149C20.8482 45.061 23.7908 45.9886 23.7908 45.9886L25.1906 47.0322L25.8855 48.5554L25.3416 49.4088L24.2974 49.6332L22.6016 48.8737L22.0586 48.1373V48.1376Z" fill="#D2B159"/>
<path fill-rule="evenodd" clip-rule="evenodd" d="M18.291 42.891C18.291 42.891 18.6449 43.4562 19.5079 43.9912C20.2847 44.4617 21.5143 44.8889 22.6106 45.1435C23.2403 45.2946 23.8704 45.4109 24.4355 45.4197C25.9587 45.4411 27.0072 45.0056 28.3062 44.8631C29.0097 44.7897 29.8727 44.7336 30.7701 44.5217C31.9221 44.2455 32.6039 43.9346 33.5317 43.4977C34.2047 43.1871 34.822 42.9542 35.3223 42.6563C36.0257 42.2422 36.5391 41.7805 37.1348 41.6426C37.0614 41.8454 36.9837 42.2078 36.3969 42.5832C36.7075 42.5744 37.1348 42.5531 37.1348 42.5531C37.1348 42.5531 36.7206 42.7988 35.9913 43.3512C35.5424 43.6926 34.9471 44.2703 34.3387 44.6543C33.9459 44.9003 33.5186 45.0809 33.2382 45.2283C32.5555 45.6038 32.2802 45.7935 31.8316 46.2523C31.9912 46.2438 32.0043 46.2523 32.0043 46.2523C32.0043 46.2523 31.4388 46.3257 31.0335 46.5413C30.9481 46.5413 30.8002 46.5111 30.5414 46.5845C30.3386 46.6491 30.0709 46.7961 29.795 46.8735C29.4022 46.9901 29.2731 46.9384 29.2731 46.9384L29.3376 47.0678C29.3376 47.0678 28.8256 47.059 28.655 47.0763C28.6851 47.0849 28.6766 47.0979 28.6766 47.0979C28.6466 47.103 28.6177 47.1132 28.5912 47.1281C28.5091 47.1813 28.4188 47.2206 28.3239 47.2444C28.2721 47.253 28.2289 47.253 28.164 47.266C28.1856 47.3178 28.354 47.6074 28.4317 47.778C28.3671 47.8213 27.396 48.5549 27.396 48.5549C27.4261 48.6023 27.4508 48.6529 27.4694 48.7059C27.4996 48.8006 27.5126 48.9389 27.5428 49.0034C27.6159 49.1329 27.6591 49.1545 27.6591 49.1545C27.6591 49.1545 27.5428 49.1761 27.3397 49.2279C27.1673 49.2711 26.9557 49.3442 26.657 49.3874C26.5654 49.3994 26.4732 49.4066 26.3808 49.4091C26.4241 49.5041 26.6138 49.8664 26.2642 50.2849C25.9146 50.7033 25.8068 50.7641 25.699 51.0315C25.6448 50.9905 25.587 50.9543 25.5264 50.9234C25.41 50.8717 25.2502 50.7943 25.1941 50.6905C25.1615 50.8288 25.1182 50.9644 25.0647 51.0961C24.9569 51.3851 24.7974 51.6701 24.7672 51.8857C24.6506 51.7563 24.435 51.5017 24.1372 51.5535C23.8394 51.6052 23.6021 52.0109 23.5504 52.1275C23.5504 52.0541 23.4986 51.9981 23.4858 52.0842C23.477 52.1793 23.3131 53.1714 22.3984 53.9741C22.3898 53.7713 22.3898 53.3224 22.3682 53.1759C22.2829 53.2613 22.1785 53.3873 21.557 53.655C20.9486 53.9223 21.045 54.19 21.045 54.19C21.045 54.19 20.9932 53.7633 21.3212 53.3139C21.6534 52.8653 21.8562 52.6537 21.8562 52.6193C21.8509 52.5842 21.8359 52.5514 21.813 52.5243C21.7697 52.4811 21.6836 52.4293 21.6836 52.3949C21.7353 52.3735 22.2487 52.1275 22.2186 51.618C22.1884 51.1609 21.9945 50.9234 21.8562 50.7553C21.8349 50.7337 22.0593 50.5741 22.0289 50.5224C22.0073 50.4922 21.7313 50.2891 21.6966 50.181C21.7048 50.1165 21.7193 50.053 21.7399 49.9913C21.77 49.8963 21.7916 49.8314 21.7831 49.7669C21.7615 49.6591 21.6449 49.3613 21.6105 49.3311C21.6406 49.3396 21.8562 49.3311 21.8562 49.3311C21.8562 49.3311 21.6838 49.0549 21.6534 48.9255C21.623 48.7961 21.5584 48.455 21.524 48.3905C21.5974 48.399 21.7786 48.4118 21.7786 48.3905C21.7874 48.3256 21.619 48.2178 21.6932 48.1345C21.745 48.143 21.8443 48.1862 21.939 48.3071C21.8872 48.1689 21.801 47.9015 21.6196 47.7937C21.7049 47.7635 21.995 47.6856 22.2496 47.8366C22.5042 47.9877 22.5909 48.199 22.5909 48.199C22.5909 48.199 22.742 48.3156 22.9752 48.4883C23.2426 48.6996 23.5834 49.0003 24.1272 49.2131C24.2438 49.2779 24.5414 49.2779 24.7572 49.2347C24.8512 49.2123 24.9414 49.1759 25.0246 49.1269C25.0547 49.1092 25.0865 49.0947 25.1196 49.0836C25.0732 48.9905 25.0199 48.9011 24.9601 48.816C25.0334 48.816 25.1196 48.8248 25.1196 48.8248C25.1196 48.8248 25.1714 48.7082 24.9384 48.4835C24.9902 48.4317 25.0551 48.3981 25.0551 48.3108C24.9817 48.3023 24.8522 48.1945 24.8221 48.1512C24.865 48.1211 24.9299 48.0218 25.0033 47.9917C24.9384 47.9399 24.7789 47.724 24.7055 47.7027C24.7756 47.6766 24.8434 47.6449 24.9083 47.6077C24.9083 47.6077 24.5459 47.5127 24.4293 47.435C24.3127 47.3497 24.1403 47.202 24.0368 47.1588C23.9287 47.1156 23.7389 47.0942 23.6613 47.0078C23.7344 47.0294 23.851 47.0078 23.9375 47.0078C24.0021 47.0078 24.0325 47.0163 24.0538 47.0163C24.0453 46.9862 24.0453 46.9213 24.2137 46.9C24.2947 46.8878 24.3733 46.863 24.4466 46.8266C24.4466 46.8266 24.2868 46.818 24.1053 46.6454C23.9238 46.4727 23.7731 46.3348 23.6695 46.3132C23.5617 46.2915 23.3589 46.3865 23.2338 46.3777C23.0611 46.3564 22.9877 46.2699 22.9877 46.2699C22.9877 46.2699 22.414 46.3217 21.1411 45.5452C20.0406 44.8719 19.5616 44.2765 19.5616 44.2765C19.4586 44.2392 19.3591 44.1929 19.2641 44.1383C18.8499 43.9227 18.2759 43.4738 18.2933 42.8867L18.291 42.891Z" fill="#C2A44D"/>
<path fill-rule="evenodd" clip-rule="evenodd" d="M34.166 16.9925C34.2658 17.0249 34.3545 17.0847 34.422 17.1651C34.6248 17.3981 34.7542 17.8381 34.2926 18.3086C34.4738 18.3732 34.5486 18.3939 34.7067 18.3732C34.5472 18.5632 34.1848 18.9688 34.1632 19.3227C34.1415 19.6117 34.3227 19.6981 34.3227 19.6981C34.3227 19.6981 34.0465 20.0173 34.0337 20.5515C34.1642 20.4044 34.3069 20.2687 34.4604 20.1458C34.7798 19.8913 35.2199 19.6023 35.5177 19.4211C35.5137 19.497 35.5239 19.573 35.5478 19.6452C35.5478 19.6452 36.1042 19.1878 36.5719 19.3909C36.7832 19.4859 36.6882 19.7835 36.6882 19.7835C36.6882 19.7835 36.9775 19.6757 37.1803 19.8785C37.3831 20.0813 37.6698 20.6044 37.8169 20.8072C37.8815 20.9022 38.0499 21.0834 38.2222 21.3638C38.4577 21.7565 38.6544 22.1712 38.8093 22.602C38.8179 22.3776 38.8739 22.0283 39.5128 22.2482C40.1514 22.4726 40.8761 22.9431 41.4846 23.8695C42.093 24.7959 42.2438 25.8418 42.5501 26.2401C42.8607 26.6241 43.1802 27.2626 43.2018 27.5303C43.2234 27.798 43.1068 28.6607 43.7454 30.9951C43.9266 30.2704 44.2028 28.6607 44.2028 28.6607L44.3538 27.241L44.5265 22.8483L39.9394 19.0376L36.3537 16.4355L34.0192 16.66L34.1657 16.9922L34.166 16.9925Z" fill="#CAA13E"/>
<path fill-rule="evenodd" clip-rule="evenodd" d="M42.6885 23.5288C42.6885 23.5288 42.6237 23.1022 41.5451 22.3768C40.4662 21.6606 39.6248 21.6606 38.8482 21.0522C38.2526 20.5732 37.6314 19.4727 37.2269 19.1103C36.8341 18.7522 36.7695 17.7165 36.7695 17.7165L38.0942 16.6072L40.0642 13.7596L41.7297 11.9258L42.5278 13.0351L43.6372 14.3382L44.2541 16.9531L44.4785 20.7805L42.6865 23.5291L42.6885 23.5288Z" fill="#B59544"/>
<path fill-rule="evenodd" clip-rule="evenodd" d="M44.0219 28.117C44.0545 27.5366 43.9828 26.955 43.8102 26.3998C43.5258 25.5152 42.9043 23.9445 42.6156 23.3563C42.4989 22.7046 42.5854 22.6528 42.7106 22.5795C42.8357 22.5061 43.3062 22.2381 43.5639 21.298C43.8216 20.3579 44.6212 20.3272 44.6212 20.3272L45.113 19.9648L45.8597 21.8331L46.5111 23.5204L46.7139 24.8106L46.8649 25.9109L46.5111 28.2368L44.7637 29.816L44.0216 28.117H44.0219Z" fill="#C89D3A"/>
<path fill-rule="evenodd" clip-rule="evenodd" d="M19.6377 54.0407V53.9929C19.674 53.9702 19.7061 53.9413 19.7324 53.9076C19.7626 53.8643 19.7845 53.8126 19.8058 53.7998C19.849 53.7782 20.0518 53.7144 20.1597 53.7349C20.2675 53.7554 20.5525 53.8729 20.7035 53.8643C21.0141 53.8558 21.3765 53.6183 21.9505 53.7264C22.8135 53.886 23.0163 54.4728 23.517 54.805C23.8583 55.0383 24.2116 54.9344 24.2633 54.9344H24.3797C24.4013 54.9344 24.5609 54.7533 24.6473 54.7621C24.82 54.7706 24.8371 54.9131 24.9449 54.9216C25.1994 54.9518 25.6915 54.7922 25.9376 54.8571C26.0105 54.8799 26.0769 54.9201 26.131 54.9741C26.185 55.0282 26.2253 55.0945 26.2482 55.1674C26.3 55.327 26.2567 55.5298 26.1316 55.6464C25.8642 55.8922 25.6096 56.1254 25.5578 56.3291C25.6237 56.3793 25.6869 56.4329 25.7473 56.4895C23.6123 55.9456 21.5581 55.1231 19.6377 54.0433V54.0407Z" fill="#CEB052"/>
<path fill-rule="evenodd" clip-rule="evenodd" d="M42.6146 45.4198C42.6146 45.4198 43.2876 44.5224 43.5208 44.0778C43.7538 43.6196 42.783 37.8169 42.783 37.8169L44.7334 31.4266L44.6813 29.3467C44.6813 29.3467 44.7764 27.4264 45.0008 26.5936C45.2684 27.0726 46.1013 27.6508 46.2825 27.9572C46.3678 27.3701 46.6577 26.1319 46.6147 24.8115C46.7743 25.0573 47.1583 27.53 47.1583 27.53L47.5423 29.1954L48.0429 30.9646L48.5995 32.8331L48.9318 34.1234L49.1215 34.434L49.2813 34.9776L49.4324 35.5647L49.8681 36.9411L50.1241 38.0715L50.327 40.1212C50.3711 40.2781 50.4028 40.4383 50.422 40.6002C50.4305 40.8246 50.3918 40.954 50.3918 40.993C50.3918 41.032 50.4652 41.4848 50.435 41.8259C50.3918 42.1672 50.3918 42.4343 50.1241 42.6792C49.8565 42.9241 49.6884 44.3878 49.6884 44.3878L49.2094 44.0687C49.2094 44.0687 49.3044 43.6326 49.08 43.2358C48.8555 42.839 48.4198 42.7568 48.1737 42.8217C47.928 42.8735 47.4362 42.9508 47.2763 43.0891C47.1253 43.227 46.7544 43.6543 46.4133 43.8485C45.9867 44.1045 45.2915 44.1247 44.9206 44.2109C44.5451 44.2963 44.131 44.5523 43.6949 44.8495C43.353 45.0709 42.992 45.2612 42.6163 45.4184L42.6146 45.4198Z" fill="#CCA847"/>
<path fill-rule="evenodd" clip-rule="evenodd" d="M42.6146 54.8478C42.6146 54.8478 42.643 54.8663 42.6979 54.8965C45.7635 53.4602 48.5103 51.4243 50.7762 48.9089C50.7514 48.0357 50.7193 47.1405 50.684 46.8089C50.6109 46.1054 50.6627 45.3892 50.641 44.975C50.6194 44.5609 50.3865 42.8736 50.2787 42.4378C50.162 42.002 49.9373 41.7861 49.9032 41.7861C49.873 41.795 49.6916 42.6062 49.6916 42.8101C49.6916 43.0141 49.6483 43.505 49.6483 43.6302C49.6182 43.6214 49.6054 43.5449 49.6054 43.5136C49.5621 43.6214 49.5104 43.8114 49.4888 43.833C49.4671 43.8546 49.5189 43.6518 49.4888 43.6086C49.4586 43.5653 49.4034 43.5869 49.4154 43.4791C49.4205 43.4152 49.4306 43.3518 49.4455 43.2894C49.4455 43.2894 49.3161 43.4791 49.2214 43.9624C49.1264 44.4414 49.1264 44.4545 49.092 44.4975C49.0618 44.5495 48.8891 44.7219 48.8803 44.7867C48.8718 44.9031 49.0402 45.0197 49.053 45.0843C49.0615 45.1924 48.902 45.6927 48.8502 45.9376C48.7984 46.1825 48.82 46.6624 48.7648 46.9084C48.7216 47.1328 48.6795 47.2623 48.5319 47.357C48.6397 47.3786 48.7432 47.4087 48.7432 47.4087C48.7432 47.4087 48.8943 48.0473 48.5103 48.5912C48.3723 48.7809 48.3379 48.8674 48.1911 49.04C47.9018 49.3592 47.6774 49.7227 47.6558 49.9591C47.6409 49.8893 47.6308 49.8186 47.6256 49.7474C47.6256 49.7474 47.1771 50.2697 46.9871 50.5675C46.7413 50.9515 46.4003 50.9299 46.3044 51.0249C46.2085 51.1199 46.1878 51.2923 46.2191 51.4305C46.1337 51.4518 45.9733 51.4823 45.8652 51.8145C45.8135 51.9869 45.684 52.1558 45.4812 52.2719C45.2784 52.3879 45.0324 52.4229 44.9072 52.4531C45.015 52.4832 45.0583 52.4832 45.11 52.5176C45.0455 52.6255 44.7476 52.7938 44.4154 53.0097C44.0832 53.2125 43.9233 53.5101 43.8414 53.7044C43.7561 53.8855 43.6301 54.0022 43.4272 54.0238C43.5126 54.0756 43.6389 54.1962 43.7034 54.2351C43.6084 54.2567 43.4474 54.2567 43.1599 54.5028C42.8578 54.7531 42.7543 54.8265 42.616 54.8481L42.6146 54.8478Z" fill="#C39D3C"/>
<path fill-rule="evenodd" clip-rule="evenodd" d="M36.6108 56.8471C36.776 56.7312 36.955 56.6364 37.1436 56.5646C37.8166 56.2972 38.5285 56.2455 38.809 56.1593C39.0766 56.0739 39.288 55.9562 39.6202 55.8916C39.6114 55.9673 39.604 56.0384 39.596 56.1055C38.6166 56.4134 37.6191 56.6611 36.6094 56.8471H36.6108Z" fill="#D2BA6B"/>
<path fill-rule="evenodd" clip-rule="evenodd" d="M49.0236 39.1455C49.0236 39.1455 48.8856 39.8919 48.6396 40.3623C48.3936 40.8328 48.1276 41.4842 48.1276 41.4842C48.1292 41.3374 48.1466 41.1912 48.1794 41.0481C47.8688 41.2293 47.1136 41.6654 46.8994 41.8594C46.6966 42.0405 46.3555 42.36 46.2693 42.511C46.4721 41.9157 46.6835 41.3806 46.7182 41.1346C46.4076 41.359 44.9575 42.5542 44.2026 43.3439L41.8508 45.2468C41.5794 45.3932 41.2999 45.5241 41.0137 45.6388C40.6083 45.8111 40.1293 45.9579 39.7755 46.0962C39.8705 45.8416 40.0212 45.6169 40.2328 45.4013C40.4573 45.1899 41.1303 44.4606 41.2338 44.1213C41.3288 43.7674 41.3504 43.5561 41.2253 43.2583C41.1087 43.2884 40.8413 43.3015 40.6601 43.3533C40.4789 43.405 40.2846 43.599 40.2846 43.599C40.2846 43.599 40.4226 42.8094 40.7204 42.063C40.496 42.0715 40.112 42.1361 40.112 42.1361C40.112 42.1361 40.647 41.2387 41.5626 40.6132C41.2822 40.6729 41.0078 40.758 40.7429 40.8675C40.2078 41.0919 39.621 41.4242 39.1852 41.6053C39.431 41.264 41.157 38.8007 42.1841 36.505C43.2081 34.2138 43.5907 33.627 43.8151 32.3973C43.9315 31.7889 43.9005 30.8898 43.9315 30.0845C43.9616 29.2861 44.0609 28.5698 43.9963 28.0908C44.2637 28.4231 45.265 29.3594 45.2994 31.4524C45.3295 33.545 44.3416 36.3716 43.2929 37.8945C43.5489 37.9679 44.2122 38.0543 44.8938 36.8705C45.5753 35.6866 45.567 35.3561 45.8131 34.864C45.8432 35.1101 45.8344 35.1962 45.8344 35.1962C45.8344 35.1962 46.8271 33.9925 47.2973 32.4778C47.3923 33.1295 47.6728 33.7035 47.2325 34.8987C46.8399 35.9773 46.3265 36.2407 46.3265 36.2407C46.3265 36.2407 46.5811 36.1975 46.9563 35.9731C47.0211 36.1326 47.0083 36.3144 47.1161 36.3787C47.2239 36.443 47.3707 36.5513 47.3923 36.6549C47.5087 36.4822 47.6898 36.2621 47.7462 36.0982C47.7029 36.4395 47.6728 37.932 47.8315 38.6915C48.164 38.6613 48.5048 38.6397 48.7377 38.0398C48.5782 38.6269 48.5782 38.9805 48.686 39.4811C48.8629 39.3605 49.0225 39.1446 49.0225 39.1446L49.0236 39.1455Z" fill="#C0993A"/>
<path fill-rule="evenodd" clip-rule="evenodd" d="M37.8123 15.3613C37.8123 15.3613 37.4801 15.4993 36.9149 15.4993C36.423 15.4993 36.561 15.3096 35.793 15.3096C34.6108 15.3096 30.4812 15.9922 29.7561 15.9826C29.2856 15.974 31.3439 16.1854 31.3439 16.1854L36.6042 16.2588L37.6613 16.1734L38.0541 15.3741L37.8123 15.3613Z" fill="#A88F33"/>
<path fill-rule="evenodd" clip-rule="evenodd" d="M24.1729 25.6434C24.1729 25.6434 23.4996 26.1568 23.2149 26.5496C22.9302 26.9425 22.7791 27.201 22.4554 27.5205C22.5314 27.5234 22.6073 27.5132 22.6798 27.4903C22.6798 27.4903 22.6798 27.5756 22.6281 27.5981C22.6728 27.5931 22.7181 27.5982 22.7606 27.6129C22.8031 27.6277 22.8418 27.6518 22.8738 27.6834C22.7788 27.7352 22.52 27.9943 22.7228 28.3007C22.8738 28.5336 23.1933 28.555 23.1933 28.555C23.1933 28.555 23.1199 28.7666 23.4262 28.745C24.0864 28.7148 24.8243 28.4256 25.165 28.4989C25.5064 28.5843 25.7004 28.6156 25.9418 29.0343C26.1978 29.4484 26.4209 29.5133 26.4209 29.5133C26.4209 29.5133 26.5719 29.129 26.5375 28.5553C26.6613 28.246 26.73 27.9174 26.7403 27.5845L26.5159 25.9318L25.5365 24.6934L24.2679 25.3968L24.1729 25.6426V25.6434Z" fill="#E3C571"/>
<path fill-rule="evenodd" clip-rule="evenodd" d="M25.3763 25.3978C25.3763 25.3978 25.4713 25.6222 25.8684 25.6435C25.8252 25.7385 25.8252 25.7516 25.8382 25.8247C25.8468 25.8981 25.8596 26.0059 25.8596 26.0059C25.9033 25.9848 25.9428 25.9558 25.9762 25.9206C25.9978 26.0156 25.9546 26.1663 25.9762 26.2744C25.9895 26.3402 26.0112 26.4039 26.0408 26.4641C26.0471 26.4494 26.0543 26.435 26.0624 26.4212C26.0709 26.3996 26.1477 26.6542 26.3602 26.8479C26.36 26.8181 26.3674 26.7887 26.3815 26.7625C26.3848 26.8166 26.4027 26.8688 26.4333 26.9136C26.4174 26.906 26.4029 26.8958 26.3904 26.8834C26.3904 26.8834 26.4117 27.5661 26.5283 27.9191C26.5478 27.8963 26.5651 27.8717 26.5801 27.8457C26.5801 27.8244 26.5715 28.0357 26.5499 28.187C26.5198 28.3381 26.5414 28.5494 26.5414 28.5494C26.6192 28.4882 26.7047 28.4374 26.7957 28.3984C26.9251 28.3463 27.137 28.1867 27.2662 27.8329C27.3411 27.6325 27.3988 27.4261 27.4388 27.2159C27.4805 27.2963 27.5093 27.3826 27.5242 27.4719C27.533 27.5797 27.7358 27.5237 27.7358 27.5237L27.779 27.0532L28.035 25.9874L28.268 25.3272L29.3898 23.5799L31.4168 22.0189L33.186 22.4245L34.6788 20.3964L32.1071 18.8516L29.6734 19.1061L27.4647 22.1653L25.6957 24.9401L25.3763 25.3975V25.3978Z" fill="#D8B65B"/>
<path fill-rule="evenodd" clip-rule="evenodd" d="M38.1228 20.9711C38.1228 20.9711 37.9717 21.0013 37.536 21.2271C37.1002 21.453 36.7981 21.5246 36.6297 21.8569C36.4613 22.1891 36.4485 22.4525 36.4485 22.4525C36.4485 22.4525 36.7463 22.3231 36.919 22.2799C37.1002 22.2369 37.303 22.2497 37.2814 22.3231C37.2606 22.3734 37.2318 22.42 37.1961 22.461C37.1961 22.461 37.5374 22.4525 37.5283 22.6209C37.5192 22.7893 37.4637 22.9748 37.3991 23.0567C37.3343 23.142 37.0669 23.2683 37.0368 23.3676C36.9634 23.5704 37.0669 23.5789 37.0279 23.7428C36.9978 23.9026 36.8556 24.2132 36.3894 24.7568C35.9104 25.3007 35.7067 25.6847 35.7067 25.6847C35.7067 25.6847 35.4737 25.2489 35.3528 24.8734C35.2675 24.9164 34.8093 25.171 34.8093 25.171L33.7477 21.4732L33.769 21.2271C33.769 21.2271 33.864 21.1108 33.8857 20.8949C33.7261 20.8431 33.7045 20.7999 33.4928 20.5973C33.2812 20.3948 33.1088 20.1485 32.7553 19.9801C32.7035 19.8851 32.6387 19.756 32.3798 19.7039C32.121 19.6518 31.9657 19.6092 31.9657 19.6092C31.9657 19.6092 32.1036 19.5571 32.1685 19.4493C32.0086 19.4709 31.8795 19.5227 31.5299 19.5142C31.176 19.5054 31.1371 19.4926 30.9431 19.5227C30.7491 19.5529 30.5164 19.6393 30.4296 19.3415C30.3346 19.2681 30.1318 19.333 29.9592 19.5873C29.7865 19.8416 29.7262 20.0447 29.394 20.1439C29.3706 20.2904 29.3193 20.431 29.2429 20.5581C29.1479 20.718 28.9969 20.8775 28.7941 21.1148C28.4746 21.4902 28.5264 22.1072 28.0173 22.5777C27.5038 23.0479 28.1026 21.2743 28.1026 21.2743L28.9224 19.3116L31.2568 17.029L34.8815 16.7832L35.2354 18.6606L37.0046 19.269L38.1222 20.9734L38.1228 20.9711Z" fill="#D3AE4D"/>
<path fill-rule="evenodd" clip-rule="evenodd" d="M38.6968 21.3842L37.1737 19.188L36.1079 18.368C36.1079 18.368 35.3484 16.9703 35.2967 16.927C35.2534 16.8969 34.5372 16.8192 34.0798 16.7891L34.1652 17.0004C34.265 17.0328 34.3537 17.0927 34.4212 17.1731C34.624 17.406 34.7534 17.846 34.2917 18.3165C34.4729 18.3811 34.5477 18.4018 34.7059 18.3811C34.5463 18.5711 34.1839 18.9767 34.1623 19.3305C34.1407 19.6195 34.3219 19.7057 34.3219 19.7057C34.3219 19.7057 34.0457 20.0251 34.0329 20.559C34.1633 20.412 34.3061 20.2763 34.4596 20.1534C34.779 19.8974 35.219 19.6096 35.5168 19.4284C35.5127 19.5044 35.523 19.5805 35.547 19.6528C35.547 19.6528 36.1033 19.1954 36.5709 19.3982C36.7823 19.4932 36.6873 19.7911 36.6873 19.7911C36.6873 19.7911 36.9765 19.6833 37.1793 19.8861C37.3821 20.0889 37.6711 20.6108 37.8179 20.8139C37.8825 20.9089 38.0509 21.0901 38.2232 21.3703C38.4588 21.763 38.6554 22.1778 38.8103 22.6087C38.8188 22.4361 38.8535 22.1946 39.1516 22.1946L38.6985 21.3834L38.6968 21.3842Z" fill="#CAA13E"/>
<path fill-rule="evenodd" clip-rule="evenodd" d="M15.8621 27.6247C15.8621 27.6247 15.7543 27.3571 15.8621 26.8351C15.9699 26.3132 16.1383 26.0671 16.1943 25.2991C16.2503 24.5311 16.7509 23.5731 16.7509 23.5731L18.1359 22.9434L19.1155 23.2107L19.4045 24.5226L18.166 25.2053C18.166 25.2053 18.1015 25.4943 17.7519 25.7272C17.4023 25.9602 16.9191 26.1414 16.8027 26.3789C16.7332 26.5243 16.6824 26.678 16.6517 26.8363C16.6517 26.8363 16.2978 26.7629 16.0865 26.9958C15.8621 27.2333 15.8706 27.4447 15.8621 27.6259V27.6247Z" fill="#F4EFC8"/>
<path fill-rule="evenodd" clip-rule="evenodd" d="M18.6579 27.2743C18.6579 27.2743 18.5413 27.3477 18.4551 27.5303C18.3698 27.3924 18.1658 26.5723 18.1573 25.8345C18.1488 25.0966 18.1047 24.9137 18.2754 24.6594C18.446 24.4052 19.1153 24.1372 19.0203 23.6793C18.9253 23.2435 18.5282 23.0623 18.0407 23.1875C17.6994 23.2728 17.4453 23.9987 17.0915 24.3611C16.8238 24.6373 16.5047 24.594 16.4185 24.7451C16.3019 24.9479 16.4097 25.1507 16.3753 25.2801C16.3664 25.3233 16.2586 25.5563 16.0644 25.8367C15.6718 26.4019 15.0074 27.2004 14.9209 27.9166C14.951 27.511 14.9297 27.5024 15.0375 27.0536L14.9727 26.9458L15.3993 25.5478L15.6755 24.3958L16.2928 22.4667L17.3799 20.4949L18.4372 19.3125L19.5374 19.3859L19.6669 21.0385L20.2969 24.1412L21.6216 25.7722L19.4985 27.2009L18.6571 27.2743H18.6579Z" fill="#EBCC73"/>
<path fill-rule="evenodd" clip-rule="evenodd" d="M19.3181 27.8615C19.3181 27.8615 19.1369 27.9047 19.072 27.8703C19.0072 27.8359 18.9429 27.7969 18.9642 27.7537C18.9856 27.7104 19.1022 27.6373 19.1022 27.6026C19.1046 27.5713 19.0947 27.5402 19.0745 27.5161C19.0544 27.4919 19.0257 27.4765 18.9944 27.4732C18.8951 27.4604 18.865 27.525 18.865 27.525C18.865 27.525 18.77 27.4519 18.6926 27.4396C18.7384 27.434 18.7844 27.4311 18.8305 27.4308C18.7113 27.3768 18.5848 27.3405 18.4551 27.323C18.5629 27.2584 18.7745 27.0684 18.9125 27.0684C19.0504 27.0684 19.1369 27.0471 19.1153 26.9737C19.0937 26.9003 18.9859 26.7925 18.8695 26.7493C18.9125 26.6975 18.9429 26.6199 18.8394 26.4079C18.7313 26.1966 18.7745 26.0541 18.8092 26.0026C18.8394 25.9377 18.9472 25.8214 18.9989 25.748C19.0507 25.6746 19.0939 25.5753 19.1801 25.5236C19.2234 25.4934 19.3613 25.4382 19.4996 25.3856C19.6506 25.3338 19.7758 25.269 19.8619 25.3338C19.9569 25.3984 19.9137 25.4849 19.9137 25.4849C19.9137 25.4849 20.2115 25.3768 20.4789 25.515C20.7466 25.6442 21.3982 25.7264 21.3982 25.7264L21.6318 26.1969L20.0869 27.5216L19.4484 27.841L19.3189 27.8623L19.3181 27.8615Z" fill="#E5C66B"/>
<path fill-rule="evenodd" clip-rule="evenodd" d="M21.4627 25.6955C21.4627 25.6955 20.9837 26.0149 20.8759 26.1312C20.9404 26.1401 21.0482 26.1833 21.005 26.2479C20.9532 26.3124 20.6426 26.5369 20.47 26.7485C20.2888 26.9598 20.1161 27.2275 20.0558 27.3569C19.9913 27.4733 19.4992 27.8143 19.3311 27.8573C19.6849 27.8573 20.3969 27.4215 20.6642 27.4215C20.6557 27.5509 20.7376 27.6977 20.8887 27.7105C21.0397 27.7233 21.4755 27.8055 22.0623 27.4431C22.6491 27.0893 22.4551 26.8259 22.7009 26.6535C23.1713 26.3426 23.3611 26.0664 23.6199 25.894C23.8788 25.7216 24.0127 25.6824 24.0127 25.6824C24.0127 25.6824 24.0213 25.553 24.0981 25.5661C24.1191 25.5685 24.139 25.5766 24.1558 25.5895C24.1725 25.6024 24.1854 25.6197 24.1931 25.6394C24.1931 25.6394 24.6419 25.32 25.2171 25.2338C25.2036 25.2278 25.1929 25.2171 25.1869 25.2037C25.1869 25.2037 25.2299 25.1821 25.2387 25.1604C25.2387 25.1604 25.2688 25.1172 25.2905 25.1388C25.3121 25.1604 25.3422 25.32 25.3855 25.3849C25.4805 25.3416 25.6617 24.936 25.6617 24.936L26.0977 23.689V22.5498L25.7564 22.6147L23.1964 23.7018L21.6427 25.3115L21.4615 25.6955H21.4627Z" fill="#E6BD62"/>
<path fill-rule="evenodd" clip-rule="evenodd" d="M28.8328 20.1074C28.9713 20.0738 29.104 20.0199 29.2268 19.9475C29.175 20.0858 29.175 20.2368 28.9506 20.5648C28.7261 20.8927 28.7176 20.9402 28.5364 21.281C28.3552 21.6349 28.3336 22.144 28.1609 22.3682C28.2383 22.3306 28.3213 22.3059 28.4067 22.2951C28.4067 22.2951 28.2343 22.4461 28.1609 22.6057C28.0876 22.7653 27.9581 23.0975 27.639 23.3006C27.3198 23.5037 26.9139 23.6328 26.4782 24.1118C26.0421 24.582 25.5935 25.1777 25.3688 25.3919C25.4855 25.189 25.645 24.7834 25.6883 24.516C25.7315 24.2487 25.6794 23.9289 25.7528 23.5754C25.8262 23.2218 25.8262 22.9669 26.1795 22.3497C26.5328 21.7324 27.1375 19.588 27.1375 19.588L28.4406 19.1738L28.8334 20.106L28.8328 20.1074Z" fill="#B6933F"/>
<path fill-rule="evenodd" clip-rule="evenodd" d="M27.8921 19.3182C27.8921 19.3182 27.4996 19.8834 27.3917 20.384C27.2839 20.8847 27.3829 20.8414 27.3184 21.0875C27.2797 21.2375 27.2797 21.3948 27.3184 21.5449C27.4543 21.3259 27.6404 21.1424 27.8614 21.0095C28.2326 20.7854 28.5346 20.6255 28.7147 20.4358C28.8959 20.233 29.0469 19.9008 29.4394 19.6462C29.2799 19.6246 29.0555 19.5512 29.0128 19.5609C29.1726 19.3797 29.6514 19.1035 30.1346 18.7712C30.6136 18.4299 30.5835 18.2922 31.3603 17.9515C31.1057 17.9947 30.9848 17.9299 30.7732 17.9515C30.8585 17.7703 31.1572 17.6838 31.4559 17.3863C31.7545 17.0888 31.2661 16.6484 31.2661 16.6484L28.9906 18.0249L27.8904 19.3194L27.8921 19.3182Z" fill="#C49937"/>
<path fill-rule="evenodd" clip-rule="evenodd" d="M21.7175 18.2908L21.7692 17.8766L22.4209 16.8324L23.1027 14.9986V12.4915L23.0509 11.0417L23.1587 10.0922L23.2407 9.79045L23.3271 9.67383L23.8835 9.96282L24.6518 11.007L24.7252 13.0223L23.9785 16.2024L21.8469 18.5283L21.7175 18.2908Z" fill="#DFC068"/>
<path fill-rule="evenodd" clip-rule="evenodd" d="M23.4132 9.55757C23.4132 9.55757 23.0719 9.56639 22.9991 10.986C22.9262 12.4057 22.891 13.1521 22.8392 13.8555C22.7874 14.559 22.6668 14.9859 22.6063 15.4003C22.5457 15.8148 22.5112 16.3797 22.3173 16.725C22.2319 16.8846 22.0496 17.3852 21.6224 17.7607C21.1434 18.1748 20.4277 18.4641 20.3193 18.4857C20.1293 18.5287 19.1671 18.6237 18.7745 18.8396C18.6366 18.9129 18.3991 18.9991 18.136 19.2452C17.6137 19.7154 16.9191 20.5568 16.4185 21.5708C15.6505 23.0855 14.8825 27.3615 14.8825 27.3615L15.0552 27.0725C15.0552 27.0725 15.0768 26.6885 15.4608 26.0152C15.8362 25.3422 15.7284 24.587 16.2504 23.2968C16.4532 22.805 16.7078 22.1664 17.0184 21.6226C17.5105 20.7379 18.1058 19.9785 18.7057 19.5643C19.685 18.8913 20.7639 18.7446 20.7639 18.7446L21.9247 17.9766C21.9247 17.9766 22.1275 17.584 22.3952 17.1352C22.7704 16.5054 23.2485 15.802 23.3529 14.7794C23.5128 13.2647 23.1285 12.2723 23.1501 11.3749C23.1717 10.4775 23.1803 9.81727 23.3617 9.65741C23.5432 9.49755 23.4135 9.55814 23.4135 9.55814L23.4132 9.55757Z" fill="#A88F33"/>
<path fill-rule="evenodd" clip-rule="evenodd" d="M23.4133 16.332C23.4133 16.332 23.9254 15.0719 24.1597 13.9543C24.203 13.7299 24.2892 13.5058 24.3108 13.3246C24.4186 12.2673 24.4487 11.8315 24.3108 11.2533C24.203 10.8266 23.7888 10.442 23.5729 10.1439C23.3616 9.83303 23.2623 9.71726 23.3055 9.65184C23.3488 9.58641 23.5169 9.47946 23.6807 9.49226C23.8549 9.49733 24.0262 9.53777 24.1843 9.61112C24.3423 9.68447 24.4838 9.78919 24.6001 9.91893C24.9323 10.3029 25.1954 11.6063 25.1954 11.6063L25.4722 13.326L26.1757 15.492L23.4139 16.3337L23.4133 16.332Z" fill="#C99E3D"/>
<path fill-rule="evenodd" clip-rule="evenodd" d="M28.2245 15.0201C28.2245 15.0201 28.1295 15.0631 27.9572 15.0201C27.9645 15.0906 27.9523 15.1617 27.9218 15.2256C27.8914 15.2896 27.8438 15.3439 27.7845 15.3825C27.6033 15.3091 25.9072 15.4559 25.9072 15.4559C25.9072 15.4559 25.1175 15.3177 24.8715 14.2735C24.6991 13.5786 25.0009 12.6209 24.9017 11.9908C24.7506 11.063 24.5393 10.8815 24.5177 10.5928C24.496 10.3041 24.4744 10.2304 24.4744 10.0492C24.3794 10.0276 24.3234 9.99742 24.2287 9.99742C24.207 9.91209 24.25 9.83756 24.1553 9.68652C24.207 9.70814 24.5609 9.75138 24.975 10.1439C25.3164 10.4633 25.3164 10.5797 25.3679 10.6445C25.4324 10.7091 25.9547 11.1565 26.1791 11.6025C26.4035 12.0485 26.8393 13.4708 26.9386 13.7037C26.9687 13.7987 27.0336 13.8937 27.1946 14.1093C27.4449 14.4202 27.8115 14.9342 28.2257 15.0196L28.2245 15.0201Z" fill="#B58634"/>
<path fill-rule="evenodd" clip-rule="evenodd" d="M25.4284 10.666C25.6898 11.0883 25.9246 11.5264 26.1316 11.9779C26.3861 12.5516 26.5372 13.0221 26.8566 13.4061C26.6839 12.9057 26.3776 11.9218 26.1964 11.5723C25.9936 11.2025 25.5794 10.8043 25.4284 10.6663V10.666Z" fill="#A88F33"/>
<path fill-rule="evenodd" clip-rule="evenodd" d="M22.4938 17.76C22.4938 17.76 22.058 17.8679 21.2468 18.2951C20.9791 18.433 20.7249 18.5494 20.4788 18.6575C19.8397 18.9465 19.1542 19.2136 18.6103 19.3609C18.6536 19.4127 18.6749 19.434 18.6749 19.434C18.6749 19.434 18.6749 19.6456 18.7915 19.7662C18.727 19.8311 17.8637 20.4179 18.1186 22.3811C18.2909 22.3166 18.4937 22.2301 18.5239 22.2301C18.5759 22.2389 18.5887 22.3811 18.6533 22.3811C18.7179 22.3811 18.9295 22.2958 19.1539 22.0057C19.1454 22.1223 19.016 23.2959 19.7106 24.0855C19.84 23.9345 20.1679 23.4339 20.1679 23.4339L20.1765 23.2743C20.1765 23.2743 20.2066 22.7176 20.3881 22.2085C20.5696 21.6993 20.9231 21.3239 20.9231 21.3239L22.7694 18.6873L22.4932 17.7598L22.4938 17.76Z" fill="#E6C367"/>
<path fill-rule="evenodd" clip-rule="evenodd" d="M20.7681 21.6317C20.6836 21.6915 20.5904 21.738 20.4919 21.7697C20.4617 21.6619 20.4185 21.2907 20.6731 20.9283C20.9709 20.4922 21.6223 19.927 21.8035 19.4776C21.9201 19.1883 21.8683 18.4635 22.904 17.5357C23.9396 16.6078 24.345 16.2887 24.345 16.2887L26.0192 15.4473L28.0775 16.2585L27.0549 20.2664L26.261 22.1437L23.1037 21.5484L20.7678 21.6317H20.7681Z" fill="#DCBA5A"/>
<path fill-rule="evenodd" clip-rule="evenodd" d="M21.9733 20.5432L22.3661 20.0514V19.7018C22.3661 19.7018 22.8019 19.5852 23.2721 19.1062C23.7423 18.6272 24.394 17.7081 24.968 17.7642C25.542 17.829 25.598 19.0112 25.6197 19.3437C25.6413 19.6762 25.7147 20.4309 25.831 20.8368C25.9604 21.2424 24.4329 22.7784 24.4329 22.7784L23.3956 23.568L21.9733 20.5432Z" fill="#E9CE77"/>
<path fill-rule="evenodd" clip-rule="evenodd" d="M23.1888 24.6384C23.1888 24.6384 23.5082 24.1377 23.2741 24.0299C23.4121 23.7193 23.6667 23.3914 23.6667 23.3914C23.6667 23.3914 23.8479 22.9428 24.4346 22.3904C25.0214 21.838 25.3841 21.4711 25.4791 21.1002C25.5377 20.8584 25.5695 20.611 25.5741 20.3623C25.6375 20.4141 25.7054 20.4603 25.7769 20.5003C25.8719 20.5435 26.3205 20.9144 26.2559 21.6611C26.1913 22.4077 25.9146 22.7184 25.9146 22.7184C25.9146 22.7184 25.6472 22.9857 25.4575 23.124C25.2544 23.2619 25.1813 23.4215 24.8403 23.4346C24.8753 23.4067 24.9147 23.3848 24.9569 23.3697C24.9569 23.3697 24.603 23.3268 24.413 23.4992C24.223 23.6715 23.8191 24.2026 23.6163 24.3624C23.4135 24.4919 23.1897 24.6386 23.1897 24.6386L23.1888 24.6384Z" fill="#CDAE50"/>
<path fill-rule="evenodd" clip-rule="evenodd" d="M37.5362 16.2459C37.0265 16.0601 36.4907 15.9553 35.9485 15.9353C35.0423 15.9051 33.7176 15.9569 32.4189 15.9654C31.0208 15.9739 29.7522 15.4864 27.9918 15.4002C27.7028 15.2276 26.9678 14.4723 24.6735 16.0732C24.8115 16.0647 26.3392 15.7194 26.8697 16.3841C27.4047 17.0443 27.2537 18.1662 27.1806 18.4336C27.0424 19.0292 26.5935 19.8965 26.4126 20.5049C26.2317 21.1133 26.2744 21.433 26.1449 21.8597C26.0155 22.2864 25.7308 22.4983 25.8989 22.9901C26.1233 22.8522 26.2402 22.8522 26.6151 22.0108C26.99 21.1694 26.9129 20.5695 27.5344 19.8575C28.1429 19.1413 29.1558 18.1616 29.5409 17.9156C29.926 17.6695 32.984 16.0817 36.186 17.5964C36.9583 17.5145 37.5365 16.2456 37.5365 16.2456L37.5362 16.2459Z" fill="#D2A83E"/>
<path fill-rule="evenodd" clip-rule="evenodd" d="M25.9631 15.6581C25.9599 15.6256 25.9528 15.5937 25.9418 15.5631C25.9118 15.5 25.8725 15.4417 25.8251 15.3904C25.8251 15.3904 25.0657 15.2524 24.6817 15.2954C24.0084 15.3688 23.4 16.2016 23.1153 16.6289C22.8305 17.0561 22.4767 17.716 22.0927 18.0571C22.0969 18.0239 22.0892 17.9902 22.0711 17.9621C22.0711 17.9621 22.0927 17.9922 22.0497 18.0355C22.0068 18.0787 22.0065 18.1001 22.0281 18.1208L22.093 18.1854C22.1143 18.1854 22.7099 17.9177 23.5212 17.1614C24.3842 16.3717 25.0443 15.9667 25.3897 15.8279C25.5738 15.7496 25.7663 15.6927 25.9634 15.6581H25.9631Z" fill="#C29637"/>
<path fill-rule="evenodd" clip-rule="evenodd" d="M40.6949 12.4141C40.6949 12.4141 40.5566 12.5864 40.384 12.7764C40 13.1821 39.4994 13.6392 39.0721 14.1096C38.6668 14.5585 38.2094 14.9081 37.6957 15.4949C37.182 16.0817 36.5864 16.7331 36.4356 16.9231C36.2977 17.1131 36.1898 17.4237 36.1898 17.5833C36.1165 17.5315 36.0303 17.4755 36.0303 17.4755C36.0666 17.5432 36.1099 17.6069 36.1597 17.6655C36.2675 17.8165 36.4356 18.0068 36.5221 18.1229C36.6282 18.2706 36.7043 18.4377 36.7462 18.6147C36.798 18.6232 37.1302 18.6881 37.5447 18.0063C37.9591 17.3245 38.5024 16.5781 38.5024 16.5781L39.3654 15.2964L39.9092 14.2092L40.5919 12.9923L40.6957 12.4141H40.6949Z" fill="#AC8132"/>
<path fill-rule="evenodd" clip-rule="evenodd" d="M41.5796 11.542C41.5796 11.542 41.0574 11.9687 40.8545 12.2247C40.6517 12.4807 40.1719 13.1526 40.1719 13.1526L40.3445 13.1309L41.2206 12.3544L41.562 11.7459L41.5793 11.5431L41.5796 11.542Z" fill="#A88F33"/>
<path fill-rule="evenodd" clip-rule="evenodd" d="M41.4193 45.834C41.4193 45.834 41.4107 45.4801 41.6093 45.2688C41.8121 45.0572 42.3255 44.7465 42.8261 43.5815C43.3268 42.4164 43.3825 42.1533 43.3825 42.1533C43.3825 42.1533 42.4851 42.9213 41.9318 43.1025C42.0613 42.8348 42.1346 42.6451 42.1995 42.5068C42.1261 42.4423 41.8155 42.3689 41.7854 42.3345C41.9577 42.1618 42.0527 41.7388 42.4023 41.4584C42.8512 41.117 43.6709 40.5305 44.3081 40.0077C44.9452 39.4849 46.1979 38.2689 46.3578 37.915C46.4528 38.053 46.4741 38.1392 46.4741 38.1392C46.4741 38.1392 45.8444 38.9592 45.5164 39.4812C45.2271 39.93 45.2487 40.1846 45.2487 40.1846L45.8444 39.9286C45.8444 39.9286 46.0167 40.5672 45.2359 41.5383C45.5773 41.4089 45.715 41.4865 45.9089 41.3784C45.5895 41.5815 45.1495 41.8577 44.7353 42.6169C44.3297 43.3764 43.7773 44.261 42.8455 44.8131C41.9392 45.3956 41.417 45.8314 41.417 45.8314L41.4193 45.834Z" fill="#A67A2E"/>
<path fill-rule="evenodd" clip-rule="evenodd" d="M39.0808 16.6948C39.0808 16.6948 38.727 17.4323 38.6752 18.0063C38.6667 18.1446 38.632 18.2524 38.632 18.4119C38.6234 18.9254 38.6621 19.4994 38.5466 19.7667C38.5034 19.6589 38.4818 19.5855 38.4386 19.5426C38.374 19.7238 38.2574 20.289 38.1624 20.5003C38.1194 20.3624 38.0244 19.8834 38.0332 19.3182C38.042 18.753 38.0546 18.6449 38.0546 18.5286C38.0332 18.7009 37.9166 18.9342 37.8734 19.0721C37.8088 18.9558 37.7354 18.8048 37.649 18.6796C37.5972 18.7649 37.5326 18.8909 37.4766 18.9558C37.4678 18.904 37.4464 18.7658 37.4334 18.5718C37.4248 18.3474 37.4117 18.0584 37.4248 17.9978C37.4462 17.8815 37.6276 17.4241 38.0116 17.0054C38.469 16.5048 38.9394 15.5428 39.0774 15.245C39.2153 14.9472 39.8021 13.709 39.8021 13.709H40.251L39.5993 15.1932C39.5993 15.1932 39.2068 16.0044 39.004 16.3025C38.8012 16.6006 38.374 17.4548 38.184 17.787C38.3219 17.6058 38.4385 17.5108 38.5768 17.3382C38.7105 17.2173 39.0814 16.6953 39.0814 16.6953L39.0808 16.6948Z" fill="#8C6228"/>
<path fill-rule="evenodd" clip-rule="evenodd" d="M41.5881 11.4863C41.5148 11.712 41.399 11.9215 41.2468 12.1036C40.9792 12.423 40.4052 12.85 40.125 13.1907C39.869 13.5229 39.3571 14.4292 39.5897 15.5035C39.675 15.2706 39.8358 14.8089 40.263 14.2867C40.6902 13.7644 41.1476 13.1648 41.3723 12.6989C41.5964 12.2284 41.6265 11.8575 41.6265 11.8575L41.7119 11.7497L41.6601 11.5037L41.5867 11.4863H41.5881Z" fill="#CBA94C"/>
<path fill-rule="evenodd" clip-rule="evenodd" d="M50.326 40.1079C50.326 40.1079 50.1534 39.6377 50.1016 39.2105C50.0498 38.7832 50.1869 38.6985 50.0282 38.2095C49.9332 37.9117 49.7608 37.9535 49.7176 37.9117C49.6744 37.8699 49.6442 37.4199 49.6528 37.1739C49.6613 36.9278 49.6442 36.6087 49.601 36.4704C49.5364 36.4187 49.4932 36.3754 49.3982 36.0563C49.2904 35.7368 49.2386 35.5773 49.1868 35.4825C49.1351 35.3878 48.9837 35.3014 48.9837 35.2063C48.9837 35.0163 49.1564 34.9174 49.1564 34.865C49.1479 34.7572 49.0184 34.8437 48.9837 34.8132C48.9408 34.7615 49.0918 34.4509 49.0358 34.4076C49.0142 34.3863 48.8631 34.5675 48.8242 34.5157C48.7809 34.4637 48.7292 33.9502 48.6515 33.6095C48.5784 33.2772 48.5005 33.0358 48.4919 32.9365C48.4834 32.8415 47.8963 31.1672 47.7541 30.7616C47.6395 30.4189 47.543 30.0703 47.4651 29.7174C47.4218 29.5146 47.3917 29.1002 47.3701 29.1434C47.3485 29.1867 47.3615 29.398 47.3268 29.3895C47.2967 29.3806 47.1889 28.6431 47.1545 28.5265C47.1243 28.4098 46.9428 28.0145 46.8985 27.7283C46.8552 27.439 46.7605 26.6838 46.6956 26.1704C46.6308 25.657 46.6006 25.4456 46.6006 25.3171C46.6113 25.0026 46.5939 24.6878 46.5489 24.3764C46.4635 23.8326 46.2929 23.1724 46.1433 22.7886C45.8543 22.0636 45.086 20.2082 44.9486 19.7465C44.9486 19.6299 45.0996 19.6947 45.0996 19.6947C45.0996 19.6947 45.4748 20.6354 45.751 21.3602C46.0187 22.0852 46.2732 22.7238 46.3381 22.7886C46.3899 22.8532 46.7955 23.5652 46.9767 24.7303C47.1579 25.8953 47.2224 26.9697 47.3305 27.6859C47.3823 28.0273 47.4255 28.3894 47.5333 28.7517C47.6497 29.1446 47.8309 29.5502 48.0684 30.1714C48.2712 30.6936 48.4222 31.1294 48.5042 31.5049C48.5992 31.9839 48.5992 32.3463 48.6552 32.5838C48.7073 32.7866 48.7846 33.1919 48.9661 33.7784C49.1476 34.365 49.4147 35.1204 49.5959 35.5906C49.95 36.5313 50.1079 37.3166 50.1613 37.7353C50.2086 38.1668 50.3684 39.6599 50.3252 40.1085L50.326 40.1079Z" fill="#A88F33"/>
<path fill-rule="evenodd" clip-rule="evenodd" d="M41.6096 11.4343L41.588 11.486C41.588 11.486 41.6526 11.5077 41.6398 11.5941C41.6407 11.7124 41.6335 11.8307 41.6182 11.948C41.5968 12.099 41.5536 12.2154 41.5451 12.3104C41.5451 12.5132 41.5752 12.7461 41.2891 13.3244C41.2038 13.484 41.1511 13.6219 41.1079 13.7169C41.0001 13.9499 40.9785 13.9846 40.8835 14.0924C41.0345 14.0071 41.5784 13.6657 41.8543 13.7169C41.6645 13.8248 41.3753 14.0364 41.1941 14.3126C41.2373 14.3211 41.4185 14.3558 41.7061 14.3126C42.1851 14.2392 42.7201 14.0665 43.1902 14.101C43.7039 14.1311 43.5011 13.484 43.5011 13.484L42.9084 12.1809L41.7866 11.3916L41.6096 11.4346V11.4343Z" fill="#BE9C44"/>
<path fill-rule="evenodd" clip-rule="evenodd" d="M44.5352 21.195C44.5352 21.195 44.0346 20.6944 43.8318 18.9763C43.629 17.2503 43.6722 14.7097 43.6722 14.7097L43.2666 13.7172C43.2666 13.7172 43.1812 13.057 42.9688 12.8113C42.7563 12.5655 42.339 12.1511 42.149 11.9483C41.959 11.7455 41.7434 11.4693 41.614 11.426C41.6785 11.3182 41.9678 10.7098 43.0766 10.7013C44.1853 10.6927 44.5272 11.3097 44.643 11.5341C44.7588 11.7585 45.2816 12.7288 45.4756 14.5777C45.6568 16.4243 45.6656 16.5625 45.6354 17.2011C45.6138 17.5549 45.4972 18.3747 45.2941 19.2505C45.1086 19.9929 44.9058 20.8215 44.5346 21.1967L44.5352 21.195Z" fill="#A17C34"/>
<path fill-rule="evenodd" clip-rule="evenodd" d="M42.9654 22.667C43.1322 22.6791 43.2989 22.6414 43.4444 22.5589C43.604 22.5504 44.1823 22.6238 44.6267 22.0586C44.6568 22.1877 44.7347 22.5376 44.5316 22.8482C44.6397 22.7401 44.7993 22.6972 44.8209 22.667C44.8295 22.8266 44.9805 23.3184 44.3419 24.5136C44.5143 24.3239 44.7171 24.3324 44.8983 24.3108C44.9071 24.5352 45.0277 25.2901 44.7086 25.696C44.4972 25.9722 44.1519 25.8858 44.1519 25.8858C44.1569 25.8255 44.1569 25.7649 44.1519 25.7046C44.1433 25.5879 44.1001 25.4716 44.1305 25.394C43.9637 25.3177 43.8117 25.2125 43.6817 25.0831C43.3062 24.7292 42.8186 24.1253 42.7842 23.6765C42.7409 23.1759 43.1898 23.0681 43.1898 23.0681C43.1522 23.0344 43.1202 22.9951 43.0948 22.9515C43.0732 22.8784 43.0516 22.7617 42.9654 22.667Z" fill="#8C6228"/>
<path fill-rule="evenodd" clip-rule="evenodd" d="M39.6376 17.2382C39.6376 17.2382 39.616 17.208 39.4997 17.346C39.5213 17.208 39.5429 17.0783 39.5515 16.9532C39.6065 16.8373 39.6778 16.7298 39.7631 16.634C39.6982 16.7631 39.655 16.8798 39.655 16.8798C39.655 16.8798 39.8149 16.582 40.0478 16.4008C40.2074 16.2713 40.4102 16.211 40.4964 16.0902C40.5914 15.9607 40.5697 15.9391 40.5914 15.9175C40.5914 15.9175 40.803 15.7795 41.1267 15.3736C41.1696 15.3219 41.2345 15.2658 41.2777 15.2141C41.3508 15.1839 41.5235 15.1063 41.7263 15.0024C41.9379 14.8861 42.1751 14.7265 42.3219 14.6611C42.6109 14.5317 42.9175 14.5448 43.0597 14.3417C43.1675 14.3115 43.2838 13.9878 43.2625 13.7119C43.4221 13.7765 44.2418 14.2856 44.5226 15.399C44.7254 16.1886 44.3627 17.4054 44.2117 17.9925C44.0606 18.5796 44.0393 19.0151 43.8277 19.2825C43.56 19.6366 42.6973 20.1358 42.4857 20.383C42.3045 20.5858 41.761 21.0992 41.7823 21.4701C41.8039 21.7463 42.1447 21.8968 42.2183 21.9491C42.292 22.0015 42.2914 22.0658 42.4297 22.0345C42.5679 22.0032 42.6194 21.9395 42.6757 21.9395C42.7403 21.948 42.7403 21.9611 42.7704 21.9611C42.7923 21.9604 42.814 21.9575 42.8353 21.9523C42.8353 21.9523 42.8137 22.3451 41.8947 22.4643C41.8298 22.4731 41.7652 22.4944 41.683 22.5075C41.7911 22.4557 41.8557 22.4557 41.9723 22.2962C41.8429 22.2745 41.4717 22.2529 41.3767 22.2228C41.4068 22.171 41.5061 22.0328 41.588 21.9682C41.6614 21.9036 41.5795 21.8829 41.5149 21.9164C41.4038 21.9921 41.2971 22.0741 41.1955 22.1622C41.0877 22.2572 40.9927 22.3866 40.82 22.5035C40.7683 22.3309 40.7768 22.0029 40.9799 21.7657C40.9279 21.7742 40.8286 21.9252 40.7339 21.8951C40.7167 21.7377 40.7269 21.5785 40.764 21.4246C40.8158 21.2303 41.0962 20.8896 41.0962 20.8896L42.451 18.4687L42.74 16.6349L39.6376 17.2376V17.2382Z" fill="#92723A"/>
<path fill-rule="evenodd" clip-rule="evenodd" d="M39.5642 17.3414C39.5642 17.3414 39.4909 17.3932 39.6376 17.4924C39.616 17.5226 39.5642 17.6304 39.4994 17.7038C39.4263 17.7891 39.3483 17.842 39.3182 17.9154C39.2536 18.0664 39.2018 18.17 39.2018 18.2348C39.2018 18.2997 39.1802 18.7138 38.999 18.9812C38.9342 19.0762 38.8608 19.2358 38.809 19.3436C38.7012 19.5333 38.6062 19.6849 38.5846 19.7703C38.5416 19.9213 38.5115 20.3355 38.5115 20.3355C38.5115 20.3355 38.6065 20.2188 38.6409 20.1759C38.5888 20.2837 38.5328 20.4 38.4509 20.4865C38.5026 20.4433 38.6537 20.3355 38.9083 20.111C39.2621 19.8135 39.8146 19.3129 40.4879 18.9164C40.2848 18.9897 40.1124 18.9897 39.9744 19.0114C40.0822 18.9036 41.0531 17.7644 41.5623 17.6566C41.5932 17.6174 41.6086 17.5681 41.6055 17.5183L41.1695 17.4754L40.2848 17.6651L40.1556 16.9824L39.5642 17.3405V17.3414Z" fill="#B18E3E"/>
<path fill-rule="evenodd" clip-rule="evenodd" d="M40.9713 21.2251C40.9713 21.2251 40.8547 21.3414 40.7469 21.6307C40.6639 21.5441 40.5927 21.4468 40.5352 21.3415C40.3757 21.0741 40.1299 20.733 39.5559 20.9273C39.5474 20.7461 39.5343 20.6511 39.5559 20.5217C39.6509 20.5003 39.9399 20.2674 40.2289 19.9263C40.432 19.6934 40.6217 19.4257 40.7511 19.085C40.8365 19.0201 40.9841 18.9123 41.1778 18.7871C41.454 18.5974 41.7862 18.3383 41.838 18.0493C41.7086 18.1011 41.4324 18.2305 41.0179 18.2091C41.1778 18.1358 41.4235 18.0581 41.3934 17.7387C41.4582 17.6954 41.51 17.6653 41.51 17.6653C41.4614 17.6491 41.4102 17.6417 41.359 17.6437C41.3502 17.6135 41.3374 17.5706 41.264 17.5919C41.1906 17.6132 41.1786 17.6135 41.169 17.6437C41.1388 17.6525 41.0395 17.6437 40.9662 17.6957C40.8928 17.7478 40.69 17.9199 40.6123 17.95C40.6425 17.8983 40.6854 17.8209 40.6854 17.8209C40.6854 17.8209 40.4741 17.8422 40.323 17.9062C40.0468 18.0012 39.7277 18.1739 39.404 18.342C39.4341 18.2902 39.4472 18.2567 39.4686 18.247C39.4899 18.2373 39.5419 18.2256 39.5419 18.2168C39.5419 18.208 39.5206 18.1315 39.5334 18.1005C39.6302 17.8955 39.7444 17.6992 39.8747 17.5137C40.0258 17.3106 40.0559 17.0216 40.0559 17.0216L40.7161 16.6894L42.5716 16.2627L43.7756 16.3361L43.6246 17.1689L42.9135 18.623L42.305 19.9477L41.6101 20.7592L40.9716 21.2251H40.9713Z" fill="#543E26"/>
<path fill-rule="evenodd" clip-rule="evenodd" d="M43.9788 17.6211C43.9788 17.6211 43.2538 18.5185 43.0509 18.6568C43.1804 18.3806 43.9788 16.7365 44.2678 16.2791C44.2033 16.2273 44.1168 16.2273 44.3196 15.4258C44.1472 15.8311 44.0866 16.0427 43.9444 16.1505C43.8022 16.2583 43.7846 16.2239 43.6884 16.2239C43.7066 16.1911 43.714 16.1534 43.7097 16.1161C43.7097 16.1161 43.1013 16.0427 42.6857 16.0427C42.2701 16.0427 41.4475 16.2672 40.9898 16.4484C40.6274 16.5994 40.4246 16.5994 40.2952 16.6941C40.1657 16.8019 40.0924 16.9185 40.0275 16.9487C39.9757 16.9788 39.73 17.0565 39.6736 17.1384C39.6219 17.2238 39.5357 17.3196 39.5357 17.3412C39.5357 17.3628 39.5141 17.3933 39.5789 17.3714C39.6003 17.3628 39.7601 17.2764 39.9413 17.1686C40.1871 17.0306 40.4849 16.871 40.7008 16.776C41.3178 16.53 41.5121 16.5732 41.788 16.5215C42.077 16.4697 42.4914 16.3488 42.7673 16.3488C43.0436 16.3403 43.5658 16.3488 43.6867 16.3704C43.6349 16.4137 43.5917 16.4654 43.6133 16.6466C43.6133 16.6984 43.5701 16.7544 43.528 16.8796C43.3988 17.2334 43.1528 17.8202 43.016 18.118C42.8262 18.5234 42.6106 18.8644 42.5039 19.0758C42.3973 19.2871 42.1626 19.8438 41.9302 20.1416C41.6978 20.4394 41.5763 20.6206 41.5035 20.6854C41.4307 20.7503 40.9079 21.134 40.9469 21.2723C41.0419 21.2421 41.6418 21.0163 42.0773 20.5259C42.5128 20.0355 42.5995 19.7363 42.9403 19.4686C43.2811 19.2009 43.5487 18.7524 43.7083 18.3814C43.842 18.0361 43.8119 17.9283 43.98 17.622L43.9788 17.6211Z" fill="#806031"/>
<path fill-rule="evenodd" clip-rule="evenodd" d="M28.3539 24.3191C28.3539 24.3191 28.2589 24.7117 28.043 24.906C27.8317 25.096 27.4562 25.2598 27.4132 25.5792C27.3615 25.8984 27.7887 26.0582 27.7887 26.0582C27.7887 26.0582 27.5555 26.4422 27.5555 26.7312C27.5555 27.0291 27.5469 27.0851 27.5771 27.3698C27.5428 27.3918 27.5137 27.4209 27.4917 27.4551C27.4917 27.4551 27.5131 27.7313 27.7247 27.9037C27.9363 28.0761 28.1172 28.1799 28.2251 28.1367C28.2415 28.1719 28.256 28.2079 28.2683 28.2448C28.2683 28.2448 28.4282 27.8391 28.536 27.4853C28.6438 27.1229 28.7388 27.1744 28.7817 26.6869C28.8247 26.1993 29.2937 25.3622 29.2937 25.3622L29.6138 24.6468L29.0918 24.2412L28.3539 24.3189V24.3191Z" fill="#B6903C"/>
<path fill-rule="evenodd" clip-rule="evenodd" d="M29.3246 25.0225C29.217 25.133 29.1176 25.2512 29.0274 25.3763C28.8894 25.5663 28.7816 25.7387 28.5788 25.8124C28.376 25.886 28.2466 25.8855 28.2594 26.0886C28.2722 26.2917 28.4622 26.3776 28.57 26.4811C28.6866 26.5889 28.7816 26.7701 28.7298 26.9732C28.7944 26.943 28.911 26.9083 29.0188 26.6754C29.1266 26.4424 29.8807 25.0227 29.8807 25.0227H29.3246V25.0225Z" fill="#685026"/>
<path fill-rule="evenodd" clip-rule="evenodd" d="M32.2987 21.747C32.2987 21.747 32.3633 21.5747 32.2987 21.4495C32.2339 21.3201 31.8414 21.2768 31.6471 21.1301C31.4443 20.979 31.1982 20.8741 30.9954 20.9404C31.0256 20.867 31.1465 20.7071 31.0472 20.6727C30.9522 20.6425 30.5986 20.8021 30.5036 20.8755C30.4086 20.9489 30.1927 21.0351 30.1498 21.0871C30.1068 21.1392 30.0332 21.2382 29.9899 21.1949C29.9467 21.1648 29.9254 21.0871 29.852 21.1301C29.7786 21.173 29.4253 21.4623 29.3602 21.6307C29.295 21.7991 29.1485 22.1745 28.7085 22.6015C28.2685 23.0284 28.0785 23.3049 28.2079 23.4645C28.3373 23.6241 28.3979 23.5077 28.4195 23.6457C28.4361 23.7811 28.4288 23.9184 28.3979 24.0513C28.3461 24.2757 28.2599 24.4871 28.3763 24.5303C28.6741 24.6253 28.9634 24.445 29.0279 24.5001C29.1574 24.6165 28.9546 25.0352 29.2609 25.1171C29.5718 25.2024 29.8781 25.0437 29.8781 25.0437L31.0085 24.4353L32.0959 23.8616L32.6523 22.7611L32.3539 21.842L32.297 21.747H32.2987Z" fill="#D4B968"/>
<path fill-rule="evenodd" clip-rule="evenodd" d="M31.2318 24.3747C31.2318 24.3747 31.0418 24.0857 31.2751 23.8309C31.5083 23.576 31.8402 23.4685 31.9697 23.3089C31.945 23.2785 31.912 23.2561 31.8747 23.2444C31.9606 23.0906 32.0916 22.967 32.2501 22.8902C32.1856 22.8257 32.0991 22.7739 32.0044 22.7739C31.7927 22.7739 31.663 22.9033 31.4691 22.9033C31.2793 22.9033 31.2577 22.8083 31.2577 22.8083C31.2577 22.8083 31.5771 22.7782 31.5467 22.6356C31.5166 22.4846 31.4614 22.4846 31.4614 22.4846C31.4614 22.4846 32.0783 22.2286 32.1861 22.0921C32.2939 21.9555 32.2811 21.7943 32.3027 21.7297C32.3758 21.7297 32.8031 21.5053 32.9757 21.6003C33.1484 21.6953 33.0275 21.9541 33.0275 21.9541C33.0275 21.9541 33.55 21.5613 33.8162 21.1762C34.0492 21.1978 34.1576 21.0166 34.3282 21.0166C34.5398 21.0166 34.8721 21.3056 34.9366 21.9226C34.9799 22.2764 35.0444 22.4792 34.9799 23.105C34.9497 23.4588 34.9583 24.2143 35.0652 24.5892C35.1383 24.887 35.311 24.8569 35.311 24.8569C35.2845 24.9476 35.232 25.0286 35.1599 25.0898C35.0433 25.1976 35.0305 25.4826 35.0433 25.5904C35.0605 25.6693 35.0821 25.747 35.1081 25.8234C35.1081 25.8234 34.9702 25.983 34.9355 26.0911C34.9053 26.1989 34.7631 26.2722 34.6593 26.2722C34.5555 26.2722 34.6075 26.2634 34.4696 26.2722C34.3316 26.2811 34.2884 26.3024 34.2019 26.2722C34.1155 26.2421 34.0509 26.2074 34.0856 25.9309C34.1157 25.6547 33.0198 25.0119 33.0198 25.0119L31.2279 24.3733L31.2318 24.3747Z" fill="#CCA849"/>
<path fill-rule="evenodd" clip-rule="evenodd" d="M29.1736 27.1024C29.1736 27.1024 29.5662 27.6247 31.1801 27.6247C31.9481 27.6247 32.2158 27.5513 32.3748 27.5081C32.5475 27.4648 33.1946 27.2105 33.8462 26.4422C34.433 25.7476 34.3036 25.4629 34.3036 25.4629L33.9623 25.4111L32.8529 25.5622L29.5704 26.9602L29.1722 27.1024H29.1736Z" fill="#585136"/>
<path fill-rule="evenodd" clip-rule="evenodd" d="M30.3772 27.2315C30.3772 27.2315 28.9792 27.5424 28.9792 26.6578C28.9792 25.7948 29.8422 24.8886 30.0581 24.729C30.2825 24.5692 30.8176 24.3877 30.8176 24.3877H32.1078L32.3536 25.0393L32.2457 26.4459L30.3772 27.2312V27.2315Z" fill="#252211"/>
<path fill-rule="evenodd" clip-rule="evenodd" d="M31.6677 24.6513C31.6677 24.6513 31.4003 24.4053 30.7918 24.7367C30.1834 25.0681 29.6913 25.7607 29.6612 26.3896C29.631 26.946 30.1186 27.3604 30.878 27.3821C31.4432 27.4034 31.7843 27.3388 31.9569 27.2967C31.9137 27.245 31.6893 26.9645 31.6893 26.9645L31.6679 24.6516L31.6677 24.6513Z" fill="#C3B378"/>
<path fill-rule="evenodd" clip-rule="evenodd" d="M31.4045 24.7893C31.4045 24.7893 31.34 24.7375 31.1485 24.8411C30.989 24.9264 30.756 25.152 30.5748 25.3115C30.4582 25.4065 30.3848 25.4495 30.3188 25.5229C30.0512 25.8423 29.8268 26.3645 29.9565 26.6233C30.0862 26.8822 30.5131 27.18 31.6005 26.9772L31.4014 24.7896L31.4045 24.7893Z" fill="#E6D89C"/>
<path fill-rule="evenodd" clip-rule="evenodd" d="M31.0507 25.324C31.0507 25.324 30.8781 25.5916 30.8781 26.0189C30.8781 26.4546 31.1241 27.1493 32.0303 27.201C32.7249 27.2443 33.1908 26.2001 33.6957 25.7944C34.0797 25.4838 34.3126 25.475 34.3126 25.475C34.3126 25.475 33.9201 25.0483 32.8717 24.4956C31.8361 23.939 30.6753 23.8656 30.0453 24.7201C30.3431 24.6985 31.3053 24.4524 31.3053 24.4524L31.7758 24.6034L31.0507 25.3242V25.324Z" fill="#252211"/>
<path fill-rule="evenodd" clip-rule="evenodd" d="M32.4056 25.8897C32.3754 25.8251 32.3538 25.7387 32.4789 25.7173C32.6041 25.696 32.6601 25.7085 32.7033 25.8027C32.7466 25.8968 32.7886 25.9753 32.7247 26.0143C32.6601 26.0487 32.4917 26.0143 32.4053 25.8891L32.4056 25.8897ZM32.2028 25.2813C32.2028 25.2813 32.1596 25.3114 32.1812 25.2511C32.1897 25.178 32.246 25.0483 32.384 25.0788C32.5219 25.1092 32.492 25.26 32.4693 25.3032C32.4465 25.3464 32.3313 25.4195 32.2449 25.3885C32.2339 25.3857 32.2238 25.3804 32.2153 25.3729C32.2068 25.3654 32.2002 25.3561 32.1959 25.3456C32.1917 25.3351 32.1901 25.3237 32.191 25.3125C32.192 25.3012 32.1957 25.2903 32.2017 25.2807L32.2028 25.2813Z" fill="#6F674D"/>
<path fill-rule="evenodd" clip-rule="evenodd" d="M20.5228 25.5569C20.5228 25.5569 20.8641 25.8129 21.2606 25.8029C21.6532 25.7941 22.1581 25.3888 22.391 25.1296C22.529 24.9786 22.647 24.819 22.775 24.6939C22.8831 24.5861 22.9562 24.5343 23.008 24.4609C23.0814 24.3756 23.159 24.2151 23.198 24.1631C23.103 24.2365 22.965 24.3662 22.8225 24.4524C22.6846 24.5377 22.3868 24.6981 22.2659 24.7414C22.1495 24.7846 20.9412 25.424 20.9412 25.424L20.5228 25.5569Z" fill="#AC924C"/>
<path fill-rule="evenodd" clip-rule="evenodd" d="M21.0443 22.3685C21.0443 22.3685 21.234 22.2391 21.6009 22.1569C21.9548 22.0716 22.6668 22.0059 22.6668 22.0059L23.2536 22.2619L23.4865 23.1465L23.0599 24.0658L22.5163 24.4071L21.899 23.4147L21.0457 22.3702L21.0443 22.3685Z" fill="#9F8E57"/>
<path fill-rule="evenodd" clip-rule="evenodd" d="M20.2763 23.1587L20.0732 23.3103C20.0732 23.3103 20.1253 23.2153 20.1682 22.9263C20.2112 22.6373 20.4359 21.9339 20.7639 21.5283C21.0918 21.1226 21.0833 21.1443 21.0833 21.1443C21.0531 21.1387 21.0221 21.1397 20.9924 21.1471C20.9626 21.1545 20.9347 21.1682 20.9107 21.1872C20.9539 21.0916 21.2301 20.7503 21.5063 20.5796C21.7825 20.409 21.8903 20.3552 22.1793 20.4943C22.4683 20.6334 22.5417 20.7056 22.7533 20.6971C22.9649 20.6886 23.1458 20.4641 23.1458 20.4641C23.1458 20.4641 23.1891 20.6021 23.0295 20.9215C22.8699 21.241 22.2399 21.8924 22.2399 21.8924L20.928 22.7898L20.2763 23.1596V23.1587Z" fill="#EAC970"/>
<path fill-rule="evenodd" clip-rule="evenodd" d="M21.2469 22.261C21.2469 22.261 22.1964 22.3904 22.4854 22.123C22.4939 22.1532 22.5286 22.1532 22.5286 22.1748C22.5263 22.1911 22.5187 22.2062 22.507 22.2177C22.5385 22.2127 22.5702 22.2099 22.602 22.2092C22.64 22.2205 22.6791 22.2278 22.7186 22.2308C22.7505 22.2301 22.7822 22.2272 22.8136 22.222C22.8106 22.2435 22.8034 22.2641 22.7922 22.2826C22.7811 22.3012 22.7663 22.3174 22.7488 22.3301C22.792 22.3301 22.8341 22.3386 22.8341 22.373C22.8341 22.4075 22.8427 22.5113 22.7909 22.5329C22.748 22.5448 22.7024 22.5417 22.6615 22.5241C22.6649 22.6058 22.6871 22.6856 22.7263 22.7573C22.8117 22.9169 22.9937 23.0987 23.2383 23.0463C23.2383 23.0463 23.3675 23.3569 22.8239 24.0473C22.7508 24.1423 22.6728 24.2717 22.5781 24.3795C22.5407 24.4611 22.5121 24.5464 22.4928 24.6341C22.4928 24.6341 23.4121 24.2802 23.6752 23.4733C23.9429 22.662 23.9947 21.8639 23.9429 21.1175C23.9341 20.9059 23.8997 20.7551 23.8479 20.647C23.7185 20.3794 23.3558 20.4226 23.2093 20.5736C22.9977 20.7853 22.6438 21.3115 22.152 21.6739C21.6514 22.0363 21.6301 22.1005 21.2458 22.261H21.2469Z" fill="#D7BC6B"/>
<path fill-rule="evenodd" clip-rule="evenodd" d="M20.108 23.4255C20.108 23.4255 19.9268 23.5333 19.8318 23.9375C19.7368 24.3516 19.9171 24.8565 20.0215 25.0161C20.1259 25.1756 20.3629 25.6117 20.8544 25.6333C20.9761 25.6327 21.0964 25.6077 21.2082 25.5599C21.3798 25.4813 21.5408 25.3812 21.6873 25.2621C21.8989 25.1025 22.0713 24.9646 22.0496 24.9515C21.9979 24.9299 20.7466 23.8942 20.7466 23.8942L20.2761 23.3691L20.1077 23.426L20.108 23.4255Z" fill="#585136"/>
<path fill-rule="evenodd" clip-rule="evenodd" d="M21.2909 25.1435C21.2909 25.1435 21.5455 25.1221 21.6965 25.0271C21.8476 24.9321 20.8119 23.9053 20.8119 23.9053L20.8852 25.0146L21.2909 25.1435Z" fill="#453A25"/>
<path fill-rule="evenodd" clip-rule="evenodd" d="M20.1897 23.3481C20.1897 23.3481 20.0603 23.5941 20.0603 23.659C20.0387 23.8703 20.1035 24.5348 20.1553 24.7461C20.207 24.9706 20.4875 25.3113 20.8502 25.3113C21.0743 25.3113 21.3852 25.1734 21.3852 25.139C21.3852 25.0957 21.0658 25.0536 20.9796 24.8929C20.9278 24.8076 20.9062 24.5954 20.8943 24.3809C20.8857 24.243 20.8857 24.0919 20.9375 24.0396C21.0541 23.9102 21.0754 23.539 21.0754 23.539L21.4896 22.7695H20.9449L20.2932 23.1751L20.1897 23.3481Z" fill="#84754B"/>
<path fill-rule="evenodd" clip-rule="evenodd" d="M20.0306 23.5857C20.0306 23.5857 20.4573 23.0206 20.8418 22.8909C21.2264 22.7611 21.3985 22.8391 21.3985 22.8391L21.174 23.4131L20.8546 23.7669L20.8762 23.9481C20.8762 23.9481 20.8242 24.4271 21.1436 24.7593C21.463 25.0916 21.7003 25.0788 21.8385 25.0788C21.9767 25.0788 22.3735 24.9622 22.5763 24.4832C22.7575 24.0346 22.9085 23.4592 22.5462 22.8823C22.192 22.3083 21.5666 22.2861 21.4457 22.2861C21.3248 22.2861 20.3756 22.3336 20.0306 23.5849V23.5857Z" fill="#252211"/>
<path fill-rule="evenodd" clip-rule="evenodd" d="M30.9859 25.5056C30.8263 25.4322 30.9773 24.9837 31.1369 24.8454C31.2965 24.7072 31.4993 24.5479 31.8534 24.526C31.9826 24.5175 32.1077 24.5994 32.0864 24.6859C32.0563 24.8454 31.8318 25.0699 31.629 25.2294C31.3486 25.4496 31.1671 25.5875 30.9859 25.5056Z" fill="#F7F7E7"/>
<path fill-rule="evenodd" clip-rule="evenodd" d="M22.356 23.0591C22.4726 23.0506 22.6237 23.1445 22.6538 23.2708C22.684 23.4087 22.5804 23.6849 22.356 23.6849C22.1748 23.6849 22.0798 23.4605 22.0798 23.3959C22.0818 23.3428 22.0966 23.291 22.123 23.2449C22.1315 23.2318 22.1532 23.0808 22.356 23.0591Z" fill="#F8F6DE"/>
<path fill-rule="evenodd" clip-rule="evenodd" d="M20.6731 23.1582C20.6731 23.1582 20.3753 23.2962 20.2373 23.5849C20.1388 23.798 20.1089 24.0366 20.152 24.2675C20.1736 24.3753 20.2814 24.6427 20.3548 24.7377C20.4282 24.8327 20.5275 24.8975 20.6009 24.8887C20.6742 24.8799 20.825 24.6859 20.825 24.5696C20.825 24.4532 20.8338 23.9612 20.976 23.6935C21.1012 23.4261 20.674 23.1585 20.674 23.1585L20.6731 23.1582Z" fill="#D4C38B"/>
<path fill-rule="evenodd" clip-rule="evenodd" d="M20.7163 23.1366C20.6646 23.1668 20.5784 23.21 20.5997 23.266C20.6213 23.3178 20.8025 23.3514 20.8674 23.4777C20.9408 23.6071 20.9408 23.745 20.9191 23.8099C20.9755 23.7831 21.0266 23.7465 21.0702 23.7018C21.1652 23.594 21.2815 23.4475 21.3808 23.4475C21.4456 23.4475 21.5102 23.4777 21.5708 23.4777C21.6658 23.4777 21.7605 23.4475 21.7736 23.3482C21.7949 23.2188 21.5924 23.1022 21.4758 23.1238C21.4974 23.0385 21.5276 22.9125 21.4326 22.826C21.3376 22.7396 21.04 22.8909 20.9752 22.9341C20.9103 22.9774 20.7163 23.1369 20.7163 23.1369V23.1366Z" fill="#E2D59D"/>
<path fill-rule="evenodd" clip-rule="evenodd" d="M27.5729 32.2023L28.2115 32.0137L28.3927 32.1431C28.3927 32.1431 28.5219 32.4193 28.7249 32.4537C28.6601 32.5917 28.4917 32.7097 28.5005 32.8076C28.5093 32.9054 28.5955 32.9802 28.5955 32.9802C28.5955 32.9802 28.0215 33.9294 29.1522 34.886C28.8845 34.9938 28.5438 35.142 28.3626 35.2273C28.4917 35.2575 28.7679 35.3127 28.8845 35.4173C29.0011 35.522 29.0011 35.5553 29.1089 35.6201C29.2168 35.685 29.2813 35.7712 29.26 35.8099C29.1866 35.7666 28.9406 35.6375 28.8976 35.7581C28.8547 35.8787 27.8318 35.8315 27.8318 35.8315L26.1058 36.1637C26.1058 36.1637 26.1704 35.9911 25.9892 35.8315C25.7778 35.6418 25.519 35.84 25.2428 35.6287C24.8804 35.3525 24.8673 35.0331 24.751 34.9124C24.8673 34.8391 25.1048 34.7313 25.67 34.6564C25.6484 34.6132 25.575 34.4838 25.6182 34.3675C25.67 34.2164 25.8856 34.1214 25.8211 33.9408C25.9161 33.9192 25.959 33.9192 26.1965 33.6214C26.4209 33.3235 26.5589 33.259 26.7316 33.2374C26.9042 33.2157 27.0078 33.2374 27.3272 32.9395C27.5513 32.7282 27.4782 32.547 27.4782 32.547C27.4782 32.547 27.6247 32.4995 27.5732 32.2017L27.5729 32.2023Z" fill="#CBAC5A"/>
<path fill-rule="evenodd" clip-rule="evenodd" d="M25.6875 32.2986C25.6961 32.2553 25.7308 32.2337 25.9637 32.2553C26.1967 32.277 27.6724 32.1174 28.0738 32.0958C28.4794 32.0656 29.9076 32.087 30.6025 32.2337C31.2974 32.3805 32.0006 32.5531 32.3413 32.6393C32.6827 32.7343 32.7902 32.7684 32.7771 32.8117C32.7686 32.8549 32.6918 32.897 32.6477 32.885C32.6047 32.8765 31.4741 32.5312 31.1247 32.4584C30.7754 32.3856 29.5668 32.1908 28.9061 32.2024C28.2891 32.2113 28.0431 32.1939 27.5211 32.2542C26.9988 32.3191 26.1358 32.4052 25.877 32.3708C25.621 32.3407 25.6739 32.3407 25.687 32.2974L25.6875 32.2986Z" fill="#D6BC6F"/>
<path fill-rule="evenodd" clip-rule="evenodd" d="M29.1606 35.6805C29.1606 35.6805 30.0452 36.1595 30.3646 36.7463C30.5976 37.1821 30.2266 37.398 30.2266 37.398C30.2266 37.398 30.7273 37.398 30.6624 37.6742C30.6323 37.8465 29.7994 38.3124 29.2428 38.5585C28.6776 38.8045 28.6992 38.7917 28.423 38.8347C28.1553 38.8779 27.4218 38.7493 27.2707 38.9641C27.1197 39.1789 27.1854 39.4001 27.2275 39.4346C27.2707 39.4647 27.6203 39.508 27.6203 39.508C27.6203 39.508 27.5469 39.7108 26.8221 39.7324C26.0974 39.754 25.9159 39.8055 25.8727 39.8834C25.8294 39.9565 26.0106 39.9136 26.3431 39.9687C26.6754 40.0205 27.1413 40.0541 27.1413 40.0541C27.1413 40.0541 26.9903 40.1835 26.5977 40.287C26.1489 40.4034 25.4454 40.5115 25.2341 40.6409C25.3419 40.7143 25.5018 40.8221 25.5754 40.8306C25.3942 40.8738 25.1394 40.9688 25.0964 41.0033C25.161 41.0465 25.2475 41.0983 25.2475 41.0983C25.2475 41.0983 24.8848 41.534 24.6735 41.6421C24.4621 41.7502 23.2453 42.3151 22.8266 42.2073C21.7824 41.9311 21.653 40.7876 21.3984 40.7015C21.0144 40.572 20.8332 40.8306 20.4922 40.6494C20.6432 40.5416 20.7254 40.477 20.885 40.4037C20.7123 40.3183 19.8192 39.752 19.8192 39.752C19.7258 39.5484 19.6221 39.3497 19.5086 39.1567C19.3359 38.8589 19.0819 38.4618 18.8913 38.1122C18.4772 37.3442 18.4555 36.9904 18.0801 36.5546C18.1449 36.4693 18.3691 36.4812 18.3691 36.4812L21.515 37.5169L27.0932 37.6784L28.5439 35.6074L29.1608 35.6808L29.1606 35.6805Z" fill="#DFC677"/>
<path fill-rule="evenodd" clip-rule="evenodd" d="M20.8978 38.8391C20.9315 38.8766 20.9707 38.9086 21.0141 38.9341C21.1222 39.0075 21.2818 39.094 21.3896 39.2231C21.4328 39.1585 21.5406 39.0419 21.7309 39.2231C21.9212 39.4043 22.1576 39.2752 22.3047 39.3181C22.4557 39.3702 22.4642 39.3915 22.4642 39.3915C22.4642 39.3915 22.5496 39.3181 22.7404 39.2405C22.8571 39.1972 22.995 39.1671 23.146 39.1241C23.284 39.094 23.435 39.0507 23.5389 39.0507C23.6339 39.1153 23.9746 39.4774 25.3425 38.9429C26.6328 38.4423 26.9303 38.3863 27.1462 38.4636C27.1678 38.4119 27.1894 38.3126 27.5217 38.3257C27.5217 38.1877 27.2455 37.7173 27.2455 37.7173L25.7223 37.1953H24.8891L22.3908 37.6527L21.0065 38.4426L20.8987 38.8408L20.8978 38.8391Z" fill="#C4A859"/>
<path fill-rule="evenodd" clip-rule="evenodd" d="M20.0648 37.9633C20.0648 37.9633 20.0949 38.1963 20.4403 38.4423C20.7816 38.6881 20.8888 38.8349 20.8888 38.8349C20.8888 38.8349 20.9537 38.7495 21.0054 38.6625C21.0572 38.5675 21.1005 38.4597 21.1866 38.4295C21.3593 38.3561 21.7518 38.4941 21.8383 38.4725C21.9117 38.4511 21.8901 38.3001 21.9677 38.3001C22.1489 38.2913 22.2652 38.4164 22.3301 38.4164C22.395 38.4164 22.5542 38.4079 22.5759 38.3735C22.5975 38.3391 22.606 37.9807 22.8521 37.808C23.1197 37.6183 23.4477 37.7002 23.5347 37.7434C23.5347 37.808 23.5433 37.9679 23.7159 37.9764C23.8886 37.9849 23.9056 37.9548 24.0572 38.0066C24.2089 38.0583 24.3895 37.998 24.4714 38.2523C24.5448 38.231 24.7174 38.2094 24.6742 37.9633C24.7595 37.8988 24.8341 37.8555 25.0155 37.6009C25.0588 37.5364 25.1319 37.463 25.1882 37.368C25.3392 37.368 25.5204 37.3378 25.7619 37.5492C25.6885 37.6009 25.6453 37.6345 25.624 37.6871C25.6871 37.7497 25.7448 37.8175 25.7963 37.8899C25.8612 37.9753 25.9044 38.0799 25.9864 38.1016C26.1675 38.1533 26.4654 38.0799 26.7976 38.1016C27.117 38.1232 27.3844 38.2395 27.501 38.3129C27.5443 38.2916 27.5443 38.2828 27.6521 38.3044C27.7599 38.326 27.8418 38.3345 27.7254 38.1966C27.79 38.2267 27.8634 38.2916 27.9283 38.2267C27.9931 38.1619 28.0446 38.0671 28.2258 38.0455C28.407 38.0239 28.4718 38.0541 28.5452 37.8643C28.6402 37.6314 28.3123 37.6314 28.3123 37.6314C28.3123 37.6314 28.4633 37.4931 28.6317 37.3119C28.8345 37.1222 29.0675 36.8762 29.1235 36.5741C29.2185 36.0174 28.6749 35.9443 28.6749 35.9443L26.0384 36.7556L22.8151 36.5957L20.0665 37.9636L20.0648 37.9633Z" fill="#927D49"/>
<path fill-rule="evenodd" clip-rule="evenodd" d="M17.6958 30.3474C17.6958 30.3474 17.6105 30.4552 17.5579 30.7098C17.5052 30.9644 17.5277 30.9342 17.4845 31.1154C17.4412 31.2966 16.9102 33.1003 17.1093 33.7088C17.3084 34.3172 17.6531 34.5416 17.8688 35.0335C17.912 35.1413 17.9541 35.2061 17.9766 35.3011C18.0499 35.6203 17.9854 35.8663 18.0716 36.1858C18.1017 36.2936 18.1796 36.4187 18.296 36.5482C18.552 36.8156 18.9693 37.0701 19.1493 37.2513C19.4036 37.519 19.7663 38.0629 20.2279 38.1144C20.474 38.1445 20.8235 38.041 21.1125 37.8686C21.3685 37.7087 21.5267 37.4846 21.7952 37.3566C21.9849 37.2616 22.1877 37.2272 22.3689 37.1839C22.7444 37.1105 23.0854 37.0986 23.2882 37.1407C23.5989 37.2055 24.3324 37.43 24.7389 37.43C25.0565 37.4248 25.3724 37.3814 25.6796 37.3005C26.2965 37.1193 27.0429 36.8084 27.535 36.6705C27.824 36.5851 28.0569 36.5627 28.2944 36.5109C28.7001 36.4159 29.0408 36.2865 29.2351 36.0404C29.1057 35.8894 28.9461 35.6564 28.0828 35.6649C27.1035 35.6866 25.9728 36.2302 25.4162 36.3166C24.8595 36.4031 24.618 36.4762 23.9965 36.2518C23.3872 36.0251 23.367 35.8752 23.367 35.8752C23.367 35.8752 22.7273 35.4277 22.4597 34.2871C22.192 33.1464 22.4597 32.3153 23.1546 31.5253C23.3357 31.3225 23.2925 31.1413 23.2925 31.1413C23.2925 31.1413 23.7499 30.5243 23.6247 29.9466C23.4868 29.3726 22.6022 29.4892 22.6022 29.4892L17.6961 30.3474H17.6958Z" fill="#6E6342"/>
<path fill-rule="evenodd" clip-rule="evenodd" d="M18.4336 32.2676C18.3955 32.3391 18.3776 32.4196 18.3818 32.5005C18.3903 32.6169 18.425 32.7679 18.7743 33.1089C19.0721 33.4065 19.0073 33.7387 19.0073 33.7387C19.0073 33.7387 19.1572 33.7688 19.5639 33.5785C19.8834 33.4275 19.9906 33.6952 19.9906 33.6952C20.0836 33.6464 20.1844 33.6142 20.2884 33.6002C20.3827 33.5915 20.4739 33.5624 20.5558 33.5148C20.5558 33.5148 20.9313 33.8988 21.2592 34.08C21.557 34.2399 21.7297 34.3477 21.8765 34.2399C22.0144 34.1448 22.0144 33.9506 22.0056 33.8644C21.9714 33.7849 21.928 33.7095 21.8765 33.64C21.7814 33.502 21.6304 33.3422 21.6205 33.2133C21.5988 32.9158 21.8449 32.5617 21.7928 32.4755C21.7408 32.3893 21.5471 32.3677 21.0681 32.5404C20.572 32.7042 18.4316 32.2684 18.4316 32.2684L18.4336 32.2676Z" fill="#39331F"/>
<path fill-rule="evenodd" clip-rule="evenodd" d="M19.5639 34.1958C19.5639 34.1958 19.3182 33.9628 19.4044 32.8322C19.5087 32.8307 19.6128 32.8408 19.7149 32.8623C19.7149 32.8623 19.8488 33.7384 19.5639 34.1958Z" fill="#292311"/>
<path fill-rule="evenodd" clip-rule="evenodd" d="M17.8122 29.4843C17.8465 29.4589 17.8783 29.4304 17.9072 29.399C17.8219 29.5586 17.4279 30.1971 17.7473 31.2026C18.0668 32.2036 18.8692 32.9499 19.8573 32.9846C20.8455 33.0193 21.3649 32.5358 21.9588 31.811C22.1918 31.522 22.4594 31.1594 22.6967 30.9136C23.0505 30.5294 23.3267 30.4215 23.3267 30.0506C23.3267 29.2912 22.5499 28.9501 21.4064 28.6094C20.263 28.2686 19.2316 28.3107 18.6965 28.544C18.1746 28.7982 17.9501 29.0659 17.8119 29.4846L17.8122 29.4843Z" fill="#252211"/>
<path fill-rule="evenodd" clip-rule="evenodd" d="M21.4843 34.5368L21.5696 34.4936C21.5696 34.4936 21.5909 34.1522 21.7291 34.1613C21.8671 34.1829 21.9319 34.3644 21.9188 34.429C21.9103 34.4936 21.8759 34.6017 21.7377 34.5886C21.5565 34.5928 21.4834 34.5368 21.4834 34.5368H21.4843Z" fill="#3F3824"/>
<path fill-rule="evenodd" clip-rule="evenodd" d="M21.1003 33.0871C21.1003 33.0871 21.1856 33.0569 21.29 33.1605C21.3753 33.1605 21.7474 33.1172 21.864 33.1906C21.9806 33.264 22.0151 33.3285 22.0151 33.3285C22.0151 33.3285 21.5793 33.4235 21.3418 33.3285C21.1003 33.2466 21.1003 33.0871 21.1003 33.0871Z" fill="#2D2815"/>
<path fill-rule="evenodd" clip-rule="evenodd" d="M23.0205 33.1521C23.0205 33.1305 22.7876 32.971 22.5416 32.9189C22.4983 32.9104 22.4895 32.9406 22.4563 32.9406C22.4346 32.932 22.4261 32.8672 22.4261 32.8672L22.2862 32.9408C22.2862 32.9408 22.2646 32.971 22.3379 33.0262C22.4025 33.0779 22.5106 33.1211 22.5407 33.2073C22.5709 33.2935 22.5709 33.3236 22.584 33.3367C22.5925 33.3452 22.7435 33.3367 22.8169 33.2935C22.8903 33.2502 23.0285 33.1797 23.0197 33.1513L23.0205 33.1521Z" fill="#82764F"/>
<path fill-rule="evenodd" clip-rule="evenodd" d="M20.8418 34.0276C20.8418 34.0276 20.8847 33.7301 21.174 33.717C21.4716 33.6954 21.5279 33.9844 21.5279 33.9844L21.3552 34.157C21.3552 34.1528 21.2258 33.9716 20.8432 34.0276H20.8418Z" fill="#2D2816"/>
<path fill-rule="evenodd" clip-rule="evenodd" d="M22.7188 32.746C22.7188 32.746 22.5589 32.9187 22.2054 32.9705C22.1752 32.9273 22.1104 32.8411 22.2054 32.703C22.3004 32.565 22.4082 32.5218 22.516 32.5648C22.5635 32.5725 22.6079 32.5936 22.6438 32.6258C22.6798 32.6579 22.7058 32.6996 22.7188 32.746Z" fill="#574F35"/>
<path fill-rule="evenodd" clip-rule="evenodd" d="M23.37 32.9575C23.3788 32.9142 23.3486 32.9057 23.37 32.8841C23.3913 32.8625 23.5082 32.8195 23.5298 32.8409C23.5384 32.8497 23.5298 32.8841 23.5298 32.9262C23.5298 32.9683 23.5298 33.0115 23.5082 33.0425C23.4781 33.0857 23.3919 33.1074 23.3486 33.0946C23.3054 33.0818 23.2969 33.0212 23.2969 33.0092C23.3182 33.0007 23.37 32.9791 23.37 32.9575ZM24.1067 32.4916C24.1067 32.47 24.1801 32.4268 24.2233 32.4268C24.2879 32.4268 24.2879 32.4785 24.2967 32.4916C24.318 32.5001 24.318 32.4828 24.3396 32.5218C24.3613 32.5607 24.3917 32.6295 24.3698 32.6728C24.3479 32.716 24.262 32.7459 24.2407 32.7373C24.2105 32.7157 24.1155 32.5218 24.1067 32.4916Z" fill="#82764F"/>
<path fill-rule="evenodd" clip-rule="evenodd" d="M22.6234 33.0569C22.6234 33.0569 22.7184 33.0783 22.8478 33.1863C22.8046 33.2165 22.7397 33.2509 22.7397 33.2509C22.7397 33.2509 22.7312 33.1516 22.6234 33.0566V33.0569Z" fill="#6E6342"/>
<path fill-rule="evenodd" clip-rule="evenodd" d="M22.4123 32.1074C22.3907 32.0861 22.4769 32.0343 22.5286 32.0428C22.5804 32.0514 22.602 32.0861 22.6581 32.0946C22.7141 32.1032 22.7229 32.073 22.7434 32.0514C22.7639 32.0298 22.8384 32.0428 22.8512 32.0514C22.8592 32.0609 22.8664 32.0709 22.8728 32.0815C22.8737 32.0651 22.878 32.0491 22.8854 32.0344C22.8928 32.0197 22.9031 32.0067 22.9158 31.9962C22.9323 31.984 22.9514 31.9758 22.9716 31.972C22.9918 31.9683 23.0126 31.9692 23.0324 31.9746C23.0409 32.0047 23.0842 32.1125 23.0756 32.1342C23.0671 32.1558 22.9377 32.1862 22.9158 32.1643C22.9374 32.2164 23.0324 32.3242 23.0452 32.3455C23.058 32.3669 22.9502 32.4189 22.9072 32.4104C22.8469 32.4061 22.4757 32.1902 22.4111 32.1083L22.4123 32.1074ZM22.9775 31.3911C22.9695 31.3694 22.9542 31.3511 22.9343 31.3394C22.9041 31.3308 22.8048 31.3394 22.8048 31.3911C22.8048 31.4429 22.8902 31.7325 22.986 31.8833C23.0941 32.0343 23.1672 32.1592 23.2406 32.1939C23.2637 32.2044 23.2898 32.2058 23.3138 32.1977C23.3378 32.1897 23.3579 32.1729 23.37 32.1507C23.3786 32.129 23.4002 31.9695 23.3917 31.594C23.3831 31.2185 23.37 30.856 23.3484 30.8344C23.3268 30.8128 23.2406 30.8131 23.2105 30.856C23.1803 30.899 22.986 31.3266 22.9772 31.3911H22.9775Z" fill="#585136"/>
<path fill-rule="evenodd" clip-rule="evenodd" d="M22.5934 33.6006C22.5934 33.6006 22.4424 33.5057 22.2956 33.5705C22.1576 33.6353 22.1661 33.8898 22.1661 33.8898C22.1972 33.902 22.2307 33.9063 22.2638 33.9026C22.2969 33.8988 22.3286 33.887 22.3562 33.8682C22.4512 33.8037 22.5718 33.6959 22.5934 33.6009V33.6006Z" fill="#574F35"/>
<path fill-rule="evenodd" clip-rule="evenodd" d="M22.878 33.9409C22.8695 33.8556 22.7927 33.8556 22.7927 33.8115C22.798 33.7904 22.8102 33.7718 22.8273 33.7584C22.8445 33.7451 22.8657 33.738 22.8874 33.7381C22.9306 33.7381 22.9727 33.7899 23.0256 33.8235C23.0774 33.8536 23.155 33.9088 23.1636 33.9745C23.1721 34.0402 23.0782 34.2203 22.9739 34.2203C22.8695 34.2203 22.9005 34.026 22.8789 33.9398L22.878 33.9409ZM23.7109 33.8243C23.7109 33.8243 23.5382 33.8761 23.551 33.8243C23.5638 33.7725 23.603 33.7598 23.6591 33.7598C23.6876 33.73 23.7258 33.7115 23.7669 33.7077C23.7904 33.7065 23.8134 33.7143 23.8315 33.7293C23.8315 33.7293 23.9481 33.6775 23.9825 33.7077C24.0169 33.7378 23.9913 33.7378 24.0126 33.7725C24.0398 33.8111 24.0576 33.8554 24.0647 33.902C24.0647 33.9364 23.9353 34.0098 23.8315 33.997C23.7109 33.9711 23.7322 33.8459 23.7109 33.8243ZM24.7161 33.63C24.7161 33.63 24.7678 33.6602 24.7249 33.6949C24.6947 33.725 24.5437 33.7802 24.414 33.7899C24.2846 33.7899 24.1682 33.8112 24.1682 33.7683C24.1682 33.7253 24.276 33.6389 24.3406 33.6172C24.3536 33.601 24.37 33.5879 24.3887 33.579C24.4074 33.57 24.4279 33.5654 24.4487 33.5655C24.5005 33.5655 24.703 33.5438 24.7593 33.5353C24.8111 33.5265 24.8543 33.5566 24.8239 33.5999C24.8111 33.63 24.7161 33.63 24.7161 33.63ZM25.0139 32.2976C25.0139 32.2976 24.949 32.4356 24.8759 32.4356C24.8025 32.4271 24.8025 32.4055 24.8025 32.3838C24.8025 32.3537 24.8759 32.276 24.8671 32.2544C24.8458 32.2544 24.7937 32.2544 24.8025 32.2026C24.8025 32.1594 24.8759 32.1076 24.9405 32.1173C24.9893 32.0772 25.05 32.0545 25.1132 32.0527C25.1865 32.0527 25.2511 32.0741 25.2511 32.1173C25.2511 32.1605 25.1658 32.2553 25.1345 32.2772C25.1001 32.3116 25.0568 32.3341 25.0139 32.2985V32.2976ZM24.03 34.8478C24.03 34.8478 23.9447 34.8566 23.9447 34.8996C23.9447 34.9212 23.966 34.9212 23.9964 34.9084C24.014 34.9074 24.0313 34.9044 24.0482 34.8996C24.0567 34.9084 24.0567 34.9513 24.1216 34.9513C24.1748 34.9441 24.2262 34.9266 24.2726 34.8996C24.3244 34.8782 24.3676 34.8563 24.3676 34.8142C24.346 34.7408 24.3028 34.7061 24.2382 34.7061C24.2051 34.704 24.1721 34.7115 24.1432 34.7278C24.1432 34.7278 24.1216 34.6845 24.0482 34.7278C23.9748 34.771 23.9833 34.771 24.005 34.7926C24.0437 34.827 24.0309 34.8495 24.0309 34.8495L24.03 34.8478ZM23.5425 35.2967C23.5425 35.275 23.6503 35.2318 23.6804 35.2449C23.7106 35.2534 23.7968 35.4173 23.7968 35.4346C23.7968 35.4562 23.6889 35.508 23.6457 35.508C23.6025 35.508 23.5294 35.4346 23.5294 35.4227C23.5294 35.4141 23.5811 35.4013 23.5811 35.3925C23.5939 35.3712 23.5425 35.3191 23.5425 35.2975V35.2967ZM23.2011 34.6666C23.2227 34.6581 23.2227 34.6364 23.2529 34.6148C23.2623 34.6085 23.2731 34.6045 23.2843 34.603C23.2956 34.6015 23.307 34.6027 23.3177 34.6063C23.3254 34.5927 23.3359 34.581 23.3486 34.572C23.3613 34.563 23.3758 34.5569 23.3911 34.5542C23.4429 34.5457 23.4861 34.5542 23.4765 34.5759C23.4765 34.6407 23.5197 34.6837 23.5197 34.7354C23.5197 34.7872 23.4896 34.8521 23.3817 34.8953C23.2739 34.9254 23.1272 34.9254 23.1056 34.9169C23.0839 34.9084 23.0623 34.8219 23.0839 34.7787C23.1056 34.7354 23.1659 34.6882 23.2006 34.6666H23.2011Z" fill="#82764F"/>
<path fill-rule="evenodd" clip-rule="evenodd" d="M23.339 34.6963C23.339 34.6963 23.2655 34.7395 23.2655 34.7611C23.259 34.782 23.2561 34.8038 23.257 34.8257C23.257 34.8385 23.352 34.8171 23.3649 34.8041C23.3691 34.7955 23.339 34.7188 23.339 34.6963Z" fill="#6E6342"/>
<path fill-rule="evenodd" clip-rule="evenodd" d="M22.6966 34.4933C22.7396 34.5021 22.813 34.4933 22.869 34.5149C22.9122 34.5365 22.9424 34.5797 22.8992 34.6315C22.8559 34.6832 22.8138 34.7608 22.718 34.7478C22.6102 34.7392 22.5066 34.6832 22.5066 34.64C22.5048 34.6126 22.5085 34.5852 22.5174 34.5593C22.5263 34.5334 22.5402 34.5095 22.5584 34.489C22.6016 34.4546 22.623 34.4762 22.6964 34.4933H22.6966Z" fill="#585136"/>
<path fill-rule="evenodd" clip-rule="evenodd" d="M22.6449 34.5371C22.6449 34.5371 22.507 34.6449 22.4723 34.697C22.429 34.7487 22.2177 35.0161 22.1531 35.0721C22.1745 35.0343 22.199 34.9983 22.2262 34.9643C22.1409 35.0189 22.0769 35.1012 22.045 35.1973C21.9932 35.3572 22.3343 35.4433 22.5585 35.5082C22.7826 35.5731 22.8694 35.5935 22.8694 35.5935C22.7868 35.4695 22.716 35.3381 22.6577 35.201C22.5724 34.9982 22.5283 34.9766 22.5843 34.8816C22.6276 34.7866 22.6924 34.722 22.6924 34.6486C22.6665 34.5803 22.6449 34.5371 22.6449 34.5371Z" fill="#574F35"/>
<path fill-rule="evenodd" clip-rule="evenodd" d="M17.7258 34.8781C17.7573 34.8839 17.7894 34.8839 17.8209 34.8781C17.8854 34.8693 18.5587 34.6221 19.2621 34.6665C19.7887 34.6983 20.3107 34.7841 20.8197 34.9225C21.7044 35.1554 22.8046 35.6171 23.5165 35.8805C23.7063 35.9536 23.892 36.0833 24.0285 36.1348C24.5724 36.3465 24.5937 36.3465 24.9131 36.4025C25.2886 36.4543 25.6726 36.3291 26.074 36.2429C26.5658 36.1348 27.4071 36.0831 28.145 35.9753C28.3836 35.9422 28.6189 35.8888 28.8484 35.8157C28.8484 35.8157 28.2616 36.4025 26.8548 36.6139C26.2861 36.7002 25.7082 36.7075 25.1376 36.6355C24.6887 36.5922 24.3912 36.5274 24.1668 36.4628C23.9122 36.3894 23.39 36.1951 22.7471 36.0361C22.2983 35.9195 21.7976 35.8333 21.2239 35.7255C19.8085 35.4664 18.2725 35.1688 17.7253 34.8798L17.7258 34.8781Z" fill="#252211"/>
<path fill-rule="evenodd" clip-rule="evenodd" d="M16.1379 32.2109C15.7965 32.4999 15.4344 32.7761 15.0809 33.0435L14.0151 33.8624C13.6527 34.1298 13.2988 34.406 12.9362 34.6737C12.5735 34.9413 12.2114 35.1956 11.8268 35.4417C12.1682 35.1527 12.5303 34.885 12.8926 34.6219C13.255 34.3588 13.6308 34.1008 13.9804 33.834L15.0462 33.0139C15.4128 32.7465 15.7667 32.4704 16.1379 32.2115V32.2109ZM14.2523 35.2315C14.2523 35.2315 14.6363 34.912 15.1153 34.4635C15.7106 33.9071 16.4399 33.1948 16.6729 33.0657L14.252 35.2317L14.2523 35.2315Z" fill="#CFB66C"/>
<path fill-rule="evenodd" clip-rule="evenodd" d="M14.2523 35.2315C14.4423 35.0418 14.6451 34.8563 14.8479 34.6748L15.1585 34.4075C15.2535 34.3221 15.3616 34.2263 15.4563 34.1313C15.6461 33.9415 15.8318 33.7385 16.0215 33.5445C16.1156 33.4469 16.215 33.3547 16.3193 33.2683C16.3715 33.2221 16.4295 33.1829 16.4917 33.1516C16.5438 33.1215 16.5998 33.0663 16.6729 33.0566C16.63 33.1215 16.5782 33.1516 16.535 33.2077C16.4832 33.2509 16.44 33.3027 16.397 33.3456C16.302 33.4406 16.1942 33.5268 16.0992 33.6133C15.8964 33.786 15.685 33.9546 15.4822 34.1353C15.2794 34.3159 15.0897 34.5107 14.8866 34.6919C14.6667 34.8777 14.4639 35.0588 14.2523 35.2324V35.2315ZM16.8328 33.5055C16.8328 33.5055 15.4262 34.8822 15.1369 35.1063L16.8328 33.5055Z" fill="#CFB66C"/>
<path fill-rule="evenodd" clip-rule="evenodd" d="M16.8329 33.5059C16.7064 33.6523 16.5707 33.7907 16.4267 33.92L16.0001 34.3256C15.8621 34.4636 15.7324 34.6018 15.5859 34.7398C15.4349 34.8692 15.2969 34.9958 15.1371 35.1152L15.5512 34.7096C15.6894 34.5717 15.8405 34.4553 15.9873 34.3171L16.4014 33.9115C16.5436 33.7693 16.6819 33.631 16.8329 33.5059ZM16.8975 34.2522C16.7678 34.6141 16.6151 34.9673 16.4401 35.3095C16.0777 36.0346 15.5341 36.9405 15.2966 37.4025L16.8975 34.2522Z" fill="#CFB66C"/>
<path fill-rule="evenodd" clip-rule="evenodd" d="M16.8974 34.252C16.8974 34.4115 16.8541 34.5498 16.8024 34.6877C16.7519 34.8258 16.6944 34.9612 16.63 35.0933C16.5651 35.2228 16.4917 35.361 16.4184 35.4862C16.345 35.6113 16.2588 35.7404 16.1939 35.8702L15.7582 36.6382C15.6071 36.8942 15.4604 37.1516 15.3008 37.3976C15.4086 37.1214 15.5554 36.8626 15.6936 36.608C15.8446 36.352 15.9826 36.096 16.1203 35.8312C16.1875 35.6992 16.248 35.5639 16.3015 35.4259C16.366 35.2876 16.4306 35.1582 16.4826 35.033C16.5472 34.8951 16.599 34.7654 16.6638 34.6405C16.7369 34.5065 16.7975 34.3771 16.8968 34.252H16.8974Z" fill="#CFB66C"/>
<path fill-rule="evenodd" clip-rule="evenodd" d="M18.4336 37.79C18.4336 37.79 18.0069 38.3552 18.0496 39.0715C18.1659 38.6963 18.3127 38.1223 18.4336 37.79ZM18.8392 38.3567C18.8392 38.3567 18.6881 39.8927 18.563 40.6479C18.7399 39.7749 18.7743 39.8483 18.8392 38.3567ZM21.6654 40.7386C21.6654 40.7386 21.0268 42.6159 21.0137 43.1376C21.152 42.6011 21.4193 41.5052 21.6654 40.7372V40.7386Z" fill="#DEC270"/>
<path fill-rule="evenodd" clip-rule="evenodd" d="M23.1589 37.6738C23.1589 37.6738 24.1945 39.3825 24.9714 40.8408C24.7612 40.107 24.2776 38.761 23.1589 37.6738Z" fill="#CBAF59"/>
<path fill-rule="evenodd" clip-rule="evenodd" d="M25.9421 40.1895C26.5107 41.1946 27.0235 42.2303 27.4781 43.2919C27.3919 42.5583 27.1586 41.3028 25.9421 40.1895Z" fill="#E3C677"/>
<path fill-rule="evenodd" clip-rule="evenodd" d="M34.1228 42.7088C34.2951 42.601 34.6362 42.0139 34.934 41.8674C35.2315 41.7164 35.4559 41.6863 35.7236 41.3884C35.991 41.0775 36.0649 40.8878 36.6512 40.6421C37.4712 40.2879 36.9072 39.8305 36.9072 39.8305C36.9975 39.7418 37.0941 39.6597 37.1962 39.5848C37.4078 39.4252 37.6535 39.2309 37.6322 38.8899C37.6021 38.3162 37.4943 37.4833 37.0238 37C37.4812 36.905 38.357 36.8405 38.9011 36.7025C39.5309 36.5426 39.8201 36.3182 39.8201 36.3182C39.8201 36.3182 39.4578 35.7013 40.0446 35.08C40.6314 34.4588 41.1104 34.0876 41.4642 33.3927C41.0586 33.3409 40.4402 33.1253 38.8621 33.7249C38.9473 33.765 39.0295 33.8111 39.1082 33.8629C39.1082 33.8629 38.1374 34.1306 37.7835 34.4284C37.1663 34.9503 37.0886 35.3776 36.4199 35.697C35.7512 36.0164 35.0779 35.93 34.5215 36.1888C33.9652 36.4476 33.883 36.6678 33.6799 36.7628C33.7231 36.8146 33.6713 36.9008 33.7533 36.9741C33.7015 37.0475 33.3994 37.5393 33.0931 37.5393C33.1232 37.656 33.3821 37.7421 33.3821 37.7421C33.3821 37.7421 33.1923 37.8804 32.7091 37.9148C32.9548 38.1708 33.1881 38.4498 33.8309 38.8555C33.7791 38.9633 33.5633 39.1231 33.6497 39.3259C33.7447 39.5287 33.9911 39.8049 34.9744 40.0294C34.4738 40.0507 33.8872 40.1673 33.0971 40.0595C32.3074 39.9645 32.178 39.9085 31.6905 40.0294C31.7422 40.0811 31.8802 40.0811 32.0011 40.2191C31.8717 40.2276 31.0604 40.1241 30.7842 40.4868C30.4953 40.8619 30.3701 41.4792 30.3917 41.8933C30.2407 41.9667 30.0939 42.0961 30.1673 42.3638C30.2407 42.6315 30.6247 42.7176 30.8707 42.8858C31.1165 43.0669 31.1381 43.1315 31.3713 43.0886C31.6171 43.0368 31.9795 42.791 32.1911 42.791C32.4027 42.791 32.5535 42.9506 32.5535 42.9506C32.5535 42.9506 33.1275 42.6744 33.1835 42.7262C33.2353 42.778 33.1921 43.1102 33.2481 43.162C33.305 43.2009 33.9515 42.8169 34.1242 42.7088H34.1228Z" fill="#ECD592"/>
<path fill-rule="evenodd" clip-rule="evenodd" d="M46.667 25.4411C43.9702 18.4768 37.3034 17.1865 37.3034 17.1865H18.2828L18.3562 24.2803H22.1442V40.1207H18.2826V47.2017H36.7769C41.2341 47.2017 44.807 42.7225 44.807 42.7225C50.5286 34.6019 46.6667 25.4411 46.6667 25.4411H46.667ZM36.8761 37.9501C36.8761 37.9501 35.4255 40.0431 33.8471 40.0431H30.6897L30.6149 24.2976H34.6668C34.6668 24.2976 36.5442 24.6902 37.8558 28.4053C37.8558 28.4053 39.5946 33.7244 36.8761 37.9501Z" fill="white" fill-opacity="0.8"/>
</svg>
