<svg width="46" height="46" viewBox="0 0 46 46" fill="none" xmlns="http://www.w3.org/2000/svg">
<g clip-path="url(#clip0_0_104)">
<path d="M26.7426 25.3438C27.7109 24.0225 28.1446 22.3844 27.9569 20.757C27.7692 19.1297 26.974 17.6333 25.7304 16.5671C24.4868 15.5009 22.8864 14.9435 21.2495 15.0066C19.6126 15.0697 18.0599 15.7485 16.902 16.9072C15.7441 18.066 15.0664 19.6192 15.0045 21.2561C14.9426 22.893 15.501 24.493 16.5681 25.7359C17.6352 26.9787 19.1322 27.7729 20.7597 27.9594C22.3872 28.1459 24.025 27.711 25.3456 26.7418H25.3446C25.3746 26.7818 25.4066 26.8198 25.4426 26.8568L29.2926 30.7068C29.4801 30.8944 29.7345 30.9999 29.9997 31C30.265 31.0001 30.5194 30.8948 30.7071 30.7073C30.8947 30.5198 31.0002 30.2654 31.0003 30.0001C31.0004 29.7349 30.8951 29.4804 30.7076 29.2928L26.8576 25.4428C26.8219 25.4066 26.7834 25.3732 26.7426 25.3428V25.3438ZM27.0006 21.4999C27.0006 22.2221 26.8584 22.9373 26.582 23.6046C26.3056 24.2719 25.9004 24.8782 25.3897 25.3889C24.879 25.8996 24.2727 26.3048 23.6054 26.5812C22.9381 26.8576 22.2229 26.9998 21.5007 26.9998C20.7784 26.9998 20.0632 26.8576 19.3959 26.5812C18.7286 26.3048 18.1223 25.8996 17.6116 25.3889C17.1009 24.8782 16.6958 24.2719 16.4194 23.6046C16.143 22.9373 16.0007 22.2221 16.0007 21.4999C16.0007 20.0412 16.5802 18.6423 17.6116 17.6108C18.6431 16.5794 20.042 15.9999 21.5007 15.9999C22.9593 15.9999 24.3583 16.5794 25.3897 17.6108C26.4212 18.6423 27.0006 20.0412 27.0006 21.4999Z" fill="#FED700"/>
</g>
<defs>
<clipPath id="clip0_0_104">
<rect width="16.0006" height="16.0003" fill="white" transform="translate(14.9998 14.9998)"/>
</clipPath>
</defs>
</svg>
