<svg width="43" height="43" viewBox="0 0 43 43" fill="none" xmlns="http://www.w3.org/2000/svg">
<g clip-path="url(#clip0_122_1934)">
<path d="M36.7028 6.29723C32.642 2.23634 27.2429 0 21.5 0C15.7571 0 10.358 2.23634 6.29723 6.29723C2.23642 10.358 0 15.7571 0 21.5C0 27.2429 2.23642 32.642 6.29723 36.7028C10.358 40.7637 15.7571 43 21.5 43C27.2429 43 32.642 40.7637 36.7028 36.7028C40.7636 32.642 43 27.2429 43 21.5C43 15.7571 40.7636 10.358 36.7028 6.29723ZM35.7507 35.7506C31.9441 39.5571 26.8831 41.6535 21.5 41.6535C16.1169 41.6535 11.0559 39.5571 7.24928 35.7506C3.44286 31.9441 1.34652 26.8831 1.34652 21.5C1.34652 16.1169 3.44286 11.0559 7.24928 7.24936C11.0559 3.44294 16.1169 1.34652 21.5 1.34652C26.8831 1.34652 31.9441 3.44294 35.7507 7.24936C39.5571 11.0558 41.6535 16.1168 41.6535 21.5C41.6535 26.8832 39.5571 31.9441 35.7507 35.7506Z" fill="#FFCE00"/>
<path d="M21.5 3.59085C11.6248 3.59085 3.59082 11.6248 3.59082 21.5C3.59082 31.3752 11.6248 39.4092 21.5 39.4092C31.3752 39.4092 39.4091 31.3752 39.4091 21.5C39.4091 11.6248 31.3752 3.59085 21.5 3.59085ZM21.5 38.0627C12.3673 38.0627 4.93734 30.6326 4.93734 21.5C4.93734 12.3674 12.3673 4.93737 21.5 4.93737C30.6327 4.93737 38.0626 12.3674 38.0626 21.5C38.0626 30.6326 30.6327 38.0627 21.5 38.0627Z" fill="#FFCE00"/>
<path d="M26.3301 20.5092C27.2984 19.7269 27.9188 18.53 27.9188 17.1911C27.9188 14.84 26.0059 12.9271 23.6548 12.9271H22.8917V11.4458C22.8917 11.0739 22.5902 10.7725 22.2184 10.7725C21.8465 10.7725 21.5451 11.0739 21.5451 11.4458V12.9271H20.019V11.4458C20.019 11.0739 19.7176 10.7725 19.3457 10.7725C18.9738 10.7725 18.6724 11.0739 18.6724 11.4458V12.9271H15.7548C15.383 12.9271 15.0815 13.2284 15.0815 13.6004C15.0815 13.9722 15.383 14.2737 15.7548 14.2737H16.5179V28.7267H15.7548C15.383 28.7267 15.0815 29.028 15.0815 29.4C15.0815 29.7719 15.383 30.0733 15.7548 30.0733H18.6724V31.5545C18.6724 31.9264 18.9738 32.2278 19.3457 32.2278C19.7176 32.2278 20.019 31.9265 20.019 31.5545V30.0733H21.5451V31.5545C21.5451 31.9264 21.8465 32.2278 22.2184 32.2278C22.5902 32.2278 22.8917 31.9265 22.8917 31.5545V30.0733H24.3729C27.1201 30.0733 29.3552 27.8383 29.3552 25.091C29.3551 23.0379 28.1072 21.2711 26.3301 20.5092ZM17.8645 14.2735H23.6548C25.2635 14.2735 26.5723 15.5822 26.5723 17.191C26.5723 18.7998 25.2635 20.1086 23.6548 20.1086H17.8645V14.2735ZM24.3729 28.7265H17.8645V21.4552H24.3729C26.3777 21.4552 28.0086 23.0861 28.0086 25.0909C28.0086 27.0956 26.3776 28.7265 24.3729 28.7265Z" fill="#FFCE00"/>
</g>
<defs>
<clipPath id="clip0_122_1934">
<rect width="43" height="43" fill="white"/>
</clipPath>
</defs>
</svg>
