<svg width="16" height="12" viewBox="0 0 16 12" fill="none" xmlns="http://www.w3.org/2000/svg">
<mask id="mask0_0_1010" style="mask-type:luminance" maskUnits="userSpaceOnUse" x="0" y="0" width="16" height="12">
<rect width="16" height="12" fill="white"/>
</mask>
<g mask="url(#mask0_0_1010)">
<path fill-rule="evenodd" clip-rule="evenodd" d="M0 0V12H16V0H0Z" fill="#FFB400"/>
<mask id="mask1_0_1010" style="mask-type:luminance" maskUnits="userSpaceOnUse" x="0" y="0" width="16" height="12">
<path fill-rule="evenodd" clip-rule="evenodd" d="M0 0V12H16V0H0Z" fill="white"/>
</mask>
<g mask="url(#mask1_0_1010)">
<path fill-rule="evenodd" clip-rule="evenodd" d="M0 0V3H16V0H0Z" fill="#C51918"/>
<path fill-rule="evenodd" clip-rule="evenodd" d="M0 9V12H16V9H0Z" fill="#C51918"/>
<rect x="2.50391" y="5.13599" width="0.56" height="2.912" fill="#F1F9FF"/>
<path fill-rule="evenodd" clip-rule="evenodd" d="M3.28779 4.63196H2.27979V4.91196H2.44779V5.13596H3.11979V4.91196H3.28779V4.63196Z" fill="#C88A02"/>
<path fill-rule="evenodd" clip-rule="evenodd" d="M3.11979 8.21594H3.28779V8.49594H2.27979V8.21594H2.44779V7.99194H3.11979V8.21594Z" fill="#C88A02"/>
<path fill-rule="evenodd" clip-rule="evenodd" d="M2.78409 4.68796C2.90596 4.68796 2.91834 4.64207 2.99024 4.57354C3.04607 4.52032 3.17609 4.45431 3.17609 4.37996C3.17609 4.20986 3.00059 4.07196 2.78409 4.07196C2.56759 4.07196 2.39209 4.20986 2.39209 4.37996C2.39209 4.46279 2.48163 4.51818 2.54933 4.57354C2.62066 4.63185 2.67302 4.68796 2.78409 4.68796Z" fill="#AD1619"/>
<path fill-rule="evenodd" clip-rule="evenodd" d="M2.27979 8.49597H3.28779V8.94397C3.28779 8.94397 3.16179 8.88797 3.03579 8.88797C2.90979 8.88797 2.78379 8.94397 2.78379 8.94397C2.78379 8.94397 2.65779 8.88797 2.53179 8.88797C2.40579 8.88797 2.27979 8.94397 2.27979 8.94397V8.49597Z" fill="#005BBF"/>
<mask id="mask2_0_1010" style="mask-type:luminance" maskUnits="userSpaceOnUse" x="2" y="8" width="2" height="1">
<path fill-rule="evenodd" clip-rule="evenodd" d="M2.27979 8.49597H3.28779V8.94397C3.28779 8.94397 3.16179 8.88797 3.03579 8.88797C2.90979 8.88797 2.78379 8.94397 2.78379 8.94397C2.78379 8.94397 2.65779 8.88797 2.53179 8.88797C2.40579 8.88797 2.27979 8.94397 2.27979 8.94397V8.49597Z" fill="white"/>
</mask>
<g mask="url(#mask2_0_1010)">
</g>
<rect x="7.9917" y="5.13599" width="0.56" height="2.912" fill="#F1F9FF"/>
<path fill-rule="evenodd" clip-rule="evenodd" d="M8.77607 4.63196H7.76807V4.91196H7.93607V5.13596H8.60807V4.91196H8.77607V4.63196Z" fill="#C88A02"/>
<path fill-rule="evenodd" clip-rule="evenodd" d="M8.60807 8.21594H8.77607V8.49594H7.76807V8.21594H7.93607V7.99194H8.60807V8.21594Z" fill="#C88A02"/>
<path fill-rule="evenodd" clip-rule="evenodd" d="M8.27188 4.68796C8.39375 4.68796 8.40614 4.64207 8.47803 4.57354C8.53386 4.52032 8.66388 4.45431 8.66388 4.37996C8.66388 4.20986 8.48838 4.07196 8.27188 4.07196C8.05539 4.07196 7.87988 4.20986 7.87988 4.37996C7.87988 4.46279 7.96942 4.51818 8.03712 4.57354C8.10845 4.63185 8.16081 4.68796 8.27188 4.68796Z" fill="#AD1619"/>
<path fill-rule="evenodd" clip-rule="evenodd" d="M7.76807 8.49597H8.77607V8.94397C8.77607 8.94397 8.65007 8.88797 8.52407 8.88797C8.39807 8.88797 8.27207 8.94397 8.27207 8.94397C8.27207 8.94397 8.14607 8.88797 8.02007 8.88797C7.89407 8.88797 7.76807 8.94397 7.76807 8.94397V8.49597Z" fill="#005BBF"/>
<mask id="mask3_0_1010" style="mask-type:luminance" maskUnits="userSpaceOnUse" x="7" y="8" width="2" height="1">
<path fill-rule="evenodd" clip-rule="evenodd" d="M7.76807 8.49597H8.77607V8.94397C8.77607 8.94397 8.65007 8.88797 8.52407 8.88797C8.39807 8.88797 8.27207 8.94397 8.27207 8.94397C8.27207 8.94397 8.14607 8.88797 8.02007 8.88797C7.89407 8.88797 7.76807 8.94397 7.76807 8.94397V8.49597Z" fill="white"/>
</mask>
<g mask="url(#mask3_0_1010)">
</g>
<path fill-rule="evenodd" clip-rule="evenodd" d="M2.49388 7.83994C2.59484 7.71754 2.6513 7.60618 2.6513 7.48791C2.6513 7.41334 2.62911 7.34893 2.59023 7.29631L2.5968 7.29336C2.59619 7.29363 2.70756 7.24509 2.74633 7.22649C2.81841 7.19194 2.8819 7.15533 2.94382 7.11031C2.98334 7.08156 3.0363 7.05025 3.11703 7.0069L3.21338 6.95568C3.25262 6.93474 3.28183 6.9187 3.30898 6.90295C3.39356 6.85389 3.44946 6.81334 3.49221 6.75912C3.59347 6.63072 3.57245 6.45666 3.43055 6.36005C3.36103 6.31272 3.26722 6.28556 3.1297 6.26418L2.93303 6.23369C2.86722 6.22336 2.8085 6.21372 2.75615 6.20457C3.10043 6.14728 3.59205 6.16834 3.8083 6.27999L4.01383 5.88192C3.57316 5.65439 2.56909 5.67763 2.19403 5.93592C1.91893 6.12538 1.95584 6.41176 2.24207 6.53508C2.36167 6.58661 2.51758 6.6208 2.80611 6.66715C2.75776 6.6952 2.71767 6.72083 2.68032 6.74799C2.64244 6.77553 2.60186 6.79893 2.55264 6.82253C2.5291 6.83382 2.4594 6.86442 2.42744 6.87845L2.42742 6.87846L2.42742 6.87847L2.41136 6.88554C2.17822 6.99155 2.06507 7.1382 2.09888 7.40293L2.11718 7.54624L2.15001 7.55632L2.49388 7.83994ZM2.20569 7.4696L2.20498 7.47166L2.20552 7.4702L2.20569 7.4696ZM8.35288 7.48791C8.35288 7.60618 8.40933 7.71754 8.5103 7.83994L8.85416 7.55632L8.88699 7.54624L8.9053 7.40293C8.93911 7.1382 8.82596 6.99155 8.59282 6.88554L8.57676 6.87846C8.54481 6.86444 8.47508 6.83382 8.45154 6.82253C8.40232 6.79893 8.36173 6.77553 8.32385 6.74799C8.28651 6.72083 8.24642 6.6952 8.19807 6.66715C8.48659 6.6208 8.64251 6.58661 8.76211 6.53508C9.04833 6.41176 9.08525 6.12538 8.81015 5.93592C8.43509 5.67763 7.43102 5.65439 6.99035 5.88192L7.19588 6.27999C7.41212 6.16834 7.90374 6.14728 8.24803 6.20457C8.19567 6.21372 8.13696 6.22336 8.07115 6.23369L7.87447 6.26418C7.73696 6.28556 7.64315 6.31272 7.57363 6.36005C7.43173 6.45666 7.4107 6.63072 7.51196 6.75912C7.55472 6.81334 7.61061 6.85389 7.6952 6.90295C7.72234 6.9187 7.75156 6.93474 7.7908 6.95568L7.88714 7.0069C7.96788 7.05025 8.02083 7.08156 8.06036 7.11031C8.12227 7.15533 8.18577 7.19194 8.25785 7.22649C8.29662 7.24509 8.40798 7.29363 8.40738 7.29336L8.41395 7.29631C8.37507 7.34893 8.35288 7.41334 8.35288 7.48791Z" fill="#AD1619"/>
<path d="M2.96158 6.19995L3.12688 6.23415V6.48052C2.95083 6.62098 2.50391 6.85773 2.50391 6.85773V6.19995H2.96158Z" fill="#F1F9FF"/>
<path d="M8.15707 6.19995L7.99178 6.23415V6.48052C8.16782 6.62098 8.61475 6.85773 8.61475 6.85773V6.19995H8.15707Z" fill="#F1F9FF"/>
<path fill-rule="evenodd" clip-rule="evenodd" d="M7.38807 3.60295V3.52096C7.10003 3.31424 6.79839 3.21088 6.48316 3.21088C6.18095 3.07714 5.87505 3.02523 5.56546 3.05514C5.56555 3.05418 5.56559 3.0537 5.56559 3.0537C5.1001 3.00815 4.63099 3.21088 4.63099 3.21088C4.15813 3.21088 3.72607 3.52096 3.72607 3.52096V3.60295L4.29089 4.17022C4.29089 4.17022 4.44982 4.71602 5.5627 4.58796C5.56309 4.58883 5.56329 4.58928 5.56329 4.58928C5.56329 4.58928 6.30047 4.56915 6.35227 4.55193C6.37282 4.54509 6.39413 4.53887 6.41591 4.53251C6.5603 4.49035 6.72514 4.44223 6.82326 4.17022L7.38807 3.60295ZM5.56293 3.08447C5.5606 3.11198 5.55691 3.15678 5.55255 3.21405C5.55809 3.17301 5.5618 3.12995 5.56293 3.08447Z" fill="#AD1619"/>
<path fill-rule="evenodd" clip-rule="evenodd" d="M3.75977 3.69917L3.79814 3.65839L4.31098 4.14089C4.40833 4.11471 4.93675 3.98006 5.52699 3.97343V3.97318L5.54945 3.97324L5.5719 3.97318V3.97343C6.22585 3.98077 6.8039 4.14527 6.8039 4.14527C6.8039 4.14527 6.79771 4.19835 6.78266 4.26074C6.79859 4.22808 6.81746 4.19178 6.83928 4.15172L6.84468 4.14472L7.3616 3.65839L7.39997 3.69917L6.88632 4.18243C6.81138 4.32044 6.77364 4.41154 6.77364 4.44938C6.77364 4.50711 6.62345 4.54137 6.33032 4.57657C6.10067 4.60414 5.82966 4.62265 5.60797 4.62541V4.62577L5.57987 4.62568L5.55177 4.62577V4.62541C5.33008 4.62265 5.05906 4.60414 4.82942 4.57657C4.53629 4.54137 4.3861 4.50711 4.3861 4.44938C4.3861 4.44222 4.38475 4.43316 4.38205 4.42223C4.35249 4.38459 4.33171 4.32301 4.31788 4.26746C4.3049 4.24148 4.29008 4.21312 4.27342 4.18243L3.75977 3.69917ZM6.6264 4.45048C6.66564 4.46884 6.69709 4.45052 6.72196 4.41536C6.71981 4.42507 6.71846 4.43385 6.71792 4.44171C6.71463 4.44387 6.7096 4.44645 6.70299 4.44923C6.68454 4.45699 6.65637 4.46525 6.61972 4.47361C6.54769 4.49004 6.44516 4.50638 6.32364 4.52097C6.08635 4.54946 5.80418 4.56821 5.57987 4.56968C5.35555 4.56821 5.07339 4.54946 4.8361 4.52097C4.71458 4.50638 4.61205 4.49004 4.54001 4.47361C4.5093 4.4666 4.48453 4.45966 4.46646 4.45303L4.47249 4.45048C4.59482 4.39323 5.40377 4.33952 5.54945 4.33025C5.69513 4.33952 6.50407 4.39323 6.6264 4.45048ZM6.78067 4.44022L6.77983 4.4412L6.78033 4.44049L6.78067 4.44022Z" fill="#C88A02"/>
<path fill-rule="evenodd" clip-rule="evenodd" d="M5.55618 2.67352C5.64897 2.67352 5.72418 2.59831 5.72418 2.50552C5.72418 2.41274 5.64897 2.33752 5.55618 2.33752C5.4634 2.33752 5.38818 2.41274 5.38818 2.50552C5.38818 2.59831 5.4634 2.67352 5.55618 2.67352Z" fill="#005BBF"/>
<path fill-rule="evenodd" clip-rule="evenodd" d="M5.49343 2.03827H5.6101V2.11197H5.68633V2.22864H5.6101V2.46197H5.68633V2.57864H5.41602V2.46197H5.49343V2.22864H5.41602V2.11197H5.49343V2.03827Z" fill="#C88A02"/>
<rect x="5.47217" y="2.672" width="0.224" height="0.728" fill="#C88A02"/>
<path d="M3.854 3.64843L3.54639 3.63686C3.69152 2.79807 4.40631 2.38708 5.54852 2.38708C6.69221 2.38708 7.40447 2.79985 7.53869 3.64176L7.12265 3.6854C7.05734 3.2757 6.3711 2.90493 5.55453 2.90493C4.73648 2.90493 3.92543 3.23561 3.854 3.64843Z" fill="#C88A02"/>
<path opacity="0.3" fill-rule="evenodd" clip-rule="evenodd" d="M3.73584 4.63196H7.37584V7.90237C7.37584 7.90237 7.10545 8.99996 5.55584 8.99996C4.00623 8.99996 3.73584 7.87343 3.73584 7.87343V4.63196Z" fill="#E1E5E8"/>
<mask id="mask4_0_1010" style="mask-type:luminance" maskUnits="userSpaceOnUse" x="3" y="4" width="5" height="5">
<path fill-rule="evenodd" clip-rule="evenodd" d="M3.73584 4.63196H7.37584V7.90237C7.37584 7.90237 7.10545 8.99996 5.55584 8.99996C4.00623 8.99996 3.73584 7.87343 3.73584 7.87343V4.63196Z" fill="white"/>
</mask>
<g mask="url(#mask4_0_1010)">
<rect x="3.73584" y="6.64795" width="1.848" height="2.184" fill="#FFC034"/>
<rect x="3.73584" y="4.57593" width="1.848" height="2.128" fill="#AD1619"/>
<rect x="5.52783" y="6.59198" width="1.848" height="2.128" fill="#AD1619"/>
<rect x="5.52783" y="4.63196" width="1.96" height="2.072" fill="#F1F9FF"/>
<path fill-rule="evenodd" clip-rule="evenodd" d="M6.74109 8.72129C6.74109 8.72129 5.55499 8.81454 5.55499 8.04956C5.55499 8.04956 5.54368 8.72129 4.30518 8.72129V9.3252H6.74109V8.72129Z" fill="#F1F9FF"/>
<path fill-rule="evenodd" clip-rule="evenodd" d="M5.55574 7.09595C5.7877 7.09595 5.97574 6.89537 5.97574 6.64795C5.97574 6.40053 5.7877 6.19995 5.55574 6.19995C5.32378 6.19995 5.13574 6.40053 5.13574 6.64795C5.13574 6.89537 5.32378 7.09595 5.55574 7.09595Z" fill="#005BBF" stroke="#AD1619" stroke-width="0.583333"/>
</g>
<path fill-rule="evenodd" clip-rule="evenodd" d="M4.5 6C4.77614 6 5 5.77614 5 5.5C5 5.22386 4.77614 5 4.5 5C4.22386 5 4 5.22386 4 5.5C4 5.77614 4.22386 6 4.5 6Z" fill="#C88A02"/>
<path fill-rule="evenodd" clip-rule="evenodd" d="M6.5 6C6.77614 6 7 5.77614 7 5.5C7 5.22386 6.77614 5 6.5 5C6.22386 5 6 5.22386 6 5.5C6 5.77614 6.22386 6 6.5 6Z" fill="#C37C9C"/>
<path fill-rule="evenodd" clip-rule="evenodd" d="M6.5 8C6.77614 8 7 7.77614 7 7.5C7 7.22386 6.77614 7 6.5 7C6.22386 7 6 7.22386 6 7.5C6 7.77614 6.22386 8 6.5 8Z" fill="#FFC034"/>
<path d="M4.5 8C4.77614 8 5 7.77614 5 7.5C5 7.22386 4.77614 7 4.5 7C4.22386 7 4 7.22386 4 7.5C4 7.77614 4.22386 8 4.5 8Z" fill="#AD1619"/>
</g>
</g>
</svg>
