<svg width="70" height="70" viewBox="0 0 70 70" fill="none" xmlns="http://www.w3.org/2000/svg">
<path fill-rule="evenodd" clip-rule="evenodd" d="M16.5217 9.88329L5.88097 32.2296C5.83842 32.3106 5.82376 32.4033 5.83927 32.4935C5.85478 32.5836 5.8996 32.6661 5.96676 32.7282L34.6907 60.2662C34.7733 60.3407 34.8806 60.382 34.9919 60.382C35.1032 60.382 35.2105 60.3407 35.2931 60.2662L64.0342 32.7282C64.1007 32.6657 64.145 32.5832 64.1605 32.4933C64.176 32.4033 64.1618 32.3108 64.12 32.2296L53.4793 9.88329C53.451 9.80556 53.3989 9.73874 53.3305 9.69235C53.262 9.64597 53.1806 9.62237 53.0979 9.62495H16.8992C16.8176 9.62718 16.7384 9.65268 16.6708 9.69846C16.6033 9.74423 16.5502 9.80836 16.5179 9.88329H16.5217Z" fill="#50AF95"/>
<path fill-rule="evenodd" clip-rule="evenodd" d="M38.6974 34.5159C38.4914 34.533 37.4257 34.6017 35.0529 34.6017C33.1625 34.6017 31.8212 34.5502 31.3398 34.5159C24.0346 34.1898 18.5856 32.9172 18.5856 31.4043C18.5856 29.8914 24.0346 28.6025 31.3398 28.2765V33.2441C31.8164 33.2785 33.1797 33.3643 35.07 33.3643C37.3389 33.3643 38.4733 33.2613 38.6802 33.2441V28.2765C45.9682 28.6025 51.4172 29.8752 51.4172 31.3871C51.4172 32.8991 45.9834 34.1898 38.6974 34.5159ZM38.6974 27.7779V23.3251H48.8738V16.5356H21.1642V23.3251H31.3398V27.7779C23.0718 28.1592 16.8496 29.7884 16.8496 31.7656C16.8496 33.7427 23.0718 35.3586 31.3398 35.7532V50.0041H38.6974V35.7532C46.9482 35.3719 53.1542 33.7418 53.1542 31.7827C53.1542 29.8237 46.9482 28.1554 38.6974 27.7789V27.7779Z" fill="white"/>
</svg>
