<svg width="16" height="12" viewBox="0 0 16 12" fill="none" xmlns="http://www.w3.org/2000/svg">
<mask id="mask0_0_851" style="mask-type:luminance" maskUnits="userSpaceOnUse" x="0" y="0" width="16" height="12">
<rect width="16" height="12" fill="white"/>
</mask>
<g mask="url(#mask0_0_851)">
<path fill-rule="evenodd" clip-rule="evenodd" d="M0 0V12H16V0H0Z" fill="#FFB400"/>
<mask id="mask1_0_851" style="mask-type:luminance" maskUnits="userSpaceOnUse" x="0" y="0" width="16" height="12">
<path fill-rule="evenodd" clip-rule="evenodd" d="M0 0V12H16V0H0Z" fill="white"/>
</mask>
<g mask="url(#mask1_0_851)">
<path fill-rule="evenodd" clip-rule="evenodd" d="M0 0V3H16V0H0Z" fill="#C51918"/>
<path fill-rule="evenodd" clip-rule="evenodd" d="M0 9V12H16V9H0Z" fill="#C51918"/>
<rect x="2.50391" y="5.13599" width="0.56" height="2.912" fill="#F1F9FF"/>
<path fill-rule="evenodd" clip-rule="evenodd" d="M3.2873 4.63199H2.2793V4.91199H2.4473V5.13599H3.1193V4.91199H3.2873V4.63199Z" fill="#C88A02"/>
<path fill-rule="evenodd" clip-rule="evenodd" d="M3.1193 8.216H3.2873V8.496H2.2793V8.216H2.4473V7.992H3.1193V8.216Z" fill="#C88A02"/>
<path fill-rule="evenodd" clip-rule="evenodd" d="M2.78262 4.68799C2.90449 4.68799 2.91688 4.6421 2.98877 4.57357C3.0446 4.52035 3.17462 4.45434 3.17462 4.37999C3.17462 4.20989 2.99912 4.07199 2.78262 4.07199C2.56613 4.07199 2.39062 4.20989 2.39062 4.37999C2.39062 4.46282 2.48016 4.51821 2.54787 4.57357C2.61919 4.63189 2.67155 4.68799 2.78262 4.68799Z" fill="#AD1619"/>
<path fill-rule="evenodd" clip-rule="evenodd" d="M2.2793 8.496H3.2873V8.944C3.2873 8.944 3.1613 8.888 3.0353 8.888C2.9093 8.888 2.7833 8.944 2.7833 8.944C2.7833 8.944 2.6573 8.888 2.5313 8.888C2.4053 8.888 2.2793 8.944 2.2793 8.944V8.496Z" fill="#005BBF"/>
<mask id="mask2_0_851" style="mask-type:luminance" maskUnits="userSpaceOnUse" x="2" y="8" width="2" height="1">
<path fill-rule="evenodd" clip-rule="evenodd" d="M2.2793 8.496H3.2873V8.944C3.2873 8.944 3.1613 8.888 3.0353 8.888C2.9093 8.888 2.7833 8.944 2.7833 8.944C2.7833 8.944 2.6573 8.888 2.5313 8.888C2.4053 8.888 2.2793 8.944 2.2793 8.944V8.496Z" fill="white"/>
</mask>
<g mask="url(#mask2_0_851)">
</g>
<rect x="7.99219" y="5.13599" width="0.56" height="2.912" fill="#F1F9FF"/>
<path fill-rule="evenodd" clip-rule="evenodd" d="M8.77558 4.63199H7.76758V4.91199H7.93558V5.13599H8.60758V4.91199H8.77558V4.63199Z" fill="#C88A02"/>
<path fill-rule="evenodd" clip-rule="evenodd" d="M8.60758 8.216H8.77558V8.496H7.76758V8.216H7.93558V7.992H8.60758V8.216Z" fill="#C88A02"/>
<path fill-rule="evenodd" clip-rule="evenodd" d="M8.27091 4.68799C8.39277 4.68799 8.40516 4.6421 8.47706 4.57357C8.53288 4.52035 8.66291 4.45434 8.66291 4.37999C8.66291 4.20989 8.4874 4.07199 8.27091 4.07199C8.05441 4.07199 7.87891 4.20989 7.87891 4.37999C7.87891 4.46282 7.96845 4.51821 8.03615 4.57357C8.10748 4.63189 8.15984 4.68799 8.27091 4.68799Z" fill="#AD1619"/>
<path fill-rule="evenodd" clip-rule="evenodd" d="M7.76758 8.496H8.77558V8.944C8.77558 8.944 8.64958 8.888 8.52358 8.888C8.39758 8.888 8.27158 8.944 8.27158 8.944C8.27158 8.944 8.14558 8.888 8.01958 8.888C7.89358 8.888 7.76758 8.944 7.76758 8.944V8.496Z" fill="#005BBF"/>
<mask id="mask3_0_851" style="mask-type:luminance" maskUnits="userSpaceOnUse" x="7" y="8" width="2" height="1">
<path fill-rule="evenodd" clip-rule="evenodd" d="M7.76758 8.496H8.77558V8.944C8.77558 8.944 8.64958 8.888 8.52358 8.888C8.39758 8.888 8.27158 8.944 8.27158 8.944C8.27158 8.944 8.14558 8.888 8.01958 8.888C7.89358 8.888 7.76758 8.944 7.76758 8.944V8.496Z" fill="white"/>
</mask>
<g mask="url(#mask3_0_851)">
</g>
<path fill-rule="evenodd" clip-rule="evenodd" d="M2.49339 7.83994C2.59435 7.71754 2.65081 7.60618 2.65081 7.48791C2.65081 7.41334 2.62862 7.34893 2.58974 7.29631L2.59631 7.29336C2.59571 7.29363 2.70707 7.24509 2.74584 7.22649C2.81792 7.19194 2.88142 7.15533 2.94333 7.11031C2.98285 7.08156 3.03581 7.05025 3.11654 7.0069L3.21289 6.95568C3.25213 6.93474 3.28135 6.9187 3.30849 6.90295C3.39308 6.85389 3.44897 6.81334 3.49172 6.75912C3.59298 6.63072 3.57196 6.45666 3.43006 6.36005C3.36054 6.31272 3.26673 6.28556 3.12922 6.26418L2.93254 6.23369C2.86673 6.22336 2.80802 6.21372 2.75566 6.20457C3.09994 6.14728 3.59156 6.16834 3.80781 6.27999L4.01334 5.88192C3.57267 5.65439 2.5686 5.67763 2.19354 5.93592C1.91844 6.12538 1.95535 6.41176 2.24158 6.53508C2.36118 6.58661 2.5171 6.6208 2.80562 6.66715C2.75727 6.6952 2.71718 6.72083 2.67983 6.74799C2.64195 6.77553 2.60137 6.79893 2.55215 6.82253C2.52861 6.83382 2.45891 6.86442 2.42695 6.87845L2.42693 6.87846L2.42693 6.87847L2.41087 6.88554C2.17773 6.99155 2.06458 7.1382 2.09839 7.40293L2.11669 7.54624L2.14952 7.55632L2.49339 7.83994ZM2.2052 7.4696L2.20449 7.47166L2.20503 7.4702L2.2052 7.4696ZM8.35239 7.48791C8.35239 7.60618 8.40885 7.71754 8.50981 7.83994L8.85367 7.55632L8.88651 7.54624L8.90481 7.40293C8.93862 7.1382 8.82547 6.99155 8.59233 6.88554L8.57627 6.87846C8.54432 6.86444 8.4746 6.83382 8.45105 6.82253C8.40183 6.79893 8.36125 6.77553 8.32337 6.74799C8.28602 6.72083 8.24593 6.6952 8.19758 6.66715C8.4861 6.6208 8.64202 6.58661 8.76162 6.53508C9.04785 6.41176 9.08476 6.12538 8.80966 5.93592C8.4346 5.67763 7.43053 5.65439 6.98986 5.88192L7.19539 6.27999C7.41164 6.16834 7.90326 6.14728 8.24754 6.20457C8.19518 6.21372 8.13647 6.22336 8.07066 6.23369L7.87398 6.26418C7.73647 6.28556 7.64266 6.31272 7.57314 6.36005C7.43124 6.45666 7.41022 6.63072 7.51148 6.75912C7.55423 6.81334 7.61013 6.85389 7.69471 6.90295C7.72185 6.9187 7.75107 6.93474 7.79031 6.95568L7.88666 7.0069C7.96739 7.05025 8.02035 7.08156 8.05987 7.11031C8.12178 7.15533 8.18528 7.19194 8.25736 7.22649C8.29613 7.24509 8.40749 7.29363 8.40689 7.29336L8.41346 7.29631C8.37458 7.34893 8.35239 7.41334 8.35239 7.48791Z" fill="#AD1619"/>
<path d="M2.96158 6.19998L3.12688 6.23418V6.48055C2.95083 6.62101 2.50391 6.85776 2.50391 6.85776V6.19998H2.96158Z" fill="#F1F9FF"/>
<path d="M8.15756 6.19998L7.99226 6.23418V6.48055C8.16831 6.62101 8.61523 6.85776 8.61523 6.85776V6.19998H8.15756Z" fill="#F1F9FF"/>
<path fill-rule="evenodd" clip-rule="evenodd" d="M7.38661 3.60298V3.52099C7.09856 3.31427 6.79693 3.21091 6.48169 3.21091C6.17948 3.07717 5.87358 3.02526 5.564 3.05517C5.56408 3.05421 5.56413 3.05373 5.56413 3.05373C5.09864 3.00818 4.62952 3.21091 4.62952 3.21091C4.15667 3.21091 3.72461 3.52099 3.72461 3.52099V3.60298L4.28942 4.17025C4.28942 4.17025 4.44835 4.71605 5.56123 4.58799C5.56162 4.58886 5.56183 4.58931 5.56183 4.58931C5.56183 4.58931 6.299 4.56919 6.3508 4.55196C6.37135 4.54512 6.39267 4.5389 6.41445 4.53254C6.55884 4.49038 6.72367 4.44226 6.82179 4.17025L7.38661 3.60298ZM5.56147 3.0845C5.55914 3.11201 5.55544 3.15681 5.55108 3.21408C5.55662 3.17304 5.56034 3.12998 5.56147 3.0845Z" fill="#AD1619"/>
<path fill-rule="evenodd" clip-rule="evenodd" d="M3.75781 3.69923L3.79619 3.65845L4.30903 4.14095C4.40638 4.11477 4.9348 3.98012 5.52504 3.97349V3.97324L5.54749 3.9733L5.56995 3.97324V3.97349C6.22389 3.98084 6.80195 4.14533 6.80195 4.14533C6.80195 4.14533 6.79576 4.19841 6.78071 4.26081C6.79664 4.22814 6.81551 4.19184 6.83732 4.15178L6.84273 4.14478L7.35964 3.65845L7.39802 3.69923L6.88437 4.18249C6.80943 4.3205 6.77169 4.4116 6.77169 4.44944C6.77169 4.50717 6.62149 4.54144 6.32836 4.57663C6.09872 4.6042 5.82771 4.62271 5.60602 4.62548V4.62584L5.57792 4.62574L5.54981 4.62584V4.62548C5.32813 4.62271 5.05711 4.6042 4.82747 4.57663C4.53434 4.54144 4.38414 4.50717 4.38414 4.44944C4.38414 4.44228 4.38279 4.43322 4.38009 4.42229C4.35054 4.38465 4.32975 4.32307 4.31593 4.26752C4.30295 4.24154 4.28813 4.21318 4.27146 4.18249L3.75781 3.69923ZM6.62445 4.45054C6.66369 4.4689 6.69514 4.45058 6.72001 4.41542C6.71785 4.42513 6.71651 4.43391 6.71596 4.44178C6.71268 4.44393 6.70764 4.44651 6.70104 4.44929C6.68259 4.45705 6.65442 4.46531 6.61777 4.47367C6.54574 4.4901 6.4432 4.50644 6.32169 4.52103C6.08439 4.54952 5.80223 4.56827 5.57792 4.56974C5.3536 4.56827 5.07144 4.54952 4.83414 4.52103C4.71263 4.50644 4.61009 4.4901 4.53806 4.47367C4.50734 4.46666 4.48258 4.45972 4.46451 4.4531L4.47054 4.45054C4.59287 4.39329 5.40182 4.33958 5.54749 4.33031C5.69317 4.33958 6.50212 4.39329 6.62445 4.45054ZM6.77872 4.44028L6.77787 4.44126L6.77838 4.44055L6.77872 4.44028Z" fill="#C88A02"/>
<path fill-rule="evenodd" clip-rule="evenodd" d="M5.55472 2.67352C5.6475 2.67352 5.72272 2.59831 5.72272 2.50552C5.72272 2.41274 5.6475 2.33752 5.55472 2.33752C5.46193 2.33752 5.38672 2.41274 5.38672 2.50552C5.38672 2.59831 5.46193 2.67352 5.55472 2.67352Z" fill="#005BBF"/>
<path fill-rule="evenodd" clip-rule="evenodd" d="M5.49148 2.0383H5.60814V2.112H5.68437V2.22867H5.60814V2.462H5.68437V2.57867H5.41406V2.462H5.49148V2.22867H5.41406V2.112H5.49148V2.0383Z" fill="#C88A02"/>
<rect x="5.4707" y="2.672" width="0.224" height="0.728" fill="#C88A02"/>
<path d="M3.85254 3.64843L3.54492 3.63686C3.69006 2.79807 4.40484 2.38708 5.54705 2.38708C6.69074 2.38708 7.40301 2.79985 7.53723 3.64176L7.12119 3.6854C7.05587 3.2757 6.36964 2.90493 5.55307 2.90493C4.73501 2.90493 3.92397 3.23561 3.85254 3.64843Z" fill="#C88A02"/>
<path opacity="0.3" fill-rule="evenodd" clip-rule="evenodd" d="M3.73633 4.63199H7.37633V7.9024C7.37633 7.9024 7.10594 8.99999 5.55633 8.99999C4.00672 8.99999 3.73633 7.87346 3.73633 7.87346V4.63199Z" fill="#E1E5E8"/>
<mask id="mask4_0_851" style="mask-type:luminance" maskUnits="userSpaceOnUse" x="3" y="4" width="5" height="5">
<path fill-rule="evenodd" clip-rule="evenodd" d="M3.73633 4.63199H7.37633V7.9024C7.37633 7.9024 7.10594 8.99999 5.55633 8.99999C4.00672 8.99999 3.73633 7.87346 3.73633 7.87346V4.63199Z" fill="white"/>
</mask>
<g mask="url(#mask4_0_851)">
<rect x="3.73633" y="6.64798" width="1.848" height="2.184" fill="#FFC034"/>
<rect x="3.73633" y="4.57599" width="1.848" height="2.128" fill="#AD1619"/>
<rect x="5.5293" y="6.59198" width="1.848" height="2.128" fill="#AD1619"/>
<rect x="5.5293" y="4.63199" width="1.96" height="2.072" fill="#F1F9FF"/>
<path fill-rule="evenodd" clip-rule="evenodd" d="M6.74255 8.72135C6.74255 8.72135 5.55645 8.8146 5.55645 8.04962C5.55645 8.04962 5.54514 8.72135 4.30664 8.72135V9.32526H6.74255V8.72135Z" fill="#F1F9FF"/>
<path fill-rule="evenodd" clip-rule="evenodd" d="M5.55672 7.09598C5.78868 7.09598 5.97672 6.89541 5.97672 6.64798C5.97672 6.40056 5.78868 6.19998 5.55672 6.19998C5.32476 6.19998 5.13672 6.40056 5.13672 6.64798C5.13672 6.89541 5.32476 7.09598 5.55672 7.09598Z" fill="#005BBF" stroke="#AD1619" stroke-width="0.583333"/>
</g>
<path fill-rule="evenodd" clip-rule="evenodd" d="M4.5 6C4.77614 6 5 5.77614 5 5.5C5 5.22386 4.77614 5 4.5 5C4.22386 5 4 5.22386 4 5.5C4 5.77614 4.22386 6 4.5 6Z" fill="#C88A02"/>
<path fill-rule="evenodd" clip-rule="evenodd" d="M6.5 6C6.77614 6 7 5.77614 7 5.5C7 5.22386 6.77614 5 6.5 5C6.22386 5 6 5.22386 6 5.5C6 5.77614 6.22386 6 6.5 6Z" fill="#C37C9C"/>
<path fill-rule="evenodd" clip-rule="evenodd" d="M6.5 8C6.77614 8 7 7.77614 7 7.5C7 7.22386 6.77614 7 6.5 7C6.22386 7 6 7.22386 6 7.5C6 7.77614 6.22386 8 6.5 8Z" fill="#FFC034"/>
<path d="M4.5 8C4.77614 8 5 7.77614 5 7.5C5 7.22386 4.77614 7 4.5 7C4.22386 7 4 7.22386 4 7.5C4 7.77614 4.22386 8 4.5 8Z" fill="#AD1619"/>
</g>
</g>
</svg>
