<svg width="305" height="24" viewBox="0 0 305 24" fill="none" xmlns="http://www.w3.org/2000/svg">
<g clip-path="url(#clip0_175_5595)">
<path d="M304.967 10.83C305.034 11.0014 304.997 11.1986 304.871 11.3296L296.996 19.5796C296.823 19.7555 296.546 19.7504 296.378 19.5683C296.214 19.3907 296.214 19.1091 296.378 18.9315L303.506 11.4634H284.438C284.196 11.4634 284 11.2582 284 11.005C284 10.7519 284.196 10.5467 284.438 10.5467H303.506L296.379 3.07955C296.205 2.90368 296.2 2.61355 296.368 2.43145C296.536 2.24939 296.813 2.24436 296.987 2.42019C296.99 2.42389 296.994 2.42762 296.997 2.43145L304.872 10.6814C304.913 10.724 304.945 10.7745 304.967 10.83Z" fill="#2196F3"/>
<path d="M296.687 2.29697C296.446 2.2965 296.249 2.50137 296.249 2.7545C296.249 2.87653 296.295 2.99362 296.378 3.07981L303.944 11.0053L296.378 18.9308C296.21 19.1128 296.215 19.403 296.388 19.5789C296.558 19.7504 296.827 19.7504 296.996 19.5789L304.871 11.3289C305.042 11.1499 305.042 10.8598 304.871 10.6808L296.996 2.43077C296.914 2.34509 296.803 2.29697 296.687 2.29697Z" fill="#242424"/>
<path d="M304.562 10.5467H284.438C284.196 10.5467 284 10.7519 284 11.005C284 11.2582 284.196 11.4634 284.438 11.4634H304.563C304.804 11.4634 305 11.2582 305 11.005C305 10.7519 304.804 10.5467 304.562 10.5467Z" fill="#242424"/>
</g>
<g clip-path="url(#clip1_175_5595)">
<path d="M0.0348461 13.17C-0.0360081 12.9986 0.00343588 12.8014 0.134749 12.6704L8.38475 4.42041C8.56681 4.24454 8.85698 4.24961 9.03285 4.43167C9.20438 4.6093 9.20438 4.89088 9.03285 5.06847L1.56475 12.5366L21.5417 12.5366C21.7948 12.5366 22 12.7418 22 12.995C22 13.2481 21.7948 13.4533 21.5417 13.4533L1.56475 13.4533L9.0319 20.9205C9.21396 21.0963 9.21903 21.3865 9.04316 21.5686C8.86729 21.7506 8.57716 21.7556 8.39506 21.5798C8.39124 21.5761 8.3875 21.5724 8.38381 21.5686L0.133805 13.3186C0.0914372 13.276 0.0577915 13.2255 0.0348461 13.17Z" fill="#2196F3"/>
<path d="M8.70881 21.703C8.96193 21.7035 9.1675 21.4986 9.16797 21.2455C9.16818 21.1235 9.11972 21.0064 9.03331 20.9202L1.10686 12.9947L9.0333 5.06923C9.20918 4.88717 9.2041 4.597 9.02205 4.42113C8.84441 4.2496 8.56284 4.2496 8.38525 4.42113L0.135247 12.6711C-0.0436747 12.8501 -0.0436746 13.1402 0.135247 13.3192L8.38525 21.5692C8.4711 21.6549 8.58746 21.703 8.70881 21.703Z" fill="#7C7B7B"/>
<path d="M0.458345 13.4533L21.5417 13.4533C21.7948 13.4533 22 13.2481 22 12.995C22 12.7418 21.7948 12.5366 21.5417 12.5366L0.458302 12.5366C0.205173 12.5366 -4.38511e-05 12.7418 -4.38289e-05 12.995C6.21989e-08 13.2481 0.205217 13.4533 0.458345 13.4533Z" fill="#7C7B7B"/>
</g>
<defs>
<clipPath id="clip0_175_5595">
<rect width="21" height="22" fill="white" transform="matrix(1 0 0 -1 284 22)"/>
</clipPath>
<clipPath id="clip1_175_5595">
<rect width="22" height="22" fill="white" transform="matrix(-1 8.74228e-08 8.74228e-08 1 22 2)"/>
</clipPath>
</defs>
</svg>
