<svg width="48" height="48" viewBox="0 0 48 48" fill="none" xmlns="http://www.w3.org/2000/svg">
<path fill-rule="evenodd" clip-rule="evenodd" d="M19.4063 12C19.4063 9.46297 21.463 7.40628 24.0001 7.40628C26.5372 7.40628 28.5938 9.46297 28.5938 12V12.5938H19.4063V12ZM16.5938 15.4063V18C16.5938 18.7767 17.2234 19.4063 18.0001 19.4063C18.7767 19.4063 19.4063 18.7767 19.4063 18V15.4063H28.5938V18C28.5938 18.7767 29.2234 19.4063 30.0001 19.4063C30.7767 19.4063 31.4063 18.7767 31.4063 18V15.4063H34.6975L36.4812 38.5938H11.5183L13.302 15.4063H16.5938ZM16.5938 12.5938V12C16.5938 7.90967 19.9097 4.59378 24.0001 4.59378C28.0905 4.59378 31.4063 7.90967 31.4063 12V12.5938H35.9998C36.7346 12.5938 37.3455 13.1595 37.4019 13.8922L39.4019 39.8922C39.4319 40.2827 39.2977 40.6681 39.0316 40.9555C38.7654 41.2429 38.3915 41.4063 37.9998 41.4063H9.99976C9.60806 41.4063 9.2341 41.2429 8.96796 40.9555C8.70182 40.6681 8.56761 40.2827 8.59765 39.8922L10.5977 13.8922C10.654 13.1595 11.2649 12.5938 11.9998 12.5938H16.5938Z" fill="#FED700"/>
</svg>
