<svg width="64" height="64" viewBox="0 0 64 64" fill="none" xmlns="http://www.w3.org/2000/svg">
<path d="M32.3341 5.33325V24.9651C32.3341 25.0484 32.2507 25.1318 32.1674 25.1318C31.584 25.3865 31.084 25.6389 30.5006 25.8913C29.7506 26.227 28.9172 26.5652 28.1672 26.9866L25.4171 28.2486L23.167 29.2605L20.4169 30.5249C19.6668 30.863 18.9168 31.1987 18.0834 31.6201C17.5001 31.8725 16.8334 32.2106 16.25 32.463C16.1667 32.463 16.1667 32.5464 16.0833 32.463H16C16.25 32.0416 16.5 31.7035 16.75 31.2844C18.0834 29.0081 19.5002 26.7342 20.8335 24.4579C22.2503 22.0173 23.7503 19.572 25.1671 17.129C26.5005 14.8551 27.8339 12.5812 29.1673 10.3906C30.1673 8.70245 31.1673 7.10476 32.0841 5.41659C32.2507 5.41659 32.2507 5.33325 32.3341 5.33325C32.3341 5.33325 32.2507 5.33325 32.3341 5.33325Z" fill="#8C8C8C"/>
<path d="M48.5012 32.4632C47.2512 33.3061 45.9178 34.0633 44.6677 34.8204C40.5842 37.2658 36.584 39.6254 32.5005 42.0684C32.4172 42.0684 32.4172 42.1517 32.3338 42.1517C32.2505 42.1517 32.2505 42.0684 32.2505 42.0684V25.1319C32.2505 25.0486 32.3338 25.0486 32.4172 25.0486C32.7505 25.2153 33.0839 25.3867 33.5005 25.5534C34.5006 26.0605 35.584 26.482 36.584 26.9868C37.5007 27.4082 38.3341 27.8297 39.2508 28.1654C40.1675 28.5868 41.0009 29.0083 41.9176 29.4297C42.6676 29.7678 43.501 30.1036 44.251 30.525C45.0011 30.8631 45.8344 31.1989 46.5845 31.6203C47.1678 31.8727 47.7512 32.2108 48.4179 32.4632C48.4179 32.3799 48.4179 32.4632 48.5012 32.4632Z" fill="#141414"/>
<path d="M32.3342 58.6666C32.2509 58.6666 32.3342 58.6666 32.3342 58.6666C32.2509 58.6666 32.2509 58.6666 32.1675 58.5808C30.5008 56.2236 28.9174 53.9473 27.2507 51.5877L22.2504 44.5112C20.667 42.2372 19.0003 39.9633 17.4169 37.6013L16.1668 35.8322C16.1668 35.7489 16.0835 35.7489 16.0835 35.6655C16.1668 35.6655 16.1668 35.7489 16.2502 35.7489C18.5003 37.0965 20.8337 38.4442 23.0838 39.7919C25.6673 41.3944 28.334 42.9111 30.9175 44.5112C31.3342 44.7636 31.8342 45.0159 32.2509 45.2683C32.3342 45.2683 32.3342 45.3541 32.3342 45.4374V58.6666Z" fill="#8C8C8C"/>
<path d="M16 31.5813C16 31.498 16 31.498 16 31.5813C16.8334 31.1598 17.6667 30.8241 18.5001 30.4027L21.7503 28.8859C22.5836 28.4645 23.417 28.1288 24.2504 27.7073C25.4171 27.1168 26.6671 26.612 27.8339 26.0215C28.6672 25.6834 29.5006 25.262 30.334 24.9262C30.9173 24.6738 31.5007 24.4214 32.0841 24.0833C32.1674 24.0833 32.1674 24 32.2507 24V41.1865C32.1674 41.2722 32.1674 41.1865 32.0841 41.1865C31.834 41.0198 31.584 40.9341 31.4174 40.765L16.1667 31.667C16.0833 31.5813 16 31.5813 16 31.5813ZM48.2514 34.7005C48.2514 34.7838 48.2514 34.7838 48.1681 34.8672C43.3346 41.777 38.501 48.6011 33.6675 55.5109C33.1674 56.2681 32.6674 56.9419 32.1674 57.7015V44.3033C33.2508 43.6294 34.3342 42.9556 35.4175 42.3675L48.1681 34.7838C48.1681 34.7005 48.2514 34.7005 48.2514 34.7005Z" fill="#3C3C3B"/>
<path d="M32.334 25.0485V5.42139L48.3347 32.2131C48.418 32.2964 48.5014 32.3797 48.5014 32.4655C48.168 32.2988 47.8347 32.1273 47.418 31.9607C47.0013 31.7916 46.5846 31.5392 46.1679 31.3702C45.9179 31.2868 45.6679 31.1178 45.3346 31.0321C44.9179 30.8654 44.4179 30.6106 44.0012 30.4439C43.7512 30.3582 43.5012 30.1915 43.2511 30.1058L41.5011 29.3486C41.1677 29.1796 40.9177 29.0963 40.5844 28.9272C40.1677 28.7581 39.751 28.5058 39.3343 28.3367C39.0843 28.2534 38.8343 28.0843 38.5843 28.001L36.8342 27.2414C36.5008 27.0747 36.2508 26.989 35.9175 26.82C35.5008 26.6533 35.0841 26.3985 34.6674 26.2295C34.4174 26.0628 34.0841 25.9771 33.8341 25.8104L32.334 25.0508V25.0485Z" fill="#343434"/>
</svg>
